<svg width="90" height="90" viewBox="0 0 90 90" fill="none" xmlns="http://www.w3.org/2000/svg">
<path d="M41.9999 61.5143V28.5143C41.9999 25.9643 40.05 24.0143 37.4999 24.0143H4.5C1.94994 24.0143 0 25.9643 0 28.5143V61.5143C0 64.0643 1.94994 66.0143 4.5 66.0143H37.4999C40.05 66.0143 41.9999 64.0643 41.9999 61.5143ZM3.00006 61.5143V28.5143C3.00006 27.6143 3.6 27.0144 4.5 27.0144H37.4999C38.3999 27.0144 38.9999 27.6143 38.9999 28.5143V61.5143C38.9999 62.4143 38.3999 63.0142 37.4999 63.0142H4.5C3.6 63.0144 3.00006 62.4143 3.00006 61.5143Z" fill="#BEBEBE"/>
<path d="M7.50043 34.5143H22.5004C23.4004 34.5143 24.0003 33.9143 24.0003 33.0143C24.0003 32.1143 23.4004 31.5144 22.5004 31.5144H7.50043C6.60043 31.5144 6.00049 32.1143 6.00049 33.0143C6.00049 33.9143 6.60043 34.5143 7.50043 34.5143Z" fill="#BEBEBE"/>
<path d="M28.4998 37.5143H11.9999C11.0999 37.5143 10.5 38.1143 10.5 39.0143C10.5 39.9143 11.0999 40.5142 11.9999 40.5142H28.5C29.4 40.5142 29.9999 39.9143 29.9999 39.0143C29.9999 38.1143 29.3998 37.5143 28.4998 37.5143Z" fill="#BEBEBE"/>
<path d="M22.5004 43.5143H7.50043C6.60043 43.5143 6.00049 44.1142 6.00049 45.0142C6.00049 45.9142 6.60043 46.5142 7.50043 46.5142H22.5004C23.4004 46.5142 24.0003 45.9142 24.0003 45.0142C24.0003 44.1142 23.4004 43.5143 22.5004 43.5143Z" fill="#BEBEBE"/>
<path d="M15.0003 51.0143C15.0003 50.1143 14.4004 49.5144 13.5004 49.5144H7.50043C6.60043 49.5144 6.00049 50.1143 6.00049 51.0143C6.00049 51.9143 6.60043 52.5143 7.50043 52.5143H13.5004C14.4004 52.5143 15.0003 51.9143 15.0003 51.0143Z" fill="#BEBEBE"/>
<path d="M22.5 55.5143H10.4999C9.59994 55.5143 9 56.1143 9 57.0143C9 57.9143 9.59994 58.5142 10.4999 58.5142H22.5C23.4 58.5142 23.9999 57.9143 23.9999 57.0143C23.9999 56.1143 23.4 55.5143 22.5 55.5143Z" fill="#BEBEBE"/>
<path d="M85.4999 24.0143H52.5C49.9499 24.0143 48 25.9643 48 28.5143V61.5143C48 64.0643 49.9499 66.0143 52.5 66.0143H85.4999C88.05 66.0143 89.9999 64.0643 89.9999 61.5143V28.5143C89.9999 25.9643 88.05 24.0143 85.4999 24.0143ZM86.9999 61.5143C86.9999 62.4143 86.3999 63.0142 85.4999 63.0142H52.5C51.6 63.0142 51.0001 62.4143 51.0001 61.5143V28.5143C51.0001 27.6143 51.6 27.0144 52.5 27.0144H85.4999C86.3999 27.0144 86.9999 27.6143 86.9999 28.5143V61.5143Z" fill="#BEBEBE"/>
<path d="M55.4999 34.5143H70.4999C71.3999 34.5143 71.9998 33.9143 71.9998 33.0143C71.9998 32.1143 71.3999 31.5144 70.4999 31.5144H55.4999C54.5999 31.5144 54 32.1143 54 33.0143C54 33.9143 54.5999 34.5143 55.4999 34.5143Z" fill="#BEBEBE"/>
<path d="M76.5 37.5143H59.9999C59.0999 37.5143 58.5 38.1143 58.5 39.0143C58.5 39.9143 59.0999 40.5142 59.9999 40.5142H76.5C77.4 40.5142 77.9999 39.9143 77.9999 39.0143C77.9999 38.1143 77.4 37.5143 76.5 37.5143Z" fill="#BEBEBE"/>
<path d="M70.4999 43.5143H55.4999C54.5999 43.5143 54 44.1142 54 45.0142C54 45.9142 54.5999 46.5142 55.4999 46.5142H70.4999C71.3999 46.5142 71.9998 45.9142 71.9998 45.0142C71.9998 44.1142 71.3999 43.5143 70.4999 43.5143Z" fill="#BEBEBE"/>
<path d="M62.9998 51.0143C62.9998 50.1143 62.3999 49.5144 61.4999 49.5144H55.4999C54.5999 49.5144 54 50.1143 54 51.0143C54 51.9143 54.5999 52.5143 55.4999 52.5143H61.4999C62.3999 52.5143 62.9998 51.9143 62.9998 51.0143Z" fill="#BEBEBE"/>
<path d="M70.5 55.5143H58.4999C57.5999 55.5143 57 56.1143 57 57.0143C57 57.9143 57.5999 58.5142 58.4999 58.5142H70.5C71.4 58.5142 71.9999 57.9143 71.9999 57.0143C71.9999 56.1143 71.4 55.5143 70.5 55.5143Z" fill="#BEBEBE"/>
<path d="M21.0002 16.5143C21.1502 16.5143 21.4502 16.5143 21.6002 16.3643C30.1502 12.1644 36.9002 10.5143 45.0002 10.5143C52.017 10.5143 58.0215 11.7539 65.06 14.8155L58.5002 16.9643C57.7501 17.2643 57.3001 18.0142 57.6002 18.7643C57.7501 19.3642 58.3502 19.8142 58.9502 19.8142C59.1001 19.8142 59.2502 19.8142 59.4002 19.6643L69.114 16.4747C69.6477 16.4364 70.1427 16.1334 70.3501 15.6143C70.4261 15.4624 70.4632 15.2722 70.4623 15.0824C70.4755 14.7619 70.3934 14.4459 70.2257 14.1852L67.0502 4.51439C66.7501 3.76433 66.0002 3.31433 65.2502 3.46445C64.5001 3.76451 64.0501 4.66451 64.3502 5.41439L66.5919 12.2577C59.0676 8.92351 52.5614 7.51427 45.0002 7.51427C36.4502 7.51427 29.2502 9.31427 20.4001 13.6643C19.6501 13.9644 19.3502 14.8644 19.6501 15.6143C19.9501 16.2144 20.4001 16.5143 21.0002 16.5143Z" fill="#BEBEBE"/>
<path d="M68.4001 73.6643C59.8501 77.8642 53.1001 79.5143 45.0001 79.5143C38.0264 79.5143 32.0524 78.2894 25.0699 75.269L31.8002 73.0642C32.5503 72.7641 33.0003 71.8641 32.7002 71.1142C32.4001 70.3643 31.5001 69.9142 30.7503 70.2142L20.7003 73.5142C20.5333 73.5699 20.3872 73.6462 20.2616 73.7355C19.9928 73.8815 19.7718 74.1102 19.6502 74.4142C19.4579 74.8951 19.5133 75.4369 19.7746 75.8433L22.9501 85.514C23.1001 86.114 23.7002 86.564 24.3001 86.564C24.6002 86.564 24.7501 86.564 25.0502 86.564C25.8003 86.2639 26.2503 85.3639 25.9502 84.614L23.7591 77.9254C31.1357 81.1489 37.5565 82.514 45.0001 82.514C53.5501 82.514 60.7501 80.714 69.6002 76.3639C70.3503 76.0639 70.6501 75.1639 70.3503 74.414C70.0502 73.6643 69.1502 73.3644 68.4001 73.6643Z" fill="#BEBEBE"/>
</svg>
