<svg width="90" height="90" viewBox="0 0 90 90" fill="none" xmlns="http://www.w3.org/2000/svg">
<g clip-path="url(#clip0)">
<path d="M43.3286 72.1565C18.7187 72.1565 1.00374 46.7207 0.261379 45.6378C-0.109053 45.1001 -0.0836602 44.3816 0.319633 43.8693C1.15759 42.8058 21.0907 17.8435 45 17.8435C71.816 17.8435 89.0246 42.8909 89.7446 43.9559C90.0881 44.4668 90.0866 45.1359 89.7341 45.6423C89.0246 46.6699 72.046 70.7629 45.0747 72.1117C44.4906 72.1401 43.9081 72.1565 43.3286 72.1565ZM3.38615 44.8521C6.86044 49.4795 23.63 70.1954 44.9283 69.1304C67.6874 67.9952 83.4084 49.0359 86.6586 44.7834C83.4099 40.4338 67.5231 20.8323 45.0015 20.8323C24.9444 20.8323 7.12632 40.4548 3.38615 44.8521Z" fill="#BEBEBE"/>
<path d="M44.9998 55.4363C39.2461 55.4363 34.5649 50.7536 34.5649 45.0015C34.5649 39.2493 39.2461 34.5682 44.9998 34.5682C50.7534 34.5682 55.4346 39.2508 55.4346 45.0015C55.4346 50.7536 50.7534 55.4363 44.9998 55.4363Z" fill="#BEBEBE"/>
<path d="M44.9997 63.6515C34.7157 63.6515 26.3496 55.284 26.3496 45.0015C26.3496 34.7205 34.7172 26.3529 44.9997 26.3529C55.2821 26.3529 63.6497 34.7205 63.6497 45.0015C63.6497 55.284 55.2851 63.6515 44.9997 63.6515ZM44.9997 29.3373C36.3632 29.3373 29.337 36.3636 29.337 45C29.337 53.6349 36.3632 60.6612 44.9997 60.6612C53.6361 60.6612 60.6623 53.6349 60.6623 45C60.6623 36.3636 53.6376 29.3373 44.9997 29.3373Z" fill="#BEBEBE"/>
</g>
<defs>
<clipPath id="clip0">
<rect width="90" height="90" fill="white"/>
</clipPath>
</defs>
</svg>
