<svg xmlns="http://www.w3.org/2000/svg">

    <symbol id="menu_add_insured" viewBox="0 0 90 90">
        <path d="M54.8438 68.9062h8.4374v8.4376c0 .3729.1482.7306.4119.9943.2638.2637.6214.4119.9944.4119s.7306-.1482.9944-.4119c.2637-.2637.4119-.6214.4119-.9943v-8.4376h8.4374c.373 0 .7307-.1481.9944-.4118.2637-.2638.4119-.6214.4119-.9944s-.1482-.7306-.4119-.9944c-.2637-.2637-.6214-.4118-.9944-.4118h-8.4374v-8.4376c0-.3729-.1482-.7306-.4119-.9943-.2638-.2637-.6214-.4119-.9944-.4119s-.7306.1482-.9944.4119c-.2637.2637-.4119.6214-.4119.9943v8.4376h-8.4374c-.373 0-.7307.1481-.9944.4118-.2637.2638-.4119.6214-.4119.9944s.1482.7306.4119.9944c.2637.2637.6214.4118.9944.4118z" fill="#BEBEBE"/><path d="M6.35783 72.9533c.64442.3515 15.96337 8.6092 31.61097 8.6092 3.9595-.0168 7.907-.4363 11.7817-1.2519 2.1489 2.5055 4.8934 4.4304 7.981 5.5976 3.0877 1.1672 6.4192 1.5391 9.6882 1.0816s6.3705-1.7297 9.019-3.6997c2.6486-1.97 4.7593-4.5743 6.1378-7.5736 1.3785-2.9992 1.9806-6.2969 1.751-9.5898-.2296-3.2928-1.2837-6.475-3.0652-9.2539-1.7815-2.7788-4.2332-5.065-7.1295-6.6483-2.8964-1.5832-6.1444-2.4127-9.4453-2.412-.3765 0-.7502.0116-1.1215.0327-4.4673-6.6818-10.7627-11.2324-17.9497-13.1175 3.3803-1.7185 6.0832-4.5254 7.673-7.9681 1.5897-3.4427 1.9736-7.3206 1.0896-11.0081-.8839-3.6876-2.9841-6.96998-5.9618-9.31785-2.9778-2.34786-6.6596-3.62434-10.4516-3.6236-3.792.00074-7.4733 1.27866-10.4501 3.62769-2.9769 2.34903-5.0758 5.63226-5.9583 9.32016-.8825 3.6879-.4971 7.5656 1.094 11.0077 1.5911 3.442 4.2951 6.2479 7.6761 7.9651-5.8289 1.5293-11.1015 4.8178-15.2946 9.6279C8.96607 51.3178 5.625 61.0344 5.625 71.7188c0 .2526.06806.5005.19701.7178.12896.2172.31405.3957.53582.5167zM64.6875 50.625c3.3376 0 6.6002.9897 9.3753 2.844 2.775 1.8542 4.9379 4.4897 6.2152 7.5732 1.2772 3.0835 1.6114 6.4765.9603 9.75-.6512 3.2734-2.2584 6.2802-4.6184 8.6402-2.36 2.3601-5.3668 3.9672-8.6402 4.6184-3.2735.6511-6.6665.3169-9.75-.9603-3.0835-1.2772-5.719-3.4402-7.5732-6.2152-1.8543-2.7751-2.844-6.0377-2.844-9.3753.005-4.474 1.7845-8.7633 4.9481-11.9269 3.1636-3.1636 7.4529-4.9431 11.9269-4.9481zM23.9063 19.6875c0-2.7813.8247-5.5001 2.3699-7.8127 1.5452-2.31256 3.7415-4.11499 6.3111-5.17935 2.5696-1.06436 5.3971-1.34284 8.1249-.80023 2.7279.5426 5.2336 1.88192 7.2002 3.8486 1.9667 1.96668 3.306 4.47238 3.8486 7.20028.5427 2.7278.2642 5.5553-.8002 8.1249-1.0643 2.5696-2.8668 4.7658-5.1793 6.311-2.3126 1.5453-5.0314 2.37-7.8127 2.37-3.7284-.0042-7.3027-1.4872-9.9391-4.1235-2.6363-2.6363-4.1192-6.2107-4.1234-9.939zm-6.7536 26.5192c5.4215-6.2191 12.8141-9.6442 20.8161-9.6442 8.9138 0 16.998 4.2434 22.4678 11.7135-3.0651.6766-5.9239 2.0766-8.3377 4.0832-2.4138 2.0065-4.3126 4.5614-5.5378 7.4513-1.2253 2.8899-1.7414 6.031-1.5054 9.161.2361 3.13 1.2175 6.1581 2.8623 8.8316-3.2807.6177-6.6109.9346-9.9492.9469-13.0409 0-26.2957-6.2548-29.52392-7.8827.17069-9.6666 3.24752-18.3966 8.70782-24.6606z" fill="#BEBEBE"/>
    </symbol>

    <symbol id="menu_constats" viewBox="0 0 90 90">
        <path d="M71.0675 75.5027c-2.3976 0-4.3492 1.9509-4.3492 4.3493 0 2.3976 1.9516 4.3492 4.3492 4.3492 2.3983 0 4.3493-1.9516 4.3493-4.3492 0-2.3984-1.951-4.3493-4.3493-4.3493zm0 5.799c-.7985 0-1.4497-.6498-1.4497-1.4497 0-.8007.6512-1.4498 1.4497-1.4498.7992 0 1.4498.6491 1.4498 1.4498 0 .7999-.6506 1.4497-1.4498 1.4497zM30.4743 75.5027c-2.3977 0-4.3493 1.9509-4.3493 4.3493 0 2.3976 1.9516 4.3492 4.3493 4.3492 2.3983 0 4.3492-1.9516 4.3492-4.3492 0-2.3984-1.9509-4.3493-4.3492-4.3493zm0 5.799c-.7985 0-1.4498-.6498-1.4498-1.4497 0-.8007.6513-1.4498 1.4498-1.4498.7992 0 1.4497.6491 1.4497 1.4498 0 .7999-.6505 1.4497-1.4497 1.4497z"/><path d="M84.9587 65.5568l-11.9081-3.9677c-.7482-.2492-1.415-.6973-1.9283-1.2961l-5.9179-6.9055c-1.3768-1.6076-3.3837-2.5307-5.5031-2.5307H47.3019c.1536-1.0774.1331-2.1605-.0552-3.2188L64.207 30.6792c.5889.104 1.185.1621 1.7803.1621 2.598 0 5.1973-.9904 7.1766-2.9675 1.9163-1.917 2.9717-4.4654 2.9717-7.1766 0-.6045-.0609-1.2005-.1635-1.7831l2.3169-2.317c2.8252-2.8251 2.8252-7.425 0-10.25089l-4.2204-4.22185C71.8593-.0835398 68.4954-.63003 65.702.765926L54.4749 6.37948c-.7043.35253-1.4943.50189-2.2787.44668L43.131 6.1303c-2.1258-.16281-4.1843.60312-5.6822 2.10172L22.5803 23.0998c-1.3683 1.3684-2.1223 3.1876-2.1223 5.1244v12.0115c0 .9613-.3263 1.9077-.916 2.6687l-2.5462 3.274-3.4298-3.8318-2.5908 6.5062-7.04139-1.0477 2.26878 6.6393-6.087844 3.6612L6.204 61.7647l-2.26878 6.64 7.04138-1.0484.8643 2.1718-.1493-.0206c-.0425.3179-.0645.6407-.0645.9656v7.9291c0 3.9967 3.2521 7.2487 7.2488 7.2487h3.2825c1.837 2.6256 4.8774 4.3493 8.3156 4.3493 3.4389 0 6.4807-1.7237 8.3162-4.3493h23.9614c1.8369 2.6256 4.8773 4.3493 8.3155 4.3493 3.439 0 6.4808-1.7237 8.3163-4.3493h3.2818c3.9974 0 7.2488-3.252 7.2488-7.2487v-5.9689c0-3.124-1.9913-5.889-4.9553-6.8765zM63.0043 55.274l5.9172 6.9069c.8559.9974 1.9665 1.7421 3.2117 2.1569l11.9067 3.9677c1.7803.5947 2.9745 2.2533 2.9745 4.1278v4.5191h-6.2265c-1.2509-4.1872-5.1336-7.2488-9.7208-7.2488-4.5864 0-8.4692 3.0616-9.72 7.2488H40.1947c-1.2508-4.1872-5.1336-7.2488-9.7207-7.2488-2.2306 0-4.2898.732-5.9654 1.9566l.1649-6.6817 6.9911-1.3875-2.072-2.554 6.0065-6.0065c.8105-.8105 1.9311-1.2742 3.0765-1.2742h21.0257c1.2728 0 2.4762.5536 3.303 1.5177zM20.7539 76.9524h-6.2272V72.79l3.7319-4.1694 6.0036 3.2244c-1.65 1.2827-2.8952 3.0574-3.5083 5.1074zm6.4631-18.8468l2.0366-2.513c.2421.3136.499.6166.7801.9032l-2.2759 2.2766-.5408-.6668zm9.0418-9.7314c.2825-.281.6541-.4233 1.0251-.4233.3709 0 .7425.1423 1.025.4233.5656.5671.5656 1.4866 0 2.0515-.5465.55-1.5022.55-2.0501 0-.5656-.5663-.5656-1.4844 0-2.0515zm5.1074 2.4826c.5437-1.5326.216-3.3072-1.0073-4.5319-1.6961-1.6968-4.454-1.6968-6.1501 0-1.689 1.689-1.6933 4.4314-.0184 6.1296-.2166.172-.4424.3271-.64.526l-1.461 1.4611c-.3582-.3681-.6654-.7695-.9323-1.1943l.5089-.6278-.945-.1869c-.4353-.9408-.6845-1.963-.6845-3.0298 0-1.9375.7539-3.7582 2.1222-5.1265 2.8273-2.8259 7.4258-2.8259 10.2517 0 1.7265 1.7265 2.4514 4.2232 1.9729 6.5819h-3.0171v-.0014zm4.8378-6.2761c-.4595-.8552-1.0406-1.6529-1.7436-2.3559l14.3511-14.351c.7128.7114 1.5078 1.2912 2.353 1.7485L46.204 44.5807zm24.9084-18.7584c-2.8259 2.8252-7.4257 2.8252-10.2509 0-1.3691-1.369-2.123-3.1897-2.123-5.1265 0-1.9354.7539-3.756 2.123-5.1251 1.4129-1.4129 3.269-2.1194 5.1258-2.1194 1.8575 0 3.7129.7065 5.1266 2.1194 1.3683 1.3691 2.1222 3.1897 2.1222 5.1251 0 1.9368-.7539 3.7575-2.1237 5.1265zm5.1266-11.2766l-1.3238 1.3223c-.4622-.8523-1.0484-1.6423-1.7527-2.3466l3.9111-3.91324c.7673 1.61614.499 3.60244-.8346 4.93754zm-52.8829 25.69V28.2242c0-1.1454.4637-2.2645 1.2728-3.0744l14.8699-14.8677c.8991-.89834 2.1471-1.35988 3.4085-1.26078l9.0652.69585c1.3111.09982 2.6242-.15573 3.7986-.74399l11.2271-5.61355c1.677-.84097 3.6952-.5118 5.0203.81478l3.1954 3.19541-4.403 4.40448c-3.8446-2.07482-8.7552-1.4965-11.9994 1.7471-1.917 1.9162-2.9725 4.4646-2.9725 7.1744 0 1.7152.4248 3.3632 1.2197 4.8292L42.1074 40.4778c-3.8452-2.0749-8.7552-1.4965-12.0001 1.747-1.9163 1.9163-2.9717 4.4654-2.9717 7.1759 0 .8119.1054 1.6069.2902 2.3764l-2.7523-.5465-.1734-6.9918-3.9897 2.142 1.3188-1.6961c.9847-1.2671 1.5269-2.8471 1.5269-4.449zM8.21795 64.8383L9.7038 60.489l-3.96063-2.3834 3.96205-2.3835-1.48586-4.3492 4.60124.6852 1.7061-4.2898 3.0927 3.4552 4.0987-2.1994.114 4.5998 4.5524.9033-2.8995 3.5784 2.8995 3.5777-4.5524.9032-.114 4.5999-4.0987-2.1987-3.0927 3.4545-1.7075-4.2898-4.60125.6859zM18.8759 82.7514c-1.8872 0-3.4821-1.2168-4.0824-2.8995h5.5322c0 1.0073.1529 1.98.4282 2.8995h-1.878zm11.5981 4.3493c-3.9968 0-7.2488-3.252-7.2488-7.2488 0-3.9974 3.252-7.2488 7.2488-7.2488 3.9974 0 7.2487 3.2514 7.2487 7.2488 0 3.9968-3.2513 7.2488-7.2487 7.2488zm9.7207-4.3493c.2754-.9195.4276-1.8922.4276-2.8995h20.2965c0 1.0073.1529 1.98.4283 2.8995H40.1947zm30.8724 4.3493c-3.9967 0-7.2487-3.252-7.2487-7.2488 0-3.9974 3.252-7.2488 7.2487-7.2488 3.9975 0 7.2488 3.2514 7.2488 7.2488 0 3.9968-3.2513 7.2488-7.2488 7.2488zm11.5981-4.3493h-1.8773c.2753-.9195.4275-1.8922.4275-2.8995h5.5329c-.6003 1.6827-2.1952 2.8995-4.0831 2.8995z"/><path d="M35.6253 59.0591l-4.597 9.1948h35.1361l-4.5971-9.1948c-.7411-1.4816-2.2312-2.4032-3.8898-2.4032H39.5152c-1.6586 0-3.1487.9216-3.8899 2.4032zm3.8899.4963h18.1623c.5522 0 1.0498.3072 1.2961.8013l2.4996 4.9977H35.7195l2.4996-4.9977c.2463-.4941.7439-.8013 1.2961-.8013zM69.0629 17.6208c-1.6424-1.6423-4.5072-1.6423-6.1502 0-1.6961 1.6961-1.6961 4.4554 0 6.1515.8488.8481 1.9616 1.2714 3.0751 1.2714s2.227-.4233 3.0751-1.2714c1.6961-1.6961 1.6961-4.4554 0-6.1515zm-2.0501 4.1015c-.5649.5642-1.4844.5642-2.05 0-.5649-.5671-.5649-1.4845 0-2.0515.2725-.2739.6363-.4247 1.025-.4247.3886 0 .7511.1508 1.025.4247.5656.567.5656 1.4859 0 2.0515zM29.474 40.8083l24.8448-24.8476-9.7526-3.2499c-1.5743-.5252-3.2796-.1203-4.4491 1.0527L27.2739 26.6053c-1.1715 1.1744-1.575 2.8775-1.0498 4.4505l3.2499 9.7525zm-.1493-12.1516l12.8439-12.8425c.2768-.2768.6435-.4261 1.0201-.4261.1543 0 .3107.0262.4615.0757l5.3014 1.7683-18.2104 18.2076-1.7669-5.2999c-.1742-.5239-.039-1.093.3504-1.4831z"/>
        <path fill="#fff" d="M0 0h90v90H0z"/>
    </symbol>

    <symbol id="menu_contact" viewBox="0 0 90 90">
        <path d="M77.0628 15.335H12.7771c-5.54656.0019-10.04217 4.4982-10.04468 10.0447v37.506c.00251 5.5466 4.49812 10.0434 10.04468 10.0447h64.2857c5.5465-.0013 10.0421-4.4981 10.0446-10.0447v-37.506c-.0025-5.5465-4.4981-10.0428-10.0446-10.0447zm-64.2857 4.0179h64.2857c2.8935.0075 5.3764 2.061 5.9263 4.9012L44.9199 45.469 6.85073 24.2541c.54994-2.8402 3.03285-4.8937 5.92637-4.9012zm64.2857 49.5402H12.7771c-3.32418-.0101-6.0174-2.7027-6.02682-6.0268V28.7949L43.9355 49.5264c.3014.1657.6398.2561.9844.2618.3459.0037.6856-.0867.9844-.2618l37.1853-20.7315v34.0714c-.0025 3.3273-2.6995 6.0236-6.0268 6.0268z" fill="#BEBEBE"/>
    </symbol>

    <symbol id="menu_errors" viewBox="0 0 807 446">
        <path d="M44.9983 61.6786c-2.5162 0-4.6253 2.1091-4.6253 4.6253 0 2.5161 2.1091 4.6252 4.6253 4.6252 2.4236 0 4.6252-2.1091 4.5142-4.5142.111-2.6457-1.9796-4.7363-4.5142-4.7363z"/><path d="M87.81 78.0704c2.9046-5.0137 2.9231-10.9895.037-15.9847L58.8746 11.9112c-2.8677-5.05071-8.0479-8.04786-13.8572-8.04786S34.0279 6.87899 31.1602 11.8927l-29.00938 50.23c-2.886142 5.0507-2.867641 11.0635.0555 16.0772 2.88614 4.9583 8.04788 7.9369 13.82018 7.9369h57.8708c5.7908 0 10.9895-3.0156 13.9127-8.0664zm-6.2904-3.6261c-1.6095 2.7751-4.4587 4.4217-7.6408 4.4217H16.008c-3.1452 0-5.9758-1.6096-7.54838-4.3292-1.59108-2.7567-1.60958-6.0498-.0185-8.825L37.4505 15.5004c1.5726-2.7566 4.3847-4.3847 7.5669-4.3847 3.1636 0 5.9943 1.6466 7.5669 4.4032l28.9908 50.2114c1.5541 2.7012 1.5356 5.9573-.0555 8.714z"/><path d="M43.8519 29.2096c-2.2016.629-3.5707 2.6271-3.5707 5.0507.1111 1.4616.2036 2.9416.3146 4.4032.3145 5.5688.629 11.0265.9435 16.5953.111 1.8871 1.5726 3.2562 3.4597 3.2562 1.8871 0 3.3671-1.4616 3.4596-3.3672 0-1.147 0-2.2016.111-3.3672.2036-3.5706.4256-7.1413.6291-10.712.111-2.3126.3145-4.6252.4255-6.9378 0-.8325-.111-1.5726-.4255-2.3126-.9436-2.0721-3.1452-3.1267-5.3468-2.6086z"/>
        <path fill="#fff" d="M0 0h90v90H0z"/>
    </symbol>

    <symbol id="menu_logs" viewBox="0 0 90 90">
        <path d="M61.4631 3.22436c-.1305-.13059-.2856-.23417-.4562-.30483-.1706-.07067-.3535-.10704-.5381-.10703h-39.375c-2.6099.00293-5.112 1.04098-6.9574 2.8864-1.8454 1.84543-2.8835 4.3475-2.8864 6.9573v64.6876c.0029 2.6098 1.041 5.1119 2.8864 6.9573 1.8454 1.8454 4.3475 2.8835 6.9574 2.8864h47.8124c2.6099-.0029 5.112-1.041 6.9574-2.8864 1.8454-1.8454 2.8835-4.3475 2.8864-6.9573v-56.25c0-.1847-.0364-.3676-.107-.5382-.0707-.1706-.1743-.3257-.3048-.4562L61.4631 3.22436zm.4119 4.38925L73.9489 19.6875h-5.0427c-1.8641-.0021-3.6513-.7436-4.9695-2.0617-1.3181-1.3182-2.0596-3.1054-2.0617-4.9696V7.61361zM21.0938 5.625h37.9687v7.0312c.0029 2.6099 1.041 5.112 2.8864 6.9574 1.8454 1.8454 4.3475 2.8835 6.9573 2.8864h7.0313v39.375h-61.875V12.6562c.0021-1.8641.7436-3.65132 2.0617-4.96948 1.3182-1.31816 3.1054-2.05963 4.9696-2.06172zm47.8124 78.75H21.0938c-1.8642-.0021-3.6514-.7436-4.9696-2.0617-1.3181-1.3182-2.0596-3.1054-2.0617-4.9695V64.6875h61.875v12.6563c-.0021 1.8641-.7436 3.6513-2.0617 4.9695-1.3182 1.3181-3.1054 2.0596-4.9696 2.0617z" fill="#BEBEBE"/><path d="M33.75 78.75h-4.2188v-9.8438c0-.3729-.1481-.7306-.4118-.9943-.2638-.2637-.6214-.4119-.9944-.4119s-.7306.1482-.9944.4119c-.2637.2637-.4118.6214-.4118.9943v11.25c0 .373.1481.7307.4118.9944.2638.2637.6214.4119.9944.4119h5.625c.373 0 .7306-.1482.9944-.4119.2637-.2637.4118-.6214.4118-.9944 0-.3729-.1481-.7306-.4118-.9943-.2638-.2637-.6214-.4119-.9944-.4119zM43.5938 67.5c-3.1017 0-5.625 3.1542-5.625 7.0312 0 3.8771 2.5233 7.0313 5.625 7.0313 3.1016 0 5.625-3.1542 5.625-7.0313 0-3.877-2.5234-7.0312-5.625-7.0312zm0 11.25c-1.5246 0-2.8126-1.9318-2.8126-4.2188 0-2.2869 1.288-4.2187 2.8126-4.2187 1.5245 0 2.8124 1.9318 2.8124 4.2187 0 2.287-1.2879 4.2188-2.8124 4.2188zM61.875 73.125h-2.8125c-.373 0-.7306.1482-.9944.4119-.2637.2637-.4119.6214-.4119.9943 0 .373.1482.7307.4119.9944.2638.2637.6214.4119.9944.4119h1.2391c-.3959 1.6202-1.4478 2.8125-2.6454 2.8125-1.5245 0-2.8124-1.9318-2.8124-4.2188 0-2.2869 1.2879-4.2187 2.8124-4.2187.2794.0012.5549.0647.8065.186.1671.0787.348.1238.5325.1327.1844.0088.3689-.0188.5427-.0812.1738-.0624.3336-.1585.4703-.2827s.2476-.2741.3263-.4411c.0788-.167.1239-.348.1327-.5324.0089-.1845-.0187-.3689-.0811-.5427-.0625-.1739-.1585-.3337-.2827-.4704s-.2741-.2475-.4411-.3263c-.6267-.2986-1.3119-.4538-2.0061-.4544-3.1016 0-5.625 3.1542-5.625 7.0312 0 3.8771 2.5234 7.0313 5.625 7.0313 3.1017 0 5.625-3.1542 5.625-7.0313 0-.3729-.1481-.7306-.4118-.9943-.2638-.2637-.6214-.4119-.9944-.4119zM43.4619 41.3397l8.109 9.5274c.2086.3158.4485.6099.716.8778.5223.5224 1.1424.9367 1.8249 1.2194.6825.2827 1.4139.4282 2.1526.4282.7388 0 1.4702-.1455 2.1527-.4282.6825-.2827 1.3026-.697 1.8249-1.2194.5224-.5223.9367-1.1424 1.2194-1.8249.2827-.6825.4282-1.414.4282-2.1527 0-.7387-.1455-1.4701-.4282-2.1526-.2827-.6825-.697-1.3026-1.2194-1.825-.2679-.2673-.562-.5072-.8778-.7159l-9.5274-8.109c.802-2.0365.9904-4.2632.5422-6.4056-.4482-2.1424-1.5135-4.1068-3.0646-5.651-1.7189-1.704-3.9388-2.812-6.3338-3.1614-2.3949-.3493-4.8389.0783-6.9729 1.2202-.1926.1042-.3582.252-.4837.4315-.1254.1795-.2072.3859-.2388.6026-.0315.2167-.0121.4378.0569.6457.069.2079.1856.3967.3404.5516l3.6892 3.6865c.2588.2647.4028.6208.4007.991-.002.3702-.15.7247-.4118.9865-.2618.2618-.6163.4098-.9865.4119-.3702.002-.7264-.142-.9911-.4008l-3.6875-3.6877c-.1548-.1549-.3437-.2715-.5516-.3405-.2079-.0689-.429-.0884-.6457-.0568-.2167.0316-.423.1133-.6026.2388-.1795.1254-.3273.291-.4315.4837-1.0962 2.0278-1.5432 4.3433-1.2804 6.6334.2628 2.2902 1.2226 4.4443 2.7497 6.1711s3.5476 2.9429 5.7884 3.4838c2.2408.5408 4.5937.3804 6.7403-.4596h-.0002zM31.2126 28.6806l2.1815 2.1817c.7919.7876 1.8638 1.229 2.9807 1.2275 1.1169-.0015 2.1876-.4459 2.9774-1.2356.7897-.7898 1.2341-1.8605 1.2356-2.9774.0015-1.1169-.4399-2.1888-1.2275-2.9807l-2.182-2.1815c1.4305-.3767 2.9345-.3736 4.3635.0089 1.4289.3826 2.7333 1.1314 3.7843 2.1724 1.2657 1.26 2.0976 2.8901 2.3752 4.6543.2776 1.7642-.0134 3.571-.831 5.1589-.1445.2819-.1895.6044-.1279.9151.0617.3108.2265.5916.4677.797l10.4001 8.8527c.05.0424.1029.0813.1582.1163.3566.2255.6579.5282.8816.8859s.3641.7611.4107 1.1804c.0467.4192-.0016.8436-.1412 1.2417s-.367.7597-.6653 1.058-.6599.5257-1.058.6653c-.3981.1396-.8225.1879-1.2417.1412-.4193-.0466-.8227-.187-1.1804-.4107-.3577-.2237-.6604-.525-.8859-.8816-.0351-.0553-.074-.1082-.1165-.1582l-8.8525-10.4001c-.2054-.2412-.4862-.406-.797-.4677-.3107-.0616-.6332-.0166-.9151.1279-1.5878.8176-3.3946 1.1086-5.1588.831-1.7642-.2776-3.3943-1.1095-4.6542-2.3752-1.0412-1.0508-1.7901-2.3551-2.1727-3.784-.3825-1.429-.3856-2.933-.0088-4.3635z" fill="#BEBEBE"/>
    </symbol>

    <symbol id="menu_see_constats" viewBox="0 0 90 90">
        <path d="M88.2555 18.0872h-5.9314v-2.0236c.0318-.801-.4863-1.5208-1.2561-1.7445-4.1057-1.076-8.3336-1.6155-12.578-1.605-6.9781 0-16.4857 1.5701-23.5162 8.7226-6.9781-7.2223-16.5555-8.7226-23.5162-8.7226-4.2444-.0105-8.4722.529-12.57797 1.605-.76977.2237-1.2879.9435-1.25606 1.7445v2.0062H1.74452C.781111 18.0698 0 18.8509 0 19.8143v55.7201c0 .9634.781111 1.7445 1.74452 1.7445.29963-.0008.59401-.0789.85482-.2268.17445-.0872 17.61966-9.6297 41.97326-3.489H44.9913c.1391.0168.2795.0168.4187 0 24.4233-6.1931 41.8685 3.332 41.9732 3.489.5397.3117 1.2048.3117 1.7445 0 .5365-.3096.8686-.8807.8723-1.5002V19.8318c0-.9635-.7809-1.7446-1.7445-1.7446zM3.48905 72.7606V21.5763h4.16941v43.7526c-.0109.9635.76127 1.7533 1.72468 1.7642.09421.0011.18841-.0055.28152-.0196 3.60894-.5511 7.25264-.8426 10.90324-.8723 5.057-.0877 10.0928.673 14.8983 2.2504-10.8521-1.3123-21.8596.171-31.97715 4.309zm17.07885-10.031c-3.173.0072-6.3424.2111-9.4902.6106V17.4418c3.3966-.7567 6.8652-1.1429 10.3451-1.1514 6.5245 0 15.5262 1.5003 21.7716 8.5481l.0524 43.4561c-3.6287-2.3725-10.7114-5.565-22.6789-5.565zm26.1679-37.8911c6.2454-6.9781 15.2471-8.5481 21.7717-8.5481 3.4796.0102 6.9482.3962 10.345 1.1514v45.8984c-3.1301-.4032-6.282-.613-9.4379-.628-11.8976 0-18.9979 3.1924-22.6788 5.565V24.8385zm39.7577 47.9221c-10.1392-4.1493-21.172-5.6328-32.0469-4.309 4.8282-1.5831 9.888-2.3439 14.968-2.2504 3.6736.0205 7.3408.3062 10.9731.8548.9525.1446 1.842-.5105 1.9865-1.463.0142-.0931.0208-.1873.0197-.2815V21.5763h4.1694l-.0698 51.1843z" fill="#BEBEBE"/>
    </symbol>

    <symbol id="menu_see_contracts" viewBox="0 0 90 90">
        <path d="M43.3286 72.1565c-24.6099 0-42.32486-25.4358-43.067221-26.5187-.370432-.5377-.3450392-1.2562.058254-1.7685C1.15759 42.8058 21.0907 17.8435 45 17.8435c26.816 0 44.0246 25.0474 44.7446 26.1124.3435.5109.342 1.18-.0105 1.6864-.7095 1.0276-17.6881 25.1206-44.6594 26.4694-.5841.0284-1.1666.0448-1.7461.0448zM3.38615 44.8521C6.86044 49.4795 23.63 70.1954 44.9283 69.1304c22.7591-1.1352 38.4801-20.0945 41.7303-24.347-3.2487-4.3496-19.1355-23.9511-41.6571-23.9511-20.0571 0-37.87518 19.6225-41.61535 24.0198z"/><path d="M44.9998 55.4363c-5.7537 0-10.4349-4.6827-10.4349-10.4348 0-5.7522 4.6812-10.4333 10.4349-10.4333 5.7536 0 10.4348 4.6826 10.4348 10.4333 0 5.7521-4.6812 10.4348-10.4348 10.4348z"/><path d="M44.9997 63.6515c-10.284 0-18.6501-8.3675-18.6501-18.65 0-10.281 8.3676-18.6486 18.6501-18.6486 10.2824 0 18.65 8.3676 18.65 18.6486 0 10.2825-8.3646 18.65-18.65 18.65zm0-34.3142c-8.6365 0-15.6627 7.0263-15.6627 15.6627 0 8.6349 7.0262 15.6612 15.6627 15.6612 8.6364 0 15.6626-7.0263 15.6626-15.6612 0-8.6364-7.0247-15.6627-15.6626-15.6627z"/>
        <path fill="#fff" d="M0 0h90v90H0z"/>
    </symbol>

    <symbol id="menu_see_insured" viewBox="0 0 90 90">
        <path d="M45 0c-5.799 0-10.5 4.701-10.5 10.5.0066 5.7962 4.7038 10.4934 10.5 10.5 5.799 0 10.5-4.701 10.5-10.5S50.799 0 45 0zm0 18c-4.1421 0-7.5-3.3579-7.5-7.5.0049-4.14 3.36-7.49513 7.5-7.5 4.1421 0 7.5 3.35794 7.5 7.5 0 4.1421-3.3579 7.5-7.5 7.5zM49.5 22.5h-9c-7.4524.0082-13.4918 6.0476-13.5 13.5v25.5h6V90h3V55.5h-3v3h-3V36c.0066-5.7962 4.7038-10.4934 10.5-10.5h9c5.7962.0066 10.4934 4.7038 10.5 10.5v22.5h-3v-3h-3V90h3V61.5h6V36c-.0083-7.4524-6.0476-13.4918-13.5-13.5z" fill="#BEBEBE"/><path d="M46.5 61.5h-3V90h3V61.5zM75 15c-4.9706 0-9 4.0294-9 9 .0049 4.9686 4.0314 8.9951 9 9 4.9706 0 9-4.0294 9-9s-4.0294-9-9-9zm0 15c-3.3137 0-6-2.6863-6-6s2.6863-6 6-6 6 2.6863 6 6-2.6863 6-6 6zM79.5 34.5H66v3h13.5c4.14.0049 7.4951 3.36 7.5 7.5v19.5h-3v-3h-3V90h3V67.5h6V45c-.0066-5.7962-4.7038-10.4934-10.5-10.5zM66 61.5v3h-6v3h6V90h3V61.5h-3z" fill="#BEBEBE"/><path d="M76.5 67.5h-3V90h3V67.5zM15 15c-4.9706 0-9 4.0294-9 9 .00488 4.9686 4.0314 8.9951 9 9 4.9706 0 9-4.0294 9-9s-4.0294-9-9-9zm0 15c-3.3137 0-6-2.6863-6-6s2.6863-6 6-6 6 2.6863 6 6-2.6863 6-6 6zM10.5 34.5C4.70381 34.5066.0065625 39.2038 0 45v22.5h6V90h3V61.5H6v3H3V45c.00488-4.14 3.36-7.4951 7.5-7.5H24v-3H10.5zM24 64.5v-3h-3V90h3V67.5h6v-3h-6z" fill="#BEBEBE"/><path d="M16.5 67.5h-3V90h3V67.5z" fill="#BEBEBE"/>
    </symbol>

    <symbol id="menu_sell_car" viewBox="0 0 90 90">
        <path d="M68.9062 12.6562h-3.7124c-2.1516-1.7578-12.7547-9.8437-25.8188-9.8437s-23.6531 8.0859-25.8187 9.8437H7.03125c-1.11785.0034-2.18897.4489-2.97941 1.2394-.79045.7904-1.236 1.8615-1.23934 2.9794v8.4375c-.00068.2761.08271.5459.23907.7734l5.625 8.4375c.12739.1935.30058.3525.50421.4629.20362.1104.43135.1688.66297.1699h5.75155c.3305 1.9653 1.3468 3.7498 2.8683 5.0368 1.5215 1.287 3.4498 1.9932 5.4427 1.9932 1.9928 0 3.9211-.7062 5.4426-1.9932 1.5216-1.287 2.5378-3.0715 2.8683-5.0368h26.9719c.3305 1.9653 1.3467 3.7498 2.8682 5.0368 1.5215 1.287 3.4499 1.9932 5.4427 1.9932 1.9928 0 3.9212-.7062 5.4427-1.9932 1.5215-1.287 2.5377-3.0715 2.8682-5.0368h9.9703c.373 0 .7307-.1481.9944-.4118.2637-.2638.4119-.6214.4119-.9944v-2.8125c-.0045-4.8471-1.932-9.4944-5.3594-12.9219-3.4274-3.4274-8.0747-5.3549-12.9219-5.3594zm0 2.8126c3.9386.0045 7.7265 1.5136 10.5891 4.2187h-7.2l-4.2187-4.2187h.8296zM5.625 16.875c0-.373.14816-.7306.41189-.9944.26372-.2637.6214-.4118.99436-.4118H10.575l-1.6875 4.2187H5.625V16.875zm18.2813 22.5c-1.1126 0-2.2001-.3299-3.1251-.948-.9251-.6181-1.646-1.4966-2.0718-2.5244-.4257-1.0278-.5371-2.1588-.3201-3.25.2171-1.0911.7528-2.0934 1.5395-2.8801.7866-.7866 1.7889-1.3224 2.8801-1.5394 1.0911-.2171 2.2221-.1057 3.2499.3201 1.0279.4257 1.9064 1.1467 2.5245 2.0717.6181.925.948 2.0126.948 3.1251 0 1.4918-.5927 2.9226-1.6476 3.9775s-2.4856 1.6475-3.9774 1.6475zm14.0625-7.0312h-5.7516c-.3305-1.9653-1.3467-3.7498-2.8683-5.0368-1.5215-1.287-3.4498-1.9932-5.4426-1.9932-1.9929 0-3.9212.7062-5.4427 1.9932-1.5215 1.287-2.5378 3.0715-2.8683 5.0368h-4.9922L5.625 24.8906V22.5h4.21875c.28165.0003.55685-.084.79005-.242.2332-.1579.4136-.3823.5178-.6439l2.4609-6.1453h24.3563v16.875zM18.3656 12.6562C22.6266 9.84375 30.4875 5.625 39.375 5.625s16.7484 4.21875 21.0094 7.0312H18.3656zm28.0406 2.8126v1.4062c0 .373-.1481.7306-.4118.9944-.2638.2637-.6214.4118-.9944.4118h-4.2187v-2.8124h5.6249zM67.5 39.375c-1.1125 0-2.2001-.3299-3.1251-.948-.925-.6181-1.646-1.4966-2.0717-2.5244-.4258-1.0278-.5372-2.1588-.3201-3.25.217-1.0911.7528-2.0934 1.5394-2.8801.7867-.7866 1.789-1.3224 2.8801-1.5394 1.0912-.2171 2.2222-.1057 3.25.3201 1.0278.4257 1.9063 1.1467 2.5244 2.0717.6181.925.948 2.0126.948 3.1251 0 1.4918-.5926 2.9226-1.6475 3.9775S68.9918 39.375 67.5 39.375zm16.875-7.0312h-8.5641c-.3305-1.9653-1.3467-3.7498-2.8682-5.0368-1.5215-1.287-3.4499-1.9932-5.4427-1.9932-1.9928 0-3.9212.7062-5.4427 1.9932-1.5215 1.287-2.5377 3.0715-2.8682 5.0368H40.7813v-11.25H45c1.1179-.0034 2.189-.4489 2.9794-1.2394.7905-.7904 1.236-1.8615 1.2394-2.9794v-1.4062h14.8921l6.6094 6.6234c.2682.259.6256.405.9985.4078h10.139c1.6434 2.5071 2.5183 5.4398 2.5172 8.4375v1.4063zM81.5625 67.8797c.0004-.7538-.1749-1.4973-.5121-2.1714-.3372-.6742-.8269-1.2605-1.4302-1.7123s-1.3037-.7568-2.0455-.8906c-.7418-.1338-1.5046-.0929-2.2278.1196l-2.25.6609c.0163-.0739.0257-.1493.0281-.225.0004-.7537-.1749-1.4972-.5121-2.1714-.3372-.6742-.8269-1.2604-1.4302-1.7123-.6033-.4518-1.3037-.7567-2.0455-.8906-.7418-.1338-1.5046-.0928-2.2278.1196l-6.4406 1.8985v-.0563c.0004-.7537-.175-1.4972-.5121-2.1714-.3372-.6742-.8269-1.2604-1.4302-1.7123-.6034-.4518-1.3038-.7567-2.0456-.8906-.7418-.1338-1.5046-.0928-2.2278.1196l-13.4718 3.9657-12.375-2.475c-.093-.0163-.187-.0258-.2813-.0281h-8.4375c-.1783-.0028-.3553.0307-.5203.0984l-5.1047 2.0391v-2.1375c-.0021-.2942-.0952-.5804-.2664-.8196-.1712-.2391-.4121-.4195-.6898-.5164l-8.43754-2.8125c-.21148-.0697-.43649-.0882-.65653-.054-.22003.0342-.42879.1202-.60909.2509-.18319.128-.33261.2985-.43548.4968-.10286.1984-.1561.4188-.15515.6423v30.9374c-.00095.2235.05229.4439.15515.6423.10287.1983.25229.3688.43548.4968.23454.1774.52158.2714.81562.2672.15251-.0027.30393-.0264.45-.0703l8.43754-2.8125c.2777-.0969.5186-.2773.6898-.5164.1712-.2392.2643-.5254.2664-.8195v-1.4063h3.9938l16.65 5.5547c.146.0439.2975.0676.45.0703H56.25c.1586.0006.3159-.028.4641-.0844l21.614-7.6218c.9454-.3341 1.7641-.9529 2.3433-1.7714.5792-.8184.8905-1.7963.8911-2.799-.0033-.6586-.1424-1.3095-.4085-1.9119-.2662-.6025-.6537-1.1436-1.1384-1.5896.4849-.4518.8723-.998 1.1383-1.605.266-.607.4051-1.262.4086-1.9247zM11.25 81.9562l-5.62499 1.8704V56.7984L11.25 58.6688v23.2874zm56.461-20.2499c.1818-.0576.3717-.0861.5624-.0844.3714-.0084.7376.0871 1.0576.2757.32.1886.5809.4628.7534.7917.1725.3289.2497.6995.2229 1.0699-.0268.3705-.1565.726-.3745 1.0267l-16.4953 3.7688v-2.4609c0-.0563-.0281-.1126-.0281-.1829l14.3016-4.2046zm-12.6563-2.8125c.1819-.0576.3717-.0861.5625-.0844.5407.0003 1.0591.2153 1.4414.5976.3823.3823.5973.9008.5977 1.4414-.0088.3423-.1056.6765-.2813.9703l-5.8922 1.7297-1.2656-1.2656c-.1972-.1933-.4464-.3252-.7172-.3797l-2.7844-.5625 8.3391-2.4468zM77.4 76.8234L56.011 84.375H35.3813l-16.65-5.5547c-.1461-.0439-.2975-.0676-.45-.0703h-4.2188V62.8313l5.8922-2.3625h8.0297l20.5453 4.1062 2.0953 2.0953v2.2359H32.3438c-.3102.001-.6113.1045-.8566.2943-.2453.1899-.4209.4555-.4995.7555-.0786.3001-.0558.6177.0648.9034.1206.2858.3324.5236.6022.6765l12.6563 7.0313c.2088.1224.447.1856.689.1828h11.25c.1335.003.2665-.016.3938-.0562l19.5047-5.7375c.5071-.1459 1.0511-.0889 1.517.1589.4659.2478.8172.6671.9797 1.1691.1625.5021.1234 1.0477-.1089 1.5215-.2324.4738-.6398.8387-1.1363 1.0176zm.0563-7.0453l-.9422.2953c-.3952.0116-.7874.073-1.1672.1828l-19.2938 5.6813H45.3656l-6.9609-3.8672.9844-.3515h12.6422c.1044-.0107.2078-.0295.3093-.0563v.0281l18.8297-4.3031 4.9782-1.4625c.1818-.0575.3717-.086.5624-.0844.5407.0004 1.0592.2153 1.4415.5977.3823.3823.5972.9007.5976 1.4414.0059.4111-.1152.814-.3468 1.1537-.2315.3398-.5622.5998-.9469.7447zM85.7812 42.1875H4.21875c-.37296 0-.73065.1482-.99437.4119-.26372.2637-.41188.6214-.41188.9944 0 1.8648.74079 3.6532 2.05941 4.9718 1.31861 1.3186 3.10704 2.0594 4.97184 2.0594H80.1562c1.8649 0 3.6533-.7408 4.9719-2.0594 1.3186-1.3186 2.0594-3.107 2.0594-4.9718 0-.373-.1482-.7307-.4119-.9944-.2637-.2637-.6214-.4119-.9944-.4119zm-5.625 5.625H9.84375c-.87211-.0024-1.72225-.2738-2.43447-.7771-.71221-.5033-1.25181-1.2141-1.54522-2.0354H84.1359c-.2934.8213-.833 1.5321-1.5452 2.0354-.7122.5033-1.5623.7747-2.4345.7771z" fill="#BEBEBE"/>
    </symbol>

    <symbol id="menu_treatment" viewBox="0 0 90 90">
        <path d="M54.0907 81.9739c-.7422.1849-1.4988.3492-2.2498.4875-1.9633.3651-3.2613 2.2533-2.8982 4.2183.1794.9668.7284 1.772 1.4739 2.2976.7682.5408 1.746.7849 2.7423.5996.8944-.166 1.7958-.3612 2.6803-.582 1.9387-.4825 3.1198-2.4465 2.6362-4.3843-.4825-1.9395-2.4449-3.1196-4.3847-2.6367zM80.8469 33.4785c.2534.7638.7373 1.3874 1.3484 1.8182.9062.6382 2.092.853 3.2236.4788 1.8971-.6299 2.925-2.6756 2.2974-4.5718-.286-.8644-.6033-1.7315-.9412-2.5758-.7422-1.8553-2.8467-2.7586-4.703-2.0164-1.8544.7417-2.758 2.8468-2.0153 4.7027.284.7096.55 1.438.7901 2.1643zM65.8475 76.8082c-.6383.4213-1.297.8291-1.9606 1.2112-1.7313.9987-2.3243 3.2118-1.326 4.9423.271.4707.632.8555 1.0478 1.1496 1.1161.7853 2.6319.9029 3.8939.1759.7889-.4551 1.5734-.9391 2.3336-1.4418 1.6665-1.101 2.1252-3.3457 1.0236-5.013-1.1014-1.6679-3.3452-2.126-5.0123-1.0242zM89.9656 43.5836c-.0787-1.9969-1.7607-3.5512-3.7582-3.4733-1.995.0788-3.5505 1.7613-3.4721 3.7575.0299.7632.0377 1.5379.0201 2.3003-.0281 1.2523.5844 2.3686 1.5363 3.0395.567.3994 1.2552.641 2.0014.658 1.9969.0443 3.6518-1.5396 3.6962-3.5375.0199-.911.0123-1.834-.0237-2.7445zM80.2556 67.2903c-1.6013-1.2015-3.8668-.8753-5.066.7231-.4593.6122-.943 1.2167-1.4383 1.7989-1.2943 1.5206-1.1114 3.8047.4092 5.0999.0867.0735.1743.141.2652.2045 1.5118 1.0658 3.6128.8209 4.8351-.6135.5915-.6945 1.168-1.4167 1.7168-2.1478 1.1995-1.5984.8749-3.8655-.722-5.0651zM85.5748 54.2114c-1.9066-.5978-3.937.4636-4.5344 2.3702-.2287.7284-.4821 1.4602-.7557 2.177-.6007 1.5779-.0251 3.3141 1.2943 4.2445.242.17.5086.3141.7982.4237 1.8668.7123 3.9572-.2243 4.6687-2.0918.3249-.8522.6263-1.723.8989-2.5889.5968-1.907-.4638-3.9369-2.37-4.5347zM38.3058 82.4939c-3.2347-.5808-6.3377-1.5698-9.2801-2.9492-.0348-.0182-.066-.0389-.1025-.0555-.6934-.3264-1.3856-.676-2.0566-1.0412-.0023-.0027-.0066-.0045-.0102-.006-1.231-.6779-2.4325-1.428-3.5996-2.2496C6.23724 64.2033 2.14507 40.6029 14.1349 23.5836c2.6071-3.6995 5.7621-6.7858 9.2795-9.232.0434-.0302.0867-.0602.1297-.0905 12.3947-8.54036 29.2248-9.11592 42.3861-.34l-2.8268 4.0843c-.7858 1.1368-.3024 1.9652 1.0734 1.8414l12.2786-1.0993c1.3775-.1238 2.2013-1.3153 1.8308-2.6456L74.989 4.22196c-.3692-1.33181-1.3142-1.49123-2.1009-.35462l-2.8333 4.09392C60.3963 1.47766 48.8118-.994631 37.3136.999221c-1.1581.200429-2.3.445739-3.4261.731299-.0087.00155-.0157.00251-.0227.00406-.0435.01064-.0876.02477-.13.03657C23.8197 4.31734 15.169 10.1002 8.99606 18.3511c-.05204.0617-.10563.1221-.15477.1892-.20527.2765-.40899.5593-.60845.8422-.32618.4635-.64772.9387-.95533 1.4138-.0385.0573-.06791.1155-.10157.1734C2.082 28.8632-.375009 37.989.0463583 47.2796c.0009673.0305-.0007739.0613 0 .0926.0408211.9076.1127897 1.8277.2104897 2.7335.005224.0584.018186.1138.028053.1722.100989.9108.227708 1.8238.386543 2.7366C2.28572 62.3275 6.67893 70.7078 13.262 77.2286c.0152.0153.0311.0319.0466.0478.0054.0059.0114.009.0166.0147 1.7687 1.7444 3.6925 3.3579 5.7639 4.8168 5.4209 3.8198 11.4572 6.3447 17.9399 7.508 1.9669.3535 3.8459-.9559 4.1987-2.9219.3527-1.9673-.9555-3.8478-2.9219-4.2001z"/><path d="M42.78 16.0959c-1.6179 0-2.9284 1.3117-2.9284 2.9273v29.1643l26.673 13.7885c.4293.2223.889.3269 1.3413.3269 1.0594 0 2.0827-.5769 2.6029-1.5835.7419-1.4366.1805-3.2016-1.2562-3.9436L45.7052 44.6227V19.0232c-.0002-1.6156-1.3091-2.9273-2.9252-2.9273z"/><path fill="#fff" d="M0 0h90v90H0z"/>
    </symbol>

</svg>