<svg width="90" height="90" viewBox="0 0 90 90" fill="none" xmlns="http://www.w3.org/2000/svg">
<g clip-path="url(#clip0)">
<path d="M44.9983 61.6786C42.4821 61.6786 40.373 63.7877 40.373 66.3039C40.373 68.82 42.4821 70.9291 44.9983 70.9291C47.4219 70.9291 49.6235 68.82 49.5125 66.4149C49.6235 63.7692 47.5329 61.6786 44.9983 61.6786Z" fill="#BEBEBE"/>
<path d="M87.81 78.0704C90.7146 73.0567 90.7331 67.0809 87.847 62.0857L58.8746 11.9112C56.0069 6.86049 50.8267 3.86334 45.0174 3.86334C39.2081 3.86334 34.0279 6.87899 31.1602 11.8927L2.15082 62.1227C-0.735322 67.1734 -0.716821 73.1862 2.20632 78.1999C5.09246 83.1582 10.2542 86.1368 16.0265 86.1368H73.8973C79.6881 86.1368 84.8868 83.1212 87.81 78.0704ZM81.5196 74.4443C79.9101 77.2194 77.0609 78.866 73.8788 78.866H16.008C12.8628 78.866 10.0322 77.2564 8.45962 74.5368C6.86854 71.7801 6.85004 68.487 8.44112 65.7118L37.4505 15.5004C39.0231 12.7438 41.8352 11.1157 45.0174 11.1157C48.181 11.1157 51.0117 12.7623 52.5843 15.5189L81.5751 65.7303C83.1292 68.4315 83.1107 71.6876 81.5196 74.4443Z" fill="#BEBEBE"/>
<path d="M43.8519 29.2096C41.6503 29.8386 40.2812 31.8367 40.2812 34.2603C40.3923 35.7219 40.4848 37.2019 40.5958 38.6635C40.9103 44.2323 41.2248 49.69 41.5393 55.2588C41.6503 57.1459 43.1119 58.515 44.999 58.515C46.8861 58.515 48.3661 57.0534 48.4586 55.1478C48.4586 54.0008 48.4586 52.9462 48.5696 51.7806C48.7732 48.21 48.9952 44.6393 49.1987 41.0686C49.3097 38.756 49.5132 36.4434 49.6242 34.1308C49.6242 33.2983 49.5132 32.5582 49.1987 31.8182C48.2551 29.7461 46.0535 28.6915 43.8519 29.2096Z" fill="#BEBEBE"/>
</g>
<defs>
<clipPath id="clip0">
<rect width="90" height="90" fill="white"/>
</clipPath>
</defs>
</svg>
