<svg width="90" height="90" viewBox="0 0 90 90" fill="none" xmlns="http://www.w3.org/2000/svg">
<path d="M68.9062 12.6562H65.1938C63.0422 10.8984 52.4391 2.8125 39.375 2.8125C26.3109 2.8125 15.7219 10.8984 13.5563 12.6562H7.03125C5.9134 12.6596 4.84228 13.1051 4.05184 13.8956C3.26139 14.686 2.81584 15.7571 2.8125 16.875V25.3125C2.81182 25.5886 2.89521 25.8584 3.05157 26.0859L8.67657 34.5234C8.80396 34.7169 8.97715 34.8759 9.18078 34.9863C9.3844 35.0967 9.61213 35.1551 9.84375 35.1562H15.5953C15.9258 37.1215 16.9421 38.906 18.4636 40.193C19.9851 41.48 21.9134 42.1862 23.9063 42.1862C25.8991 42.1862 27.8274 41.48 29.3489 40.193C30.8705 38.906 31.8867 37.1215 32.2172 35.1562H59.1891C59.5196 37.1215 60.5358 38.906 62.0573 40.193C63.5788 41.48 65.5072 42.1862 67.5 42.1862C69.4928 42.1862 71.4212 41.48 72.9427 40.193C74.4642 38.906 75.4804 37.1215 75.8109 35.1562H85.7812C86.1542 35.1562 86.5119 35.0081 86.7756 34.7444C87.0393 34.4806 87.1875 34.123 87.1875 33.75V30.9375C87.183 26.0904 85.2555 21.4431 81.8281 18.0156C78.4007 14.5882 73.7534 12.6607 68.9062 12.6562ZM68.9062 15.4688C72.8448 15.4733 76.6327 16.9824 79.4953 19.6875H72.2953L68.0766 15.4688H68.9062ZM5.625 16.875C5.625 16.502 5.77316 16.1444 6.03689 15.8806C6.30061 15.6169 6.65829 15.4688 7.03125 15.4688H10.575L8.8875 19.6875H5.625V16.875ZM23.9063 39.375C22.7937 39.375 21.7062 39.0451 20.7812 38.427C19.8561 37.8089 19.1352 36.9304 18.7094 35.9026C18.2837 34.8748 18.1723 33.7438 18.3893 32.6526C18.6064 31.5615 19.1421 30.5592 19.9288 29.7725C20.7154 28.9859 21.7177 28.4501 22.8089 28.2331C23.9 28.016 25.031 28.1274 26.0588 28.5532C27.0867 28.9789 27.9652 29.6999 28.5833 30.6249C29.2014 31.5499 29.5313 32.6375 29.5313 33.75C29.5313 35.2418 28.9386 36.6726 27.8837 37.7275C26.8288 38.7824 25.3981 39.375 23.9063 39.375ZM37.9688 32.3438H32.2172C31.8867 30.3785 30.8705 28.594 29.3489 27.307C27.8274 26.02 25.8991 25.3138 23.9063 25.3138C21.9134 25.3138 19.9851 26.02 18.4636 27.307C16.9421 28.594 15.9258 30.3785 15.5953 32.3438H10.6031L5.625 24.8906V22.5H9.84375C10.1254 22.5003 10.4006 22.416 10.6338 22.258C10.867 22.1001 11.0474 21.8757 11.1516 21.6141L13.6125 15.4688H37.9688V32.3438ZM18.3656 12.6562C22.6266 9.84375 30.4875 5.625 39.375 5.625C48.2625 5.625 56.1234 9.84375 60.3844 12.6562H18.3656ZM46.4062 15.4688V16.875C46.4062 17.248 46.2581 17.6056 45.9944 17.8694C45.7306 18.1331 45.373 18.2812 45 18.2812H40.7813V15.4688H46.4062ZM67.5 39.375C66.3875 39.375 65.2999 39.0451 64.3749 38.427C63.4499 37.8089 62.7289 36.9304 62.3032 35.9026C61.8774 34.8748 61.766 33.7438 61.9831 32.6526C62.2001 31.5615 62.7359 30.5592 63.5225 29.7725C64.3092 28.9859 65.3115 28.4501 66.4026 28.2331C67.4938 28.016 68.6248 28.1274 69.6526 28.5532C70.6804 28.9789 71.5589 29.6999 72.177 30.6249C72.7951 31.5499 73.125 32.6375 73.125 33.75C73.125 35.2418 72.5324 36.6726 71.4775 37.7275C70.4226 38.7824 68.9918 39.375 67.5 39.375ZM84.375 32.3438H75.8109C75.4804 30.3785 74.4642 28.594 72.9427 27.307C71.4212 26.02 69.4928 25.3138 67.5 25.3138C65.5072 25.3138 63.5788 26.02 62.0573 27.307C60.5358 28.594 59.5196 30.3785 59.1891 32.3438H40.7813V21.0938H45C46.1179 21.0904 47.189 20.6449 47.9794 19.8544C48.7699 19.064 49.2154 17.9929 49.2188 16.875V15.4688H64.1109L70.7203 22.0922C70.9885 22.3512 71.3459 22.4972 71.7188 22.5H81.8578C83.5012 25.0071 84.3761 27.9398 84.375 30.9375V32.3438Z" fill="#BEBEBE"/>
<path d="M81.5625 67.8797C81.5629 67.1259 81.3876 66.3824 81.0504 65.7083C80.7132 65.0341 80.2235 64.4478 79.6202 63.996C79.0169 63.5442 78.3165 63.2392 77.5747 63.1054C76.8329 62.9716 76.0701 63.0125 75.3469 63.225L73.0969 63.8859C73.1132 63.812 73.1226 63.7366 73.125 63.6609C73.1254 62.9072 72.9501 62.1637 72.6129 61.4895C72.2757 60.8153 71.786 60.2291 71.1827 59.7772C70.5794 59.3254 69.879 59.0205 69.1372 58.8866C68.3954 58.7528 67.6326 58.7938 66.9094 59.0062L60.4688 60.9047V60.8484C60.4692 60.0947 60.2938 59.3512 59.9567 58.677C59.6195 58.0028 59.1298 57.4166 58.5265 56.9647C57.9231 56.5129 57.2227 56.208 56.4809 56.0741C55.7391 55.9403 54.9763 55.9813 54.2531 56.1937L40.7813 60.1594L28.4063 57.6844C28.3133 57.6681 28.2193 57.6586 28.125 57.6563H19.6875C19.5092 57.6535 19.3322 57.687 19.1672 57.7547L14.0625 59.7938V57.6563C14.0604 57.3621 13.9673 57.0759 13.7961 56.8367C13.6249 56.5976 13.384 56.4172 13.1063 56.3203L4.66876 53.5078C4.45728 53.4381 4.23227 53.4196 4.01223 53.4538C3.7922 53.488 3.58344 53.574 3.40314 53.7047C3.21995 53.8327 3.07053 54.0032 2.96766 54.2015C2.8648 54.3999 2.81156 54.6203 2.81251 54.8438V85.7812C2.81156 86.0047 2.8648 86.2251 2.96766 86.4235C3.07053 86.6218 3.21995 86.7923 3.40314 86.9203C3.63768 87.0977 3.92472 87.1917 4.21876 87.1875C4.37127 87.1848 4.52269 87.1611 4.66876 87.1172L13.1063 84.3047C13.384 84.2078 13.6249 84.0274 13.7961 83.7883C13.9673 83.5491 14.0604 83.2629 14.0625 82.9688V81.5625H18.0563L34.7063 87.1172C34.8523 87.1611 35.0038 87.1848 35.1563 87.1875H56.25C56.4086 87.1881 56.5659 87.1595 56.7141 87.1031L78.3281 79.4813C79.2735 79.1472 80.0922 78.5284 80.6714 77.7099C81.2506 76.8915 81.5619 75.9136 81.5625 74.9109C81.5592 74.2523 81.4201 73.6014 81.154 72.999C80.8878 72.3965 80.5003 71.8554 80.0156 71.4094C80.5005 70.9576 80.8879 70.4114 81.1539 69.8044C81.4199 69.1974 81.559 68.5424 81.5625 67.8797ZM11.25 81.9562L5.62501 83.8266V56.7984L11.25 58.6688V81.9562ZM67.711 61.7063C67.8928 61.6487 68.0827 61.6202 68.2734 61.6219C68.6448 61.6135 69.011 61.709 69.331 61.8976C69.651 62.0862 69.9119 62.3604 70.0844 62.6893C70.2569 63.0182 70.3341 63.3888 70.3073 63.7592C70.2805 64.1297 70.1508 64.4852 69.9328 64.7859L53.4375 68.5547V66.0938C53.4375 66.0375 53.4094 65.9812 53.4094 65.9109L67.711 61.7063ZM55.0547 58.8938C55.2366 58.8362 55.4264 58.8077 55.6172 58.8094C56.1579 58.8097 56.6763 59.0247 57.0586 59.407C57.4409 59.7893 57.6559 60.3078 57.6563 60.8484C57.6475 61.1907 57.5507 61.5249 57.375 61.8187L51.4828 63.5484L50.2172 62.2828C50.02 62.0895 49.7708 61.9576 49.5 61.9031L46.7156 61.3406L55.0547 58.8938ZM77.4 76.8234L56.011 84.375H35.3813L18.7313 78.8203C18.5852 78.7764 18.4338 78.7527 18.2813 78.75H14.0625V62.8313L19.9547 60.4688H27.9844L48.5297 64.575L50.625 66.6703V68.9062H32.3438C32.0336 68.9072 31.7325 69.0107 31.4872 69.2005C31.2419 69.3904 31.0663 69.656 30.9877 69.956C30.9091 70.2561 30.9319 70.5737 31.0525 70.8594C31.1731 71.1452 31.3849 71.383 31.6547 71.5359L44.311 78.5672C44.5198 78.6896 44.758 78.7528 45 78.75H56.25C56.3835 78.753 56.5165 78.734 56.6438 78.6938L76.1485 72.9563C76.6556 72.8104 77.1996 72.8674 77.6655 73.1152C78.1314 73.363 78.4827 73.7823 78.6452 74.2843C78.8077 74.7864 78.7686 75.332 78.5363 75.8058C78.3039 76.2796 77.8965 76.6445 77.4 76.8234ZM77.4563 69.7781L76.5141 70.0734C76.1189 70.085 75.7267 70.1464 75.3469 70.2562L56.0531 75.9375H45.3656L38.4047 72.0703L39.3891 71.7188H52.0313C52.1357 71.7081 52.2391 71.6893 52.3406 71.6625V71.6906L71.1703 67.3875L76.1485 65.925C76.3303 65.8675 76.5202 65.839 76.7109 65.8406C77.2516 65.841 77.7701 66.0559 78.1524 66.4383C78.5347 66.8206 78.7496 67.339 78.75 67.8797C78.7559 68.2908 78.6348 68.6937 78.4032 69.0334C78.1717 69.3732 77.841 69.6332 77.4563 69.7781Z" fill="#BEBEBE"/>
<path d="M85.7812 42.1875H4.21875C3.84579 42.1875 3.4881 42.3357 3.22438 42.5994C2.96066 42.8631 2.8125 43.2208 2.8125 43.5938C2.8125 45.4586 3.55329 47.247 4.87191 48.5656C6.19052 49.8842 7.97895 50.625 9.84375 50.625H80.1562C82.0211 50.625 83.8095 49.8842 85.1281 48.5656C86.4467 47.247 87.1875 45.4586 87.1875 43.5938C87.1875 43.2208 87.0393 42.8631 86.7756 42.5994C86.5119 42.3357 86.1542 42.1875 85.7812 42.1875ZM80.1562 47.8125H9.84375C8.97164 47.8101 8.1215 47.5387 7.40928 47.0354C6.69707 46.5321 6.15747 45.8213 5.86406 45H84.1359C83.8425 45.8213 83.3029 46.5321 82.5907 47.0354C81.8785 47.5387 81.0284 47.8101 80.1562 47.8125Z" fill="#BEBEBE"/>
</svg>
