<svg width="90" height="90" viewBox="0 0 90 90" fill="none" xmlns="http://www.w3.org/2000/svg">
<path d="M61.4631 3.22436C61.3326 3.09377 61.1775 2.99019 61.0069 2.91953C60.8363 2.84886 60.6534 2.81249 60.4688 2.8125H21.0938C18.4839 2.81543 15.9818 3.85348 14.1364 5.6989C12.291 7.54433 11.2529 10.0464 11.25 12.6562V77.3438C11.2529 79.9536 12.291 82.4557 14.1364 84.3011C15.9818 86.1465 18.4839 87.1846 21.0938 87.1875H68.9062C71.5161 87.1846 74.0182 86.1465 75.8636 84.3011C77.709 82.4557 78.7471 79.9536 78.75 77.3438V21.0938C78.75 20.9091 78.7136 20.7262 78.643 20.5556C78.5723 20.385 78.4687 20.2299 78.3382 20.0994L61.4631 3.22436ZM61.875 7.61361L73.9489 19.6875H68.9062C67.0421 19.6854 65.2549 18.9439 63.9367 17.6258C62.6186 16.3076 61.8771 14.5204 61.875 12.6562V7.61361ZM21.0938 5.625H59.0625V12.6562C59.0654 15.2661 60.1035 17.7682 61.9489 19.6136C63.7943 21.459 66.2964 22.4971 68.9062 22.5H75.9375V61.875H14.0625V12.6562C14.0646 10.7921 14.8061 9.00488 16.1242 7.68672C17.4424 6.36856 19.2296 5.62709 21.0938 5.625ZM68.9062 84.375H21.0938C19.2296 84.3729 17.4424 83.6314 16.1242 82.3133C14.8061 80.9951 14.0646 79.2079 14.0625 77.3438V64.6875H75.9375V77.3438C75.9354 79.2079 75.1939 80.9951 73.8758 82.3133C72.5576 83.6314 70.7704 84.3729 68.9062 84.375Z" fill="#BEBEBE"/>
<path d="M33.75 78.75H29.5312V68.9062C29.5312 68.5333 29.3831 68.1756 29.1194 67.9119C28.8556 67.6482 28.498 67.5 28.125 67.5C27.752 67.5 27.3944 67.6482 27.1306 67.9119C26.8669 68.1756 26.7188 68.5333 26.7188 68.9062V80.1562C26.7188 80.5292 26.8669 80.8869 27.1306 81.1506C27.3944 81.4143 27.752 81.5625 28.125 81.5625H33.75C34.123 81.5625 34.4806 81.4143 34.7444 81.1506C35.0081 80.8869 35.1562 80.5292 35.1562 80.1562C35.1562 79.7833 35.0081 79.4256 34.7444 79.1619C34.4806 78.8982 34.123 78.75 33.75 78.75Z" fill="#BEBEBE"/>
<path d="M43.5938 67.5C40.4921 67.5 37.9688 70.6542 37.9688 74.5312C37.9688 78.4083 40.4921 81.5625 43.5938 81.5625C46.6954 81.5625 49.2188 78.4083 49.2188 74.5312C49.2188 70.6542 46.6954 67.5 43.5938 67.5ZM43.5938 78.75C42.0692 78.75 40.7812 76.8182 40.7812 74.5312C40.7812 72.2443 42.0692 70.3125 43.5938 70.3125C45.1183 70.3125 46.4062 72.2443 46.4062 74.5312C46.4062 76.8182 45.1183 78.75 43.5938 78.75Z" fill="#BEBEBE"/>
<path d="M61.875 73.125H59.0625C58.6895 73.125 58.3319 73.2732 58.0681 73.5369C57.8044 73.8006 57.6562 74.1583 57.6562 74.5312C57.6562 74.9042 57.8044 75.2619 58.0681 75.5256C58.3319 75.7893 58.6895 75.9375 59.0625 75.9375H60.3016C59.9057 77.5577 58.8538 78.75 57.6562 78.75C56.1317 78.75 54.8438 76.8182 54.8438 74.5312C54.8438 72.2443 56.1317 70.3125 57.6562 70.3125C57.9356 70.3137 58.2111 70.3772 58.4627 70.4985C58.6298 70.5772 58.8107 70.6223 58.9952 70.6312C59.1796 70.64 59.3641 70.6124 59.5379 70.55C59.7117 70.4876 59.8715 70.3915 60.0082 70.2673C60.1449 70.1431 60.2558 69.9932 60.3345 69.8262C60.4133 69.6592 60.4584 69.4782 60.4672 69.2938C60.4761 69.1093 60.4485 68.9249 60.3861 68.7511C60.3236 68.5772 60.2276 68.4174 60.1034 68.2807C59.9792 68.144 59.8293 68.0332 59.6623 67.9544C59.0356 67.6558 58.3504 67.5006 57.6562 67.5C54.5546 67.5 52.0312 70.6542 52.0312 74.5312C52.0312 78.4083 54.5546 81.5625 57.6562 81.5625C60.7579 81.5625 63.2812 78.4083 63.2812 74.5312C63.2812 74.1583 63.1331 73.8006 62.8694 73.5369C62.6056 73.2732 62.248 73.125 61.875 73.125Z" fill="#BEBEBE"/>
<path d="M43.4619 41.3397L51.5709 50.8671C51.7795 51.1829 52.0194 51.477 52.2869 51.7449C52.8092 52.2673 53.4293 52.6816 54.1118 52.9643C54.7943 53.247 55.5257 53.3925 56.2644 53.3925C57.0032 53.3925 57.7346 53.247 58.4171 52.9643C59.0996 52.6816 59.7197 52.2673 60.242 51.7449C60.7644 51.2226 61.1787 50.6025 61.4614 49.92C61.7441 49.2375 61.8896 48.506 61.8896 47.7673C61.8896 47.0286 61.7441 46.2972 61.4614 45.6147C61.1787 44.9322 60.7644 44.3121 60.242 43.7897C59.9741 43.5224 59.68 43.2825 59.3642 43.0738L49.8368 34.9648C50.6388 32.9283 50.8272 30.7016 50.379 28.5592C49.9308 26.4168 48.8655 24.4524 47.3144 22.9082C45.5955 21.2042 43.3756 20.0962 40.9806 19.7468C38.5857 19.3975 36.1417 19.8251 34.0077 20.967C33.8151 21.0712 33.6495 21.219 33.524 21.3985C33.3986 21.578 33.3168 21.7844 33.2852 22.0011C33.2537 22.2178 33.2731 22.4389 33.3421 22.6468C33.4111 22.8547 33.5277 23.0435 33.6825 23.1984L37.3717 26.8849C37.6305 27.1496 37.7745 27.5057 37.7724 27.8759C37.7704 28.2461 37.6224 28.6006 37.3606 28.8624C37.0988 29.1242 36.7443 29.2722 36.3741 29.2743C36.0039 29.2763 35.6477 29.1323 35.383 28.8735L31.6955 25.1858C31.5407 25.0309 31.3518 24.9143 31.1439 24.8453C30.936 24.7764 30.7149 24.7569 30.4982 24.7885C30.2815 24.8201 30.0752 24.9018 29.8956 25.0273C29.7161 25.1527 29.5683 25.3183 29.4641 25.511C28.3679 27.5388 27.9209 29.8543 28.1837 32.1444C28.4465 34.4346 29.4063 36.5887 30.9334 38.3155C32.4605 40.0423 34.481 41.2584 36.7218 41.7993C38.9626 42.3401 41.3155 42.1797 43.4621 41.3397H43.4619ZM31.2126 28.6806L33.3941 30.8623C34.186 31.6499 35.2579 32.0913 36.3748 32.0898C37.4917 32.0883 38.5624 31.6439 39.3522 30.8542C40.1419 30.0644 40.5863 28.9937 40.5878 27.8768C40.5893 26.7599 40.1479 25.688 39.3603 24.8961L37.1783 22.7146C38.6088 22.3379 40.1128 22.341 41.5418 22.7235C42.9707 23.1061 44.2751 23.8549 45.3261 24.8959C46.5918 26.1559 47.4237 27.786 47.7013 29.5502C47.9789 31.3144 47.6879 33.1212 46.8703 34.7091C46.7258 34.991 46.6808 35.3135 46.7424 35.6242C46.8041 35.935 46.9689 36.2158 47.2101 36.4212L57.6102 45.2739C57.6602 45.3163 57.7131 45.3552 57.7684 45.3902C58.125 45.6157 58.4263 45.9184 58.65 46.2761C58.8737 46.6338 59.0141 47.0372 59.0607 47.4565C59.1074 47.8757 59.0591 48.3001 58.9195 48.6982C58.7799 49.0963 58.5525 49.4579 58.2542 49.7562C57.9559 50.0545 57.5943 50.2819 57.1962 50.4215C56.7981 50.5611 56.3737 50.6094 55.9545 50.5627C55.5352 50.5161 55.1318 50.3757 54.7741 50.152C54.4164 49.9283 54.1137 49.627 53.8882 49.2704C53.8531 49.2151 53.8142 49.1622 53.7717 49.1122L44.9192 38.7121C44.7138 38.4709 44.433 38.3061 44.1222 38.2444C43.8115 38.1828 43.489 38.2278 43.2071 38.3723C41.6193 39.1899 39.8125 39.4809 38.0483 39.2033C36.2841 38.9257 34.654 38.0938 33.3941 36.8281C32.3529 35.7773 31.604 34.473 31.2214 33.0441C30.8389 31.6151 30.8358 30.1111 31.2126 28.6806Z" fill="#BEBEBE"/>
</svg>
