<svg width="90" height="90" viewBox="0 0 90 90" fill="none" xmlns="http://www.w3.org/2000/svg">
<g clip-path="url(#clip0)">
<path d="M54.0907 81.9739C53.3485 82.1588 52.5919 82.3231 51.8409 82.4614C49.8776 82.8265 48.5796 84.7147 48.9427 86.6797C49.1221 87.6465 49.6711 88.4517 50.4166 88.9773C51.1848 89.5181 52.1626 89.7622 53.1589 89.5769C54.0533 89.4109 54.9547 89.2157 55.8392 88.9949C57.7779 88.5124 58.959 86.5484 58.4754 84.6106C57.9929 82.6711 56.0305 81.491 54.0907 81.9739Z" fill="#BEBEBE"/>
<path d="M80.8469 33.4785C81.1003 34.2423 81.5842 34.8659 82.1953 35.2967C83.1015 35.9349 84.2873 36.1497 85.4189 35.7755C87.316 35.1456 88.3439 33.0999 87.7163 31.2037C87.4303 30.3393 87.113 29.4722 86.7751 28.6279C86.0329 26.7726 83.9284 25.8693 82.0721 26.6115C80.2177 27.3532 79.3141 29.4583 80.0568 31.3142C80.3408 32.0238 80.6068 32.7522 80.8469 33.4785Z" fill="#BEBEBE"/>
<path d="M65.8475 76.8082C65.2092 77.2295 64.5505 77.6373 63.8869 78.0194C62.1556 79.0181 61.5626 81.2312 62.5609 82.9617C62.8319 83.4324 63.1929 83.8172 63.6087 84.1113C64.7248 84.8966 66.2406 85.0142 67.5026 84.2872C68.2915 83.8321 69.076 83.3481 69.8362 82.8454C71.5027 81.7444 71.9614 79.4997 70.8598 77.8324C69.7584 76.1645 67.5146 75.7064 65.8475 76.8082Z" fill="#BEBEBE"/>
<path d="M89.9656 43.5836C89.8869 41.5867 88.2049 40.0324 86.2074 40.1103C84.2124 40.1891 82.6569 41.8716 82.7353 43.8678C82.7652 44.631 82.773 45.4057 82.7554 46.1681C82.7273 47.4204 83.3398 48.5367 84.2917 49.2076C84.8587 49.607 85.5469 49.8486 86.2931 49.8656C88.29 49.9099 89.9449 48.326 89.9893 46.3281C90.0092 45.4171 90.0016 44.4941 89.9656 43.5836Z" fill="#BEBEBE"/>
<path d="M80.2556 67.2903C78.6543 66.0888 76.3888 66.415 75.1896 68.0134C74.7303 68.6256 74.2466 69.2301 73.7513 69.8123C72.457 71.3329 72.6399 73.617 74.1605 74.9122C74.2472 74.9857 74.3348 75.0532 74.4257 75.1167C75.9375 76.1825 78.0385 75.9376 79.2608 74.5032C79.8523 73.8087 80.4288 73.0865 80.9776 72.3554C82.1771 70.757 81.8525 68.4899 80.2556 67.2903Z" fill="#BEBEBE"/>
<path d="M85.5748 54.2114C83.6682 53.6136 81.6378 54.675 81.0404 56.5816C80.8117 57.31 80.5583 58.0418 80.2847 58.7586C79.684 60.3365 80.2596 62.0727 81.579 63.0031C81.821 63.1731 82.0876 63.3172 82.3772 63.4268C84.244 64.1391 86.3344 63.2025 87.0459 61.335C87.3708 60.4828 87.6722 59.612 87.9448 58.7461C88.5416 56.8391 87.481 54.8092 85.5748 54.2114Z" fill="#BEBEBE"/>
<path d="M38.3058 82.4939C35.0711 81.9131 31.9681 80.9241 29.0257 79.5447C28.9909 79.5265 28.9597 79.5058 28.9232 79.4892C28.2298 79.1628 27.5376 78.8132 26.8666 78.448C26.8643 78.4453 26.86 78.4435 26.8564 78.442C25.6254 77.7641 24.4239 77.014 23.2568 76.1924C6.23724 64.2033 2.14507 40.6029 14.1349 23.5836C16.742 19.8841 19.897 16.7978 23.4144 14.3516C23.4578 14.3214 23.5011 14.2914 23.5441 14.2611C35.9388 5.72074 52.7689 5.14518 65.9302 13.9211L63.1034 18.0054C62.3176 19.1422 62.801 19.9706 64.1768 19.8468L76.4554 18.7475C77.8329 18.6237 78.6567 17.4322 78.2862 16.1019L74.989 4.22196C74.6198 2.89015 73.6748 2.73073 72.8881 3.86734L70.0548 7.96126C60.3963 1.47766 48.8118 -0.994631 37.3136 0.999221C36.1555 1.19965 35.0136 1.44496 33.8875 1.73052C33.8788 1.73207 33.8718 1.73303 33.8648 1.73458C33.8213 1.74522 33.7772 1.75935 33.7348 1.77115C23.8197 4.31734 15.169 10.1002 8.99606 18.3511C8.94402 18.4128 8.89043 18.4732 8.84129 18.5403C8.63602 18.8168 8.4323 19.0996 8.23284 19.3825C7.90666 19.846 7.58512 20.3212 7.27751 20.7963C7.23901 20.8536 7.2096 20.9118 7.17594 20.9697C2.082 28.8632 -0.375009 37.989 0.0463583 47.2796C0.0473256 47.3101 0.0455844 47.3409 0.0463583 47.3722C0.0871794 48.2798 0.159148 49.1999 0.256848 50.1057C0.262072 50.1641 0.275034 50.2195 0.284901 50.2779C0.38589 51.1887 0.512609 52.1017 0.671444 53.0145C2.28572 62.3275 6.67893 70.7078 13.262 77.2286C13.2772 77.2439 13.2931 77.2605 13.3086 77.2764C13.314 77.2823 13.32 77.2854 13.3252 77.2911C15.0939 79.0355 17.0177 80.649 19.0891 82.1079C24.51 85.9277 30.5463 88.4526 37.029 89.6159C38.9959 89.9694 40.8749 88.66 41.2277 86.694C41.5804 84.7267 40.2722 82.8462 38.3058 82.4939Z" fill="#BEBEBE"/>
<path d="M42.78 16.0959C41.1621 16.0959 39.8516 17.4076 39.8516 19.0232V48.1875L66.5246 61.976C66.9539 62.1983 67.4136 62.3029 67.8659 62.3029C68.9253 62.3029 69.9486 61.726 70.4688 60.7194C71.2107 59.2828 70.6493 57.5178 69.2126 56.7758L45.7052 44.6227V19.0232C45.705 17.4076 44.3961 16.0959 42.78 16.0959Z" fill="#BEBEBE"/>
</g>
<defs>
<clipPath id="clip0">
<rect width="90" height="90" fill="white"/>
</clipPath>
</defs>
</svg>
