<svg width="90" height="90" viewBox="0 0 90 90" fill="none" xmlns="http://www.w3.org/2000/svg">
<path d="M54.8438 68.9062H63.2812V77.3438C63.2812 77.7167 63.4294 78.0744 63.6931 78.3381C63.9569 78.6018 64.3145 78.75 64.6875 78.75C65.0605 78.75 65.4181 78.6018 65.6819 78.3381C65.9456 78.0744 66.0938 77.7167 66.0938 77.3438V68.9062H74.5312C74.9042 68.9062 75.2619 68.7581 75.5256 68.4944C75.7893 68.2306 75.9375 67.873 75.9375 67.5C75.9375 67.127 75.7893 66.7694 75.5256 66.5056C75.2619 66.2419 74.9042 66.0938 74.5312 66.0938H66.0938V57.6562C66.0938 57.2833 65.9456 56.9256 65.6819 56.6619C65.4181 56.3982 65.0605 56.25 64.6875 56.25C64.3145 56.25 63.9569 56.3982 63.6931 56.6619C63.4294 56.9256 63.2812 57.2833 63.2812 57.6562V66.0938H54.8438C54.4708 66.0938 54.1131 66.2419 53.8494 66.5056C53.5857 66.7694 53.4375 67.127 53.4375 67.5C53.4375 67.873 53.5857 68.2306 53.8494 68.4944C54.1131 68.7581 54.4708 68.9062 54.8438 68.9062Z" fill="#BEBEBE"/>
<path d="M6.35783 72.9533C7.00225 73.3048 22.3212 81.5625 37.9688 81.5625C41.9283 81.5457 45.8758 81.1262 49.7505 80.3106C51.8994 82.8161 54.6439 84.741 57.7315 85.9082C60.8192 87.0754 64.1507 87.4473 67.4197 86.9898C70.6887 86.5323 73.7902 85.2601 76.4387 83.2901C79.0873 81.3201 81.198 78.7158 82.5765 75.7165C83.955 72.7173 84.5571 69.4196 84.3275 66.1267C84.0979 62.8339 83.0438 59.6517 81.2623 56.8728C79.4808 54.094 77.0291 51.8078 74.1328 50.2245C71.2364 48.6413 67.9884 47.8118 64.6875 47.8125C64.311 47.8125 63.9373 47.8241 63.566 47.8452C59.0987 41.1634 52.8033 36.6128 45.6163 34.7277C48.9966 33.0092 51.6995 30.2023 53.2893 26.7596C54.879 23.3169 55.2629 19.439 54.3789 15.7515C53.495 12.0639 51.3948 8.78152 48.4171 6.43365C45.4393 4.08579 41.7575 2.80931 37.9655 2.81005C34.1735 2.81079 30.4922 4.08871 27.5154 6.43774C24.5385 8.78677 22.4396 12.07 21.5571 15.7579C20.6746 19.4458 21.06 23.3235 22.6511 26.7656C24.2422 30.2076 26.9462 33.0135 30.3272 34.7307C24.4983 36.26 19.2257 39.5485 15.0326 44.3586C8.96607 51.3178 5.625 61.0344 5.625 71.7188C5.625 71.9714 5.69306 72.2193 5.82201 72.4366C5.95097 72.6538 6.13606 72.8323 6.35783 72.9533ZM64.6875 50.625C68.0251 50.625 71.2877 51.6147 74.0628 53.469C76.8378 55.3232 79.0007 57.9587 80.278 61.0422C81.5552 64.1257 81.8894 67.5187 81.2383 70.7922C80.5871 74.0656 78.9799 77.0724 76.6199 79.4324C74.2599 81.7925 71.2531 83.3996 67.9797 84.0508C64.7062 84.7019 61.3132 84.3677 58.2297 83.0905C55.1462 81.8133 52.5107 79.6503 50.6565 76.8753C48.8022 74.1002 47.8125 70.8376 47.8125 67.5C47.8175 63.026 49.597 58.7367 52.7606 55.5731C55.9242 52.4095 60.2135 50.63 64.6875 50.625ZM23.9063 19.6875C23.9063 16.9062 24.731 14.1874 26.2762 11.8748C27.8214 9.56224 30.0177 7.75981 32.5873 6.69545C35.1569 5.63109 37.9844 5.35261 40.7122 5.89522C43.4401 6.43782 45.9458 7.77714 47.9124 9.74382C49.8791 11.7105 51.2184 14.2162 51.761 16.9441C52.3037 19.6719 52.0252 22.4994 50.9608 25.069C49.8965 27.6386 48.094 29.8348 45.7815 31.38C43.4689 32.9253 40.7501 33.75 37.9688 33.75C34.2404 33.7458 30.6661 32.2628 28.0297 29.6265C25.3934 26.9902 23.9105 23.4158 23.9063 19.6875ZM17.1527 46.2067C22.5742 39.9876 29.9668 36.5625 37.9688 36.5625C46.8826 36.5625 54.9668 40.8059 60.4366 48.276C57.3715 48.9526 54.5127 50.3526 52.0989 52.3592C49.6851 54.3657 47.7863 56.9206 46.5611 59.8105C45.3358 62.7004 44.8197 65.8415 45.0557 68.9715C45.2918 72.1015 46.2732 75.1296 47.918 77.8031C44.6373 78.4208 41.3071 78.7377 37.9688 78.75C24.9279 78.75 11.6731 72.4952 8.44488 70.8673C8.61557 61.2007 11.6924 52.4707 17.1527 46.2067Z" fill="#BEBEBE"/>
</svg>
