<svg width="90" height="90" viewBox="0 0 90 90" fill="none" xmlns="http://www.w3.org/2000/svg">
<path d="M45 0C39.201 0 34.5 4.701 34.5 10.5C34.5066 16.2962 39.2038 20.9934 45 21C50.799 21 55.5 16.299 55.5 10.5C55.5 4.701 50.799 0 45 0ZM45 18C40.8579 18 37.5 14.6421 37.5 10.5C37.5049 6.36 40.86 3.00487 45 3C49.1421 3 52.5 6.35794 52.5 10.5C52.5 14.6421 49.1421 18 45 18Z" fill="#BEBEBE"/>
<path d="M49.5 22.5H40.5C33.0476 22.5082 27.0082 28.5476 27 36V61.5H33V90H36V55.5H33V58.5H30V36C30.0066 30.2038 34.7038 25.5066 40.5 25.5H49.5C55.2962 25.5066 59.9934 30.2038 60 36V58.5H57V55.5H54V90H57V61.5H63V36C62.9917 28.5476 56.9524 22.5082 49.5 22.5Z" fill="#BEBEBE"/>
<path d="M46.5 61.5H43.5V90H46.5V61.5Z" fill="#BEBEBE"/>
<path d="M75 15C70.0294 15 66 19.0294 66 24C66.0049 28.9686 70.0314 32.9951 75 33C79.9706 33 84 28.9706 84 24C84 19.0294 79.9706 15 75 15ZM75 30C71.6863 30 69 27.3137 69 24C69 20.6863 71.6863 18 75 18C78.3137 18 81 20.6863 81 24C81 27.3137 78.3137 30 75 30Z" fill="#BEBEBE"/>
<path d="M79.5 34.5H66V37.5H79.5C83.64 37.5049 86.9951 40.86 87 45V64.5H84V61.5H81V90H84V67.5H90V45C89.9934 39.2038 85.2962 34.5066 79.5 34.5Z" fill="#BEBEBE"/>
<path d="M66 61.5V64.5H60V67.5H66V90H69V61.5H66Z" fill="#BEBEBE"/>
<path d="M76.5 67.5H73.5V90H76.5V67.5Z" fill="#BEBEBE"/>
<path d="M15 15C10.0294 15 6 19.0294 6 24C6.00488 28.9686 10.0314 32.9951 15 33C19.9706 33 24 28.9706 24 24C24 19.0294 19.9706 15 15 15ZM15 30C11.6863 30 9 27.3137 9 24C9 20.6863 11.6863 18 15 18C18.3137 18 21 20.6863 21 24C21 27.3137 18.3137 30 15 30Z" fill="#BEBEBE"/>
<path d="M10.5 34.5C4.70381 34.5066 0.0065625 39.2038 0 45V67.5H6V90H9V61.5H6V64.5H3V45C3.00488 40.86 6.36 37.5049 10.5 37.5H24V34.5H10.5Z" fill="#BEBEBE"/>
<path d="M24 64.5V61.5H21V90H24V67.5H30V64.5H24Z" fill="#BEBEBE"/>
<path d="M16.5 67.5H13.5V90H16.5V67.5Z" fill="#BEBEBE"/>
</svg>
