<svg width="90" height="90" fill="none" xmlns="http://www.w3.org/2000/svg"><path d="M40.606 28.445a4.984 4.984 0 004.978-4.978 4.983 4.983 0 00-4.978-4.978 4.984 4.984 0 00-4.978 4.978 4.984 4.984 0 004.978 4.978zm0-7.32c1.29 0 2.341 1.051 2.341 2.342a2.344 2.344 0 01-2.341 2.341 2.344 2.344 0 01-2.341-2.341 2.344 2.344 0 012.34-2.341zM27.666 25.879c0-.729-.59-1.319-1.318-1.319h-8.927a1.318 1.318 0 100 2.637h8.927c.728 0 1.319-.59 1.319-1.318zM54.862 27.288h8.927a1.318 1.318 0 100-2.636h-8.927a1.318 1.318 0 100 2.636zM56.28 50.018l-9.524-2.183-5.02-8.384c-.396-.67-1.649-.958-2.262 0l-5.02 8.384-9.524 2.183c-.785.22-1.394 1.156-.7 2.151l6.423 7.365-.867 9.733c-.053.718.648 1.704 1.83 1.33l8.99-3.833 8.988 3.833c.566.273 1.904-.09 1.83-1.33l-.867-9.733 6.423-7.365c.475-.498.42-1.89-.7-2.151zm-8.08 8.206c-.236.27-.35.626-.32.984l.722 8.1-7.48-3.19c-.24.024.096-.227-1.034 0l-7.48 3.19.721-8.1a1.318 1.318 0 00-.32-.984l-5.344-6.128 7.926-1.817c.35-.08.652-.3.837-.608l4.177-6.977 4.177 6.977c.185.308.487.528.837.608l7.926 1.817-5.345 6.128z" fill="#BEBEBE"/><path d="M81.21 55.827V11.665a6.6 6.6 0 00-6.59-6.592H63.632v-.766A4.311 4.311 0 0059.326 0a4.311 4.311 0 00-4.306 4.307v.766H43.6a1.318 1.318 0 100 2.637h11.42v4.407H26.19V7.71h11.244a1.318 1.318 0 100-2.637H26.19v-.766A4.311 4.311 0 0021.885 0a4.311 4.311 0 00-4.307 4.307v.766H6.592A6.6 6.6 0 000 11.665v66.154a6.6 6.6 0 006.592 6.592h51.733C61.68 87.856 66.365 90 71.543 90 81.72 90 90 81.72 90 71.543c0-6.635-3.52-12.462-8.79-15.716zM57.657 4.307c0-.921.75-1.67 1.67-1.67.92 0 1.67.749 1.67 1.67v10.546c0 .921-.75 1.67-1.67 1.67-.92 0-1.67-.749-1.67-1.67V4.308zm-37.441 0c0-.921.749-1.67 1.67-1.67.92 0 1.67.749 1.67 1.67v10.546c0 .921-.75 1.67-1.67 1.67-.921 0-1.67-.749-1.67-1.67V4.308zM6.592 81.775a3.96 3.96 0 01-3.955-3.956V11.665A3.96 3.96 0 016.592 7.71h10.986v4.407h-7.455a3.298 3.298 0 00-3.295 3.295v58.66a3.298 3.298 0 003.295 3.294h43.905a18.396 18.396 0 002.161 4.408H6.592zm64.951 5.588c-8.723 0-15.82-7.097-15.82-15.82 0-3.153.924-6.196 2.672-8.802a1.318 1.318 0 00-2.19-1.47 18.371 18.371 0 00-3.12 10.272c0 1.086.096 2.151.277 3.187h-43.24a.659.659 0 01-.657-.658V34.864h6.415a1.318 1.318 0 100-2.637H9.465V15.412c0-.363.295-.658.658-.658h7.455c-.075 2.304 1.908 4.408 4.307 4.406 2.31.02 4.357-2.002 4.306-4.406H55.02c-.076 2.304 1.907 4.408 4.306 4.406 2.311.02 4.358-2.002 4.307-4.406h7.455c.363 0 .658.296.658.658v16.815h-49.7a1.318 1.318 0 100 2.637h49.7v7.846a1.318 1.318 0 102.637 0V15.412a3.298 3.298 0 00-3.295-3.294h-7.455V7.71h10.986a3.96 3.96 0 013.955 3.955v42.814a18.304 18.304 0 00-4.191-1.175v-4.428a1.318 1.318 0 10-2.637 0v4.213c-3.58-.061-7.475 1.063-10.523 3.15a1.318 1.318 0 101.475 2.185 15.738 15.738 0 018.845-2.701c8.723 0 15.82 7.097 15.82 15.82 0 8.723-7.097 15.82-15.82 15.82z" fill="#BEBEBE"/><path d="M79.453 67.676H75.41v-4.043a3.96 3.96 0 00-3.955-3.955 3.96 3.96 0 00-3.955 3.955v4.043h-4.043a3.96 3.96 0 00-3.955 3.955 3.96 3.96 0 003.955 3.955H67.5v4.043a3.96 3.96 0 003.955 3.955 3.96 3.96 0 003.955-3.955v-4.043h4.043a3.96 3.96 0 003.955-3.955 3.96 3.96 0 00-3.955-3.955zm0 5.273h-5.361c-.728 0-1.319.59-1.319 1.319v5.36a1.32 1.32 0 01-1.318 1.32 1.32 1.32 0 01-1.318-1.32v-5.36c0-.729-.59-1.319-1.319-1.319h-5.361a1.32 1.32 0 01-1.318-1.318 1.32 1.32 0 011.318-1.319h5.361c.729 0 1.319-.59 1.319-1.318v-5.361a1.32 1.32 0 011.318-1.319 1.32 1.32 0 011.318 1.319v5.361c0 .728.59 1.319 1.319 1.319h5.361a1.32 1.32 0 011.319 1.318 1.32 1.32 0 01-1.319 1.318z" fill="#BEBEBE"/></svg>