<svg width="90" height="90" viewBox="0 0 90 90" fill="none" xmlns="http://www.w3.org/2000/svg">
<path d="M88.2555 18.0872C88.2496 18.0872 88.2437 18.0872 88.238 18.0872H82.3241V16.0636C82.3559 15.2626 81.8378 14.5428 81.068 14.3191C76.9623 13.2431 72.7344 12.7036 68.49 12.7141C61.5119 12.7141 52.0043 14.2842 44.9738 21.4367C37.9957 14.2144 28.4183 12.7141 21.4576 12.7141C17.2132 12.7036 12.9854 13.2431 8.87963 14.3191C8.10986 14.5428 7.59173 15.2626 7.62357 16.0636V18.0698H1.74452C0.781111 18.0698 0 18.8509 0 19.8143V75.5344C0 76.4978 0.781111 77.2789 1.74452 77.2789C2.04415 77.2781 2.33853 77.2 2.59934 77.0521C2.77379 76.9649 20.219 67.4224 44.5726 73.5631H44.8343H44.9913C45.1304 73.5799 45.2708 73.5799 45.41 73.5631C69.8333 67.37 87.2785 76.8951 87.3832 77.0521C87.9229 77.3638 88.588 77.3638 89.1277 77.0521C89.6642 76.7425 89.9963 76.1714 90 75.5519V19.8318C90 18.8683 89.2191 18.0872 88.2555 18.0872ZM3.48905 72.7606V21.5763H7.65846V65.3289C7.64756 66.2924 8.41973 67.0822 9.38314 67.0931C9.47735 67.0942 9.57155 67.0876 9.66466 67.0735C13.2736 66.5224 16.9173 66.2309 20.5679 66.2012C25.6249 66.1135 30.6607 66.8742 35.4662 68.4516C24.6141 67.1393 13.6066 68.6226 3.48905 72.7606ZM20.5679 62.7296C17.3949 62.7368 14.2255 62.9407 11.0777 63.3402V17.4418C14.4743 16.6851 17.9429 16.2989 21.4228 16.2904C27.9473 16.2904 36.949 17.7907 43.1944 24.8385L43.2468 68.2946C39.6181 65.9221 32.5354 62.7296 20.5679 62.7296ZM46.7358 24.8385C52.9812 17.8604 61.9829 16.2904 68.5075 16.2904C71.9871 16.3006 75.4557 16.6866 78.8525 17.4418V63.3402C75.7224 62.937 72.5705 62.7272 69.4146 62.7122C57.517 62.7122 50.4167 65.9046 46.7358 68.2772V24.8385ZM86.4935 72.7606C76.3543 68.6113 65.3215 67.1278 54.4466 68.4516C59.2748 66.8685 64.3346 66.1077 69.4146 66.2012C73.0882 66.2217 76.7554 66.5074 80.3877 67.056C81.3402 67.2006 82.2297 66.5455 82.3742 65.593C82.3884 65.4999 82.395 65.4057 82.3939 65.3115V21.5763H86.5633L86.4935 72.7606Z" fill="#BEBEBE"/>
</svg>
