<svg width="90" height="90" viewBox="0 0 90 90" fill="none" xmlns="http://www.w3.org/2000/svg">
<g clip-path="url(#clip0)">
<path d="M71.0675 75.5027C68.6699 75.5027 66.7183 77.4536 66.7183 79.852C66.7183 82.2496 68.6699 84.2012 71.0675 84.2012C73.4658 84.2012 75.4168 82.2496 75.4168 79.852C75.4168 77.4536 73.4658 75.5027 71.0675 75.5027ZM71.0675 81.3017C70.269 81.3017 69.6178 80.6519 69.6178 79.852C69.6178 79.0513 70.269 78.4022 71.0675 78.4022C71.8667 78.4022 72.5173 79.0513 72.5173 79.852C72.5173 80.6519 71.8667 81.3017 71.0675 81.3017Z" fill="#BEBEBE"/>
<path d="M30.4743 75.5027C28.0766 75.5027 26.125 77.4536 26.125 79.852C26.125 82.2496 28.0766 84.2012 30.4743 84.2012C32.8726 84.2012 34.8235 82.2496 34.8235 79.852C34.8235 77.4536 32.8726 75.5027 30.4743 75.5027ZM30.4743 81.3017C29.6758 81.3017 29.0245 80.6519 29.0245 79.852C29.0245 79.0513 29.6758 78.4022 30.4743 78.4022C31.2735 78.4022 31.924 79.0513 31.924 79.852C31.924 80.6519 31.2735 81.3017 30.4743 81.3017Z" fill="#BEBEBE"/>
<path d="M84.9587 65.5568L73.0506 61.5891C72.3024 61.3399 71.6356 60.8918 71.1223 60.293L65.2044 53.3875C63.8276 51.7799 61.8207 50.8568 59.7013 50.8568H47.3019C47.4555 49.7794 47.435 48.6963 47.2467 47.638L64.207 30.6792C64.7959 30.7832 65.392 30.8413 65.9873 30.8413C68.5853 30.8413 71.1846 29.8509 73.1639 27.8738C75.0802 25.9568 76.1356 23.4084 76.1356 20.6972C76.1356 20.0927 76.0747 19.4967 75.9721 18.9141L78.289 16.5971C81.1142 13.772 81.1142 9.1721 78.289 6.34621L74.0686 2.12436C71.8593 -0.0835398 68.4954 -0.63003 65.702 0.765926L54.4749 6.37948C53.7706 6.73201 52.9806 6.88137 52.1962 6.82616L43.131 6.1303C41.0052 5.96749 38.9467 6.73342 37.4488 8.23202L22.5803 23.0998C21.212 24.4682 20.458 26.2874 20.458 28.2242V40.2357C20.458 41.197 20.1317 42.1434 19.542 42.9044L16.9958 46.1784L13.566 42.3466L10.9752 48.8528L3.93381 47.8051L6.20259 54.4444L0.114746 58.1056L6.204 61.7647L3.93522 68.4047L10.9766 67.3563L11.8409 69.5281L11.6916 69.5075C11.6491 69.8254 11.6271 70.1482 11.6271 70.4731V78.4022C11.6271 82.3989 14.8792 85.6509 18.8759 85.6509H22.1584C23.9954 88.2765 27.0358 90.0002 30.474 90.0002C33.9129 90.0002 36.9547 88.2765 38.7902 85.6509H62.7516C64.5885 88.2765 67.6289 90.0002 71.0671 90.0002C74.5061 90.0002 77.5479 88.2765 79.3834 85.6509H82.6652C86.6626 85.6509 89.914 82.3989 89.914 78.4022V72.4333C89.914 69.3093 87.9227 66.5443 84.9587 65.5568ZM63.0043 55.274L68.9215 62.1809C69.7774 63.1783 70.888 63.923 72.1332 64.3378L84.0399 68.3055C85.8202 68.9002 87.0144 70.5588 87.0144 72.4333V76.9524H80.7879C79.537 72.7652 75.6543 69.7036 71.0671 69.7036C66.4807 69.7036 62.5979 72.7652 61.3471 76.9524H40.1947C38.9439 72.7652 35.0611 69.7036 30.474 69.7036C28.2434 69.7036 26.1842 70.4356 24.5086 71.6602L24.6735 64.9785L31.6646 63.591L29.5926 61.037L35.5991 55.0305C36.4096 54.22 37.5302 53.7563 38.6756 53.7563H59.7013C60.9741 53.7563 62.1775 54.3099 63.0043 55.274ZM20.7539 76.9524H14.5267V72.79L18.2586 68.6206L24.2622 71.845C22.6122 73.1277 21.367 74.9024 20.7539 76.9524ZM27.217 58.1056L29.2536 55.5926C29.4957 55.9062 29.7526 56.2092 30.0337 56.4958L27.7578 58.7724L27.217 58.1056ZM36.2588 48.3742C36.5413 48.0932 36.9129 47.9509 37.2839 47.9509C37.6548 47.9509 38.0264 48.0932 38.3089 48.3742C38.8745 48.9413 38.8745 49.8608 38.3089 50.4257C37.7624 50.9757 36.8067 50.9757 36.2588 50.4257C35.6932 49.8594 35.6932 48.9413 36.2588 48.3742ZM41.3662 50.8568C41.9099 49.3242 41.5822 47.5496 40.3589 46.3249C38.6628 44.6281 35.9049 44.6281 34.2088 46.3249C32.5198 48.0139 32.5155 50.7563 34.1904 52.4545C33.9738 52.6265 33.748 52.7816 33.5504 52.9805L32.0894 54.4416C31.7312 54.0735 31.424 53.6721 31.1571 53.2473L31.666 52.6195L30.721 52.4326C30.2857 51.4918 30.0365 50.4696 30.0365 49.4028C30.0365 47.4653 30.7904 45.6446 32.1587 44.2763C34.986 41.4504 39.5845 41.4504 42.4104 44.2763C44.1369 46.0028 44.8618 48.4995 44.3833 50.8582H41.3662V50.8568ZM46.204 44.5807C45.7445 43.7255 45.1634 42.9278 44.4604 42.2248L58.8115 27.8738C59.5243 28.5852 60.3193 29.165 61.1645 29.6223L46.204 44.5807ZM71.1124 25.8223C68.2865 28.6475 63.6867 28.6475 60.8615 25.8223C59.4924 24.4533 58.7385 22.6326 58.7385 20.6958C58.7385 18.7604 59.4924 16.9398 60.8615 15.5707C62.2744 14.1578 64.1305 13.4513 65.9873 13.4513C67.8448 13.4513 69.7002 14.1578 71.1139 15.5707C72.4822 16.9398 73.2361 18.7604 73.2361 20.6958C73.2361 22.6326 72.4822 24.4533 71.1124 25.8223ZM76.239 14.5457L74.9152 15.868C74.453 15.0157 73.8668 14.2257 73.1625 13.5214L77.0736 9.60816C77.8409 11.2243 77.5726 13.2106 76.239 14.5457ZM23.3561 40.2357V28.2242C23.3561 27.0788 23.8198 25.9597 24.6289 25.1498L39.4988 10.2821C40.3979 9.38376 41.6459 8.92222 42.9073 9.02132L51.9725 9.71717C53.2836 9.81699 54.5967 9.56144 55.7711 8.97318L66.9982 3.35963C68.6752 2.51866 70.6934 2.84783 72.0185 4.17441L75.2139 7.36982L70.8109 11.7743C66.9663 9.69948 62.0557 10.2778 58.8115 13.5214C56.8945 15.4376 55.839 17.986 55.839 20.6958C55.839 22.411 56.2638 24.059 57.0587 25.525L42.1074 40.4778C38.2622 38.4029 33.3522 38.9813 30.1073 42.2248C28.191 44.1411 27.1356 46.6902 27.1356 49.4007C27.1356 50.2126 27.241 51.0076 27.4258 51.7771L24.6735 51.2306L24.5001 44.2388L20.5104 46.3808L21.8292 44.6847C22.8139 43.4176 23.3561 41.8376 23.3561 40.2357ZM8.21795 64.8383L9.7038 60.489L5.74317 58.1056L9.70522 55.7221L8.21936 51.3729L12.8206 52.0581L14.5267 47.7683L17.6194 51.2235L21.7181 49.0241L21.8321 53.6239L26.3845 54.5272L23.485 58.1056L26.3845 61.6833L21.8321 62.5865L21.7181 67.1864L17.6194 64.9877L14.5267 68.4422L12.8192 64.1524L8.21795 64.8383ZM18.8759 82.7514C16.9887 82.7514 15.3938 81.5346 14.7935 79.8519H20.3257C20.3257 80.8592 20.4786 81.8319 20.7539 82.7514H18.8759ZM30.474 87.1007C26.4772 87.1007 23.2252 83.8487 23.2252 79.8519C23.2252 75.8545 26.4772 72.6031 30.474 72.6031C34.4714 72.6031 37.7227 75.8545 37.7227 79.8519C37.7227 83.8487 34.4714 87.1007 30.474 87.1007ZM40.1947 82.7514C40.4701 81.8319 40.6223 80.8592 40.6223 79.8519H60.9188C60.9188 80.8592 61.0717 81.8319 61.3471 82.7514H40.1947ZM71.0671 87.1007C67.0704 87.1007 63.8184 83.8487 63.8184 79.8519C63.8184 75.8545 67.0704 72.6031 71.0671 72.6031C75.0646 72.6031 78.3159 75.8545 78.3159 79.8519C78.3159 83.8487 75.0646 87.1007 71.0671 87.1007ZM82.6652 82.7514H80.7879C81.0632 81.8319 81.2154 80.8592 81.2154 79.8519H86.7483C86.148 81.5346 84.5531 82.7514 82.6652 82.7514Z" fill="#BEBEBE"/>
<path d="M35.6253 59.0591L31.0283 68.2539H66.1644L61.5673 59.0591C60.8262 57.5775 59.3361 56.6559 57.6775 56.6559H39.5152C37.8566 56.6559 36.3665 57.5775 35.6253 59.0591ZM39.5152 59.5554H57.6775C58.2297 59.5554 58.7273 59.8626 58.9736 60.3567L61.4732 65.3544H35.7195L38.2191 60.3567C38.4654 59.8626 38.963 59.5554 39.5152 59.5554Z" fill="#BEBEBE"/>
<path d="M69.0629 17.6208C67.4205 15.9785 64.5557 15.9785 62.9127 17.6208C61.2166 19.3169 61.2166 22.0762 62.9127 23.7723C63.7615 24.6204 64.8743 25.0437 65.9878 25.0437C67.1013 25.0437 68.2148 24.6204 69.0629 23.7723C70.759 22.0762 70.759 19.3169 69.0629 17.6208ZM67.0128 21.7223C66.4479 22.2865 65.5284 22.2865 64.9628 21.7223C64.3979 21.1552 64.3979 20.2378 64.9628 19.6708C65.2353 19.3969 65.5991 19.2461 65.9878 19.2461C66.3764 19.2461 66.7389 19.3969 67.0128 19.6708C67.5784 20.2378 67.5784 21.1567 67.0128 21.7223Z" fill="#BEBEBE"/>
<path d="M29.474 40.8083L54.3188 15.9607L44.5662 12.7108C42.9919 12.1856 41.2866 12.5905 40.1171 13.7635L27.2739 26.6053C26.1024 27.7797 25.6989 29.4828 26.2241 31.0558L29.474 40.8083ZM29.3247 28.6567L42.1686 15.8142C42.4454 15.5374 42.8121 15.3881 43.1887 15.3881C43.343 15.3881 43.4994 15.4143 43.6502 15.4638L48.9516 17.2321L30.7412 35.4397L28.9743 30.1398C28.8001 29.6159 28.9353 29.0468 29.3247 28.6567Z" fill="#BEBEBE"/>
</g>
<defs>
<clipPath id="clip0">
<rect width="90" height="90" fill="white"/>
</clipPath>
</defs>
</svg>
