<svg width="22" height="22" viewBox="0 0 22 22" fill="none" xmlns="http://www.w3.org/2000/svg">
<path d="M19.8659 9.20356C19.2945 7.49152 19.2714 5.67428 19.7991 3.94836L20.3028 2.3008L18.002 0L17.5731 0.247629C15.4702 1.46175 13.4256 1.46175 11.3227 0.247629L11 0.0613164L10.6772 0.247629C8.57436 1.46175 6.52978 1.46175 4.42689 0.247629L3.99793 0L1.69712 2.30085L2.2008 3.9484C2.7285 5.67428 2.70539 7.49156 2.13399 9.20361C0.695694 13.5127 2.72352 18.1937 6.85075 20.0918L10.9999 22L15.1491 20.0918C19.2764 18.1937 21.3042 13.5127 19.8659 9.20356ZM14.6097 18.9189L11 20.579L7.39023 18.9189C3.86249 17.2965 2.12917 13.2956 3.3586 9.61228C4.01546 7.6441 4.04201 5.55509 3.43542 3.57092L3.15849 2.66514L4.21986 1.60377C6.47173 2.75043 8.74881 2.73045 10.9999 1.54378C13.251 2.73041 15.5281 2.75043 17.7801 1.60377L18.8414 2.66514L18.5645 3.57092C17.9579 5.55504 17.9845 7.6441 18.6413 9.61228C19.8708 13.2956 18.1375 17.2965 14.6097 18.9189Z" fill="black"/>
<path d="M16.311 7.90184L12.7888 7.87009L11.0003 4.83563L9.21164 7.87009L5.68945 7.90184L7.42303 10.968L5.68945 14.0343L9.21164 14.066L11.0003 17.1005L12.7888 14.066L16.311 14.0343L14.5774 10.968L16.311 7.90184ZM12.0473 12.7817L11.0003 14.5581L9.9532 12.7817L7.89113 12.7631L8.90601 10.968L7.89113 9.1729L9.9532 9.15429L11.0003 7.37788L12.0473 9.15429L14.1094 9.1729L13.0945 10.968L14.1094 12.7631L12.0473 12.7817Z" fill="black"/>
</svg>
