<svg width="22" height="22" viewBox="0 0 22 22" fill="none" xmlns="http://www.w3.org/2000/svg">
<path d="M16.7325 5.73191C16.7325 2.57133 14.1611 0 11.0005 0C7.83994 0 5.26855 2.57133 5.26855 5.73191C5.26855 8.45893 7.18297 10.747 9.73835 11.3235V20.7378C9.73835 21.4337 10.3046 21.9999 11.0005 21.9999C11.6965 21.9999 12.2627 21.4337 12.2627 20.7378V20.3327H13.9617C14.4467 20.3327 14.8413 19.9584 14.8413 19.4984C14.8413 19.0383 14.4467 18.664 13.9617 18.664H13.9277C13.7661 18.664 13.6345 18.5325 13.6345 18.3708V17.9041C13.6345 17.7424 13.7661 17.6109 13.9277 17.6109H13.9617C14.4467 17.6109 14.8413 17.2366 14.8413 16.7765C14.8413 16.3165 14.4467 15.9422 13.9617 15.9422H12.2627V11.3236C14.8181 10.747 16.7325 8.45899 16.7325 5.73191ZM11.0005 8.95823C9.2187 8.95823 7.77421 7.51374 7.77421 5.73191C7.77421 3.95008 9.2187 2.5056 11.0005 2.5056C12.7824 2.5056 14.2268 3.95008 14.2268 5.73191C14.2268 7.51374 12.7824 8.95823 11.0005 8.95823Z" fill="black"/>
</svg>
