<svg xmlns="http://www.w3.org/2000/svg">

    <symbol id="type_admin" viewBox="0 0 22 22">
        <path d="M20.5652 8.6087h-1.7906c-.1502-.49022-.3467-.9637-.5854-1.4147l1.265-1.265c.2707-.2707.4199-.6313.4199-1.01535 0-.38356-.1492-.74417-.4199-1.01487L18.1007 2.5453c-.5409-.54091-1.4878-.54234-2.0297 0l-1.265 1.265c-.4505-.23865-.9245-.43473-1.4147-.58539V1.43478C13.3913.643739 12.7476 0 11.9565 0h-1.913c-.79107 0-1.4348.643739-1.4348 1.43478v1.79061c-.49022.15065-.9637.34674-1.4147.58539l-1.26548-1.265c-.55956-.55956-1.47017-.55956-2.02974 0L2.54483 3.89926c-.55909.55957-.55909 1.47017 0 2.02974l1.265 1.26548c-.23866.45052-.43474.92448-.5854 1.41469H1.43478C.643739 8.60917 0 9.25291 0 10.044v1.913c0 .7906.643739 1.4343 1.43478 1.4343h1.79061c.15065.4902.34674.9637.58539 1.4147l-1.265 1.2655c-.55956.5595-.55956 1.4702 0 2.0297l1.35348 1.354c.55957.5591 1.47017.5591 2.02974 0l1.26548-1.265c.45052.2386.92448.4347 1.41469.5854v1.7896c0 .7911.64374 1.4348 1.43483 1.4348h1.913c.791 0 1.4348-.6437 1.4348-1.4348v-1.7906c.4902-.1506.9642-.3467 1.4147-.5854l1.265 1.2655c.5423.5419 1.4893.5409 2.0297 0l1.3535-1.3535c.2707-.2707.4199-.6313.4199-1.0149 0-.384-.1492-.7441-.4199-1.0148l-1.265-1.2655c.2386-.4505.4347-.9245.5854-1.4147h1.7901c.7911 0 1.4348-.6437 1.4348-1.4348v-1.913c0-.79107-.6437-1.4348-1.4348-1.4348zm.4783 3.3478c0 .2635-.2143.4783-.4783.4783H18.413c-.218 0-.4084.1478-.4629.3587-.1693.6528-.4271 1.276-.7671 1.8518-.1105.188-.0804.4271.0736.5811l1.5209 1.5213c.0899.09.1396.21.1396.3386 0 .1287-.0497.2487-.1396.3387l-1.3535 1.3534c-.1798.1799-.4969.1799-.6772 0l-1.5209-1.5208c-.154-.1545-.3931-.1842-.5816-.0737-.5748.3396-1.198.5978-1.8513.7667-.2104.054-.3582.2444-.3582.4624v2.1522c0 .2635-.2143.4783-.4783.4783h-1.913c-.26354 0-.47828-.2148-.47828-.4783V18.413c0-.218-.14779-.4084-.3587-.4629-.65282-.1688-1.276-.4266-1.85182-.7667-.07557-.0449-.15927-.0664-.24296-.0664-.12387 0-.24631.0478-.33861.1401L5.25226 18.778c-.187.1865-.49022.1865-.67722 0l-1.35347-1.3535c-.187-.187-.187-.4907 0-.6772l1.52086-1.5209c.15448-.1545.18461-.3936.07366-.5811-.33957-.5758-.59783-1.1985-.76666-1.8518-.05404-.2109-.24439-.3587-.46247-.3587H1.43478c-.26352 0-.478258-.2148-.478258-.4783v-1.913c0-.26354.214738-.47828.478258-.47828h2.15218c.21808 0 .40843-.14779.46295-.3587.16883-.65282.42661-1.276.76666-1.85182.11095-.18796.08082-.42709-.07366-.58109L3.22204 5.25274c-.18652-.18652-.18652-.49022 0-.67722l1.35348-1.35348c.187-.187.49022-.18652.67722 0l1.52087 1.52087c.15448.15448.39313.18509.58109.07366.57582-.33957 1.19852-.59783 1.85182-.76666.21091-.05452.3587-.24487.3587-.46295V1.43478c0-.26352.21474-.478258.47828-.478258h1.913c.264 0 .4783.214738.4783.478258v2.15218c0 .21808.1478.40843.3587.46295.6533.16883 1.2765.42709 1.8513.76666.1885.11095.4276.0813.5816-.07366l1.5209-1.52087c.1803-.18078.4974-.1803.6772 0l1.3535 1.35348c.0899.08991.1396.21044.1396.33861 0 .12817-.0497.2487-.1396.33861l-1.5209 1.52087c-.154.15448-.1846.39361-.0737.58109.3401.57582.5979 1.19852.7672 1.85182.054.21091.2444.3587.4624.3587h2.1522c.264 0 .4783.21474.4783.47828v1.913z" fill="#000"/><path d="M10.9997 6.69568c-2.37317 0-4.30439 1.93121-4.30439 4.30432 0 2.3732 1.93122 4.3044 4.30439 4.3044 2.3736 0 4.3043-1.9312 4.3043-4.3044 0-2.37311-1.9307-4.30432-4.3043-4.30432zm0 7.65212c-1.84613 0-3.34787-1.5017-3.34787-3.3478 0-1.84606 1.50174-3.3478 3.34787-3.3478 1.8456 0 3.3478 1.50174 3.3478 3.3478 0 1.8461-1.5022 3.3478-3.3478 3.3478z" fill="#000"/>
    </symbol>

    <symbol id="type_gestionnaire" viewBox="0 0 22 22">
        <path d="M16.7325 5.73191C16.7325 2.57133 14.1611 0 11.0005 0 7.83994 0 5.26855 2.57133 5.26855 5.73191c0 2.72702 1.91442 5.01509 4.4698 5.59159v9.4143c0 .6959.56625 1.2621 1.26215 1.2621.696 0 1.2622-.5662 1.2622-1.2621v-.4051h1.699c.485 0 .8796-.3743.8796-.8343 0-.4601-.3946-.8344-.8796-.8344h-.034c-.1616 0-.2932-.1315-.2932-.2932v-.4667c0-.1617.1316-.2932.2932-.2932h.034c.485 0 .8796-.3743.8796-.8344 0-.46-.3946-.8343-.8796-.8343h-1.699v-4.6186c2.5554-.5766 4.4698-2.86461 4.4698-5.59169zm-5.732 3.22632c-1.7818 0-3.22629-1.44449-3.22629-3.22632 0-1.78183 1.44449-3.22631 3.22629-3.22631 1.7819 0 3.2263 1.44448 3.2263 3.22631 0 1.78183-1.4444 3.22632-3.2263 3.22632z" fill="#000"/>
    </symbol>

    <symbol id="type_insured" viewBox="0 0 22 22">
        <path d="M10.8863 10.5975c1.4559 0 2.7165-.5222 3.7467-1.55243 1.0299-1.03007 1.5522-2.29043 1.5522-3.7465 0-1.45556-.5221-2.71609-1.5524-3.74649C13.6026.52217 12.3421 0 10.8863 0 9.43025 0 8.16989.52217 7.13982 1.55224 6.10974 2.58232 5.5874 3.84284 5.5874 5.29857c0 1.45607.52234 2.7166 1.55242 3.74667 1.03041 1.02986 2.29094 1.55226 3.74648 1.55226zM8.05156 2.46382c.79039-.79039 1.71757-1.17459 2.83474-1.17459 1.117 0 2.0444.3842 2.835 1.17459.7903.79055 1.1747 1.7179 1.1747 2.83475 0 1.11719-.3844 2.04437-1.1747 2.83493-.7906.79056-1.718 1.17476-2.835 1.17476-1.11683 0-2.04402-.38437-2.83474-1.17476-.79056-.79039-1.17493-1.71774-1.17493-2.83493 0-1.11685.38437-2.0442 1.17493-2.83475zM20.1579 16.9169c-.0297-.4287-.0898-.8963-.1783-1.3901-.0893-.4975-.2042-.9678-.3419-1.3977-.1423-.4443-.3355-.883-.5747-1.3035-.2479-.4364-.5393-.8164-.8662-1.1291-.3419-.3271-.7606-.5901-1.2446-.782-.4824-.1908-1.017-.2875-1.5889-.2875-.2245 0-.4417.0921-.8612.3652-.2581.1684-.5601.3631-.8971.5784-.2882.1837-.6786.3557-1.1608.5115-.4705.1522-.9482.2294-1.4199.2294-.4713 0-.949-.0772-1.41978-.2294-.48172-.1556-.8723-.3277-1.15999-.5113-.33384-.2133-.63597-.408-.89798-.5787-.41911-.2731-.6363-.3653-.86088-.3653-.57202 0-1.10645.0969-1.58867.2879-.48373.1915-.90251.4545-1.24475.782-.32697.3128-.61835.6927-.86609 1.1289-.23885.4205-.4322.8591-.57454 1.3037-.13747.4298-.25244.9-.34173 1.3975-.08863.4931-.14855.9609-.17826 1.3906-.0292.4201-.04397.8573-.04397 1.2991 0 1.1484.36506 2.0781 1.08496 2.7638.711.6766 1.65161 1.0196 2.79582 1.0196H16.3216c1.1439 0 2.0845-.343 2.7956-1.0196.7201-.6852 1.0852-1.6152 1.0852-2.764-.0002-.4432-.0151-.8805-.0445-1.2994zm-1.9296 3.1293c-.4698.4471-1.0935.6645-1.9069.6645H5.72844c-.81355 0-1.43727-.2174-1.90691-.6643-.46074-.4386-.68464-1.0373-.68464-1.8299 0-.4122.01359-.8192.04078-1.21.02652-.3834.08074-.8045.16114-1.252.07939-.4419.18043-.8566.30061-1.2321.11531-.3601.27258-.7166.46762-1.06.18614-.3273.40031-.6081.63664-.8343.22106-.2117.49968-.3849.82799-.5148.30364-.1202.64487-.186 1.01531-.1959.04515.024.12554.0698.25579.1548.26503.1727.57051.3697.90822.5854.38068.2427.87113.4619 1.45708.6511.59904.1937 1.21003.292 1.81643.292s1.2176-.0983 1.8163-.2919c.5864-.1895 1.0767-.4085 1.4579-.6515.3456-.2209.6425-.4123.9075-.5851.1303-.0848.2107-.1308.2558-.1548.3706.0099.7119.0757 1.0157.1959.3281.1299.6067.3033.8278.5148.2363.2261.4505.5069.6366.8345.1952.3432.3527.6999.4678 1.0596.1204.376.2216.7906.3008 1.2322.0802.4483.1346.8696.1611 1.2523v.0003c.0274.3892.0412.7961.0413 1.2095-.0001.7927-.224 1.3913-.6848 1.8297z" fill="#000"/>
    </symbol>

    <symbol id="type_police" viewBox="0 0 22 22">
        <path d="M19.8659 9.20356c-.5714-1.71204-.5945-3.52928-.0668-5.2552l.5037-1.64756L18.002 0l-.4289.247629c-2.1029 1.214121-4.1475 1.214121-6.2504 0L11 .0613164l-.3228.1863126c-2.10284 1.214121-4.14742 1.214121-6.25031 0L3.99793 0 1.69712 2.30085 2.2008 3.9484c.5277 1.72588.50459 3.54316-.06681 5.25521-1.438296 4.30909.58953 8.99009 4.71676 10.88819L10.9999 22l4.1492-1.9082c4.1273-1.8981 6.1551-6.5791 4.7168-10.88824zm-5.2562 9.71534L11 20.579l-3.60977-1.6601c-3.52774-1.6224-5.26106-5.6233-4.03163-9.30662.65686-1.96818.68341-4.05719.07682-6.04136l-.27693-.90578 1.06137-1.06137c2.25187 1.14666 4.52895 1.12668 6.78004-.05999 2.2511 1.18663 4.5282 1.20665 6.7802.05999l1.0613 1.06137-.2769.90578c-.6066 1.98412-.58 4.07318.0768 6.04136 1.2295 3.68332-.5038 7.68422-4.0316 9.30662z" fill="#000"/><path d="M16.311 7.90184l-3.5222-.03175-1.7885-3.03446-1.78866 3.03446-3.52219.03175L7.42303 10.968l-1.73358 3.0663 3.52219.0317 1.78866 3.0345 1.7885-3.0345 3.5222-.0317-1.7336-3.0663 1.7336-3.06616zm-4.2637 4.87986l-1.047 1.7764-1.0471-1.7764-2.06207-.0186 1.01488-1.7951-1.01488-1.7951 2.06207-.01861 1.0471-1.77641 1.047 1.77641 2.0621.01861-1.0149 1.7951 1.0149 1.7951-2.0621.0186z" fill="#000"/>
    </symbol>

</svg>