<svg width="23" height="22" viewBox="0 0 23 22" fill="none" xmlns="http://www.w3.org/2000/svg">
<path d="M10.8863 10.5975C12.3422 10.5975 13.6028 10.0753 14.633 9.04507C15.6629 8.015 16.1852 6.75464 16.1852 5.29857C16.1852 3.84301 15.6631 2.58248 14.6328 1.55208C13.6026 0.52217 12.3421 0 10.8863 0C9.43025 0 8.16989 0.52217 7.13982 1.55224C6.10974 2.58232 5.5874 3.84284 5.5874 5.29857C5.5874 6.75464 6.10974 8.01517 7.13982 9.04524C8.17023 10.0751 9.43076 10.5975 10.8863 10.5975ZM8.05156 2.46382C8.84195 1.67343 9.76913 1.28923 10.8863 1.28923C12.0033 1.28923 12.9307 1.67343 13.7213 2.46382C14.5116 3.25437 14.896 4.18172 14.896 5.29857C14.896 6.41576 14.5116 7.34294 13.7213 8.1335C12.9307 8.92406 12.0033 9.30826 10.8863 9.30826C9.76947 9.30826 8.84228 8.92389 8.05156 8.1335C7.261 7.34311 6.87663 6.41576 6.87663 5.29857C6.87663 4.18172 7.261 3.25437 8.05156 2.46382Z" fill="black"/>
<path d="M20.1579 16.9169C20.1282 16.4882 20.0681 16.0206 19.9796 15.5268C19.8903 15.0293 19.7754 14.559 19.6377 14.1291C19.4954 13.6848 19.3022 13.2461 19.063 12.8256C18.8151 12.3892 18.5237 12.0092 18.1968 11.6965C17.8549 11.3694 17.4362 11.1064 16.9522 10.9145C16.4698 10.7237 15.9352 10.627 15.3633 10.627C15.1388 10.627 14.9216 10.7191 14.5021 10.9922C14.244 11.1606 13.942 11.3553 13.605 11.5706C13.3168 11.7543 12.9264 11.9263 12.4442 12.0821C11.9737 12.2343 11.496 12.3115 11.0243 12.3115C10.553 12.3115 10.0753 12.2343 9.60452 12.0821C9.1228 11.9265 8.73222 11.7544 8.44453 11.5708C8.11069 11.3575 7.80856 11.1628 7.54655 10.9921C7.12744 10.719 6.91025 10.6268 6.68567 10.6268C6.11365 10.6268 5.57922 10.7237 5.097 10.9147C4.61327 11.1062 4.19449 11.3692 3.85225 11.6967C3.52528 12.0095 3.2339 12.3894 2.98616 12.8256C2.74731 13.2461 2.55396 13.6847 2.41162 14.1293C2.27415 14.5591 2.15918 15.0293 2.06989 15.5268C1.98126 16.0199 1.92134 16.4877 1.89163 16.9174C1.86243 17.3375 1.84766 17.7747 1.84766 18.2165C1.84766 19.3649 2.21272 20.2946 2.93262 20.9803C3.64362 21.6569 4.58423 21.9999 5.72844 21.9999H16.3216C17.4655 21.9999 18.4061 21.6569 19.1172 20.9803C19.8373 20.2951 20.2024 19.3651 20.2024 18.2163C20.2022 17.7731 20.1873 17.3358 20.1579 16.9169ZM18.2283 20.0462C17.7585 20.4933 17.1348 20.7107 16.3214 20.7107H5.72844C4.91489 20.7107 4.29117 20.4933 3.82153 20.0464C3.36079 19.6078 3.13689 19.0091 3.13689 18.2165C3.13689 17.8043 3.15048 17.3973 3.17767 17.0065C3.20419 16.6231 3.25841 16.202 3.33881 15.7545C3.4182 15.3126 3.51924 14.8979 3.63942 14.5224C3.75473 14.1623 3.912 13.8058 4.10704 13.4624C4.29318 13.1351 4.50735 12.8543 4.74368 12.6281C4.96474 12.4164 5.24336 12.2432 5.57167 12.1133C5.87531 11.9931 6.21654 11.9273 6.58698 11.9174C6.63213 11.9414 6.71252 11.9872 6.84277 12.0722C7.1078 12.2449 7.41328 12.4419 7.75099 12.6576C8.13167 12.9003 8.62212 13.1195 9.20807 13.3087C9.80711 13.5024 10.4181 13.6007 11.0245 13.6007C11.6309 13.6007 12.2421 13.5024 12.8408 13.3088C13.4272 13.1193 13.9175 12.9003 14.2987 12.6573C14.6443 12.4364 14.9412 12.245 15.2062 12.0722C15.3365 11.9874 15.4169 11.9414 15.462 11.9174C15.8326 11.9273 16.1739 11.9931 16.4777 12.1133C16.8058 12.2432 17.0844 12.4166 17.3055 12.6281C17.5418 12.8542 17.756 13.135 17.9421 13.4626C18.1373 13.8058 18.2948 14.1625 18.4099 14.5222C18.5303 14.8982 18.6315 15.3128 18.7107 15.7544C18.7909 16.2027 18.8453 16.624 18.8718 17.0067V17.007C18.8992 17.3962 18.913 17.8031 18.9131 18.2165C18.913 19.0092 18.6891 19.6078 18.2283 20.0462Z" fill="black"/>
</svg>
