<svg width="807" height="446" viewBox="0 0 807 446" fill="none" xmlns="http://www.w3.org/2000/svg">
<g clip-path="url(#clip0)">
<path d="M513.168 382.15H69.1908C66.592 382.147 64.1005 381.114 62.2629 379.276C60.4253 377.438 59.3917 374.947 59.3887 372.348V113.882C59.3916 111.283 60.4252 108.792 62.2628 106.954C64.1005 105.117 66.592 104.083 69.1908 104.08H513.168C515.766 104.083 518.258 105.117 520.095 106.954C521.933 108.792 522.967 111.283 522.97 113.882V372.348C522.967 374.947 521.933 377.438 520.095 379.276C518.258 381.113 515.766 382.147 513.168 382.15Z" fill="#E6E6E6"/>
<path d="M540.845 418.324H41.5146V87.9355C41.5179 85.031 42.6732 82.2464 44.727 80.1926C46.7808 78.1388 49.5654 76.9835 52.4699 76.9802H529.889C532.794 76.9835 535.578 78.1388 537.632 80.1926C539.686 82.2464 540.841 85.031 540.845 87.9355V418.324ZM43.821 416.017H538.538V87.9355C538.536 85.6424 537.624 83.444 536.002 81.8225C534.381 80.2011 532.182 79.2891 529.889 79.2866H52.4699C50.1769 79.2891 47.9784 80.2011 46.357 81.8225C44.7356 83.444 43.8235 85.6424 43.821 87.9355V416.017Z" fill="#CCCCCC"/>
<path d="M291.18 96.0078C293.728 96.0078 295.793 93.9426 295.793 91.395C295.793 88.8475 293.728 86.7823 291.18 86.7823C288.633 86.7823 286.567 88.8475 286.567 91.395C286.567 93.9426 288.633 96.0078 291.18 96.0078Z" fill="#E6E6E6"/>
<path d="M402.462 327.298H179.897C177.298 327.295 174.807 326.262 172.969 324.424C171.131 322.586 170.098 320.095 170.095 317.496V168.735C170.098 166.136 171.131 163.645 172.969 161.807C174.807 159.97 177.298 158.936 179.897 158.933H402.462C405.061 158.936 407.552 159.97 409.39 161.807C411.227 163.645 412.261 166.136 412.264 168.735V317.496C412.261 320.095 411.227 322.586 409.39 324.424C407.552 326.262 405.061 327.295 402.462 327.298Z" fill="white"/>
<path d="M216.511 222.358C214.686 222.358 212.902 221.817 211.385 220.803C209.868 219.789 208.686 218.348 207.987 216.663C207.289 214.977 207.106 213.122 207.462 211.332C207.818 209.543 208.697 207.899 209.987 206.609C211.277 205.319 212.921 204.44 214.711 204.084C216.5 203.728 218.355 203.911 220.041 204.609C221.727 205.307 223.168 206.49 224.181 208.007C225.195 209.524 225.736 211.308 225.736 213.132C225.733 215.578 224.76 217.923 223.031 219.653C221.301 221.382 218.957 222.355 216.511 222.358Z" fill="#CCCCCC"/>
<path d="M216.511 252.341C214.686 252.341 212.902 251.799 211.385 250.786C209.868 249.772 208.686 248.331 207.987 246.646C207.289 244.96 207.106 243.105 207.462 241.315C207.818 239.526 208.697 237.882 209.987 236.592C211.277 235.301 212.921 234.423 214.711 234.067C216.5 233.711 218.355 233.894 220.041 234.592C221.727 235.29 223.168 236.473 224.181 237.99C225.195 239.507 225.736 241.29 225.736 243.115C225.733 245.561 224.76 247.906 223.031 249.635C221.301 251.365 218.957 252.338 216.511 252.341Z" fill="#FFE68E"/>
<path d="M216.511 282.323C214.686 282.323 212.902 281.782 211.385 280.769C209.868 279.755 208.686 278.314 207.987 276.628C207.289 274.943 207.106 273.088 207.462 271.298C207.818 269.509 208.697 267.865 209.987 266.575C211.277 265.284 212.921 264.406 214.711 264.05C216.5 263.694 218.355 263.876 220.041 264.575C221.727 265.273 223.168 266.455 224.181 267.973C225.195 269.49 225.736 271.273 225.736 273.098C225.733 275.544 224.76 277.889 223.031 279.618C221.301 281.348 218.957 282.321 216.511 282.323Z" fill="#FFE68E"/>
<path d="M260.332 205.637C258.344 205.637 256.437 206.426 255.031 207.832C253.626 209.238 252.836 211.144 252.836 213.132C252.836 215.12 253.626 217.027 255.031 218.433C256.437 219.838 258.344 220.628 260.332 220.628H367.578C369.566 220.628 371.473 219.838 372.878 218.433C374.284 217.027 375.074 215.12 375.074 213.132C375.074 211.144 374.284 209.238 372.878 207.832C371.473 206.426 369.566 205.637 367.578 205.637H260.332Z" fill="#CCCCCC"/>
<path d="M260.332 235.619C258.344 235.619 256.437 236.409 255.031 237.815C253.626 239.221 252.836 241.127 252.836 243.115C252.836 245.103 253.626 247.01 255.031 248.415C256.437 249.821 258.344 250.611 260.332 250.611H367.578C369.566 250.611 371.473 249.821 372.878 248.415C374.284 247.01 375.074 245.103 375.074 243.115C375.074 241.127 374.284 239.221 372.878 237.815C371.473 236.409 369.566 235.619 367.578 235.619H260.332Z" fill="#FFE68E"/>
<path d="M260.332 265.602C258.344 265.602 256.437 266.392 255.031 267.798C253.626 269.203 252.836 271.11 252.836 273.098C252.836 275.086 253.626 276.993 255.031 278.398C256.437 279.804 258.344 280.594 260.332 280.594H367.578C369.566 280.594 371.473 279.804 372.878 278.398C374.284 276.993 375.074 275.086 375.074 273.098C375.074 271.11 374.284 269.203 372.878 267.798C371.473 266.392 369.566 265.602 367.578 265.602H260.332Z" fill="#FFE68E"/>
<path d="M764.895 432.823L750.759 432.586L744.948 377.949L765.812 378.3L764.895 432.823Z" fill="#FFB8B8"/>
<path d="M740.73 428.377L767.992 428.835L767.704 446L723.277 445.254C723.315 442.999 723.796 440.775 724.694 438.707C725.592 436.639 726.888 434.768 728.508 433.201C730.129 431.633 732.043 430.401 734.14 429.573C736.237 428.746 738.476 428.339 740.73 428.377Z" fill="#2F2E41"/>
<path d="M624.614 432.694L611.509 427.39L625.733 374.318L645.075 382.148L624.614 432.694Z" fill="#FFB8B8"/>
<path d="M603.663 419.856L628.937 430.087L622.495 446L581.308 429.328C583.017 425.107 586.332 421.739 590.524 419.962C594.716 418.186 599.443 418.148 603.663 419.856Z" fill="#2F2E41"/>
<path d="M671.863 228.245L630.349 337.798L613.051 413.908L631.502 423.134L715.684 259.381L746.82 423.71H765.271C765.271 423.71 773.708 228.805 761.418 213.534L671.863 228.245Z" fill="#2F2E41"/>
<path d="M620.397 348.191C638.339 348.191 652.884 333.646 652.884 315.704C652.884 297.761 638.339 283.216 620.397 283.216C602.454 283.216 587.909 297.761 587.909 315.704C587.909 333.646 602.454 348.191 620.397 348.191Z" fill="#FFE68E"/>
<path d="M617.689 330.069L607.378 316.81L613.375 312.147L618.256 318.424L634.749 301.014L640.264 306.239L617.689 330.069Z" fill="white"/>
<path d="M692.044 76.601C713.062 76.601 730.1 59.5631 730.1 38.5459C730.1 17.5286 713.062 0.490692 692.044 0.490692C671.027 0.490692 653.989 17.5286 653.989 38.5459C653.989 59.5631 671.027 76.601 692.044 76.601Z" fill="#2F2E41"/>
<path d="M638.935 297.504C640.556 296.697 641.981 295.544 643.109 294.127C644.237 292.71 645.04 291.063 645.463 289.302C645.885 287.541 645.916 285.708 645.554 283.934C645.191 282.159 644.444 280.486 643.365 279.032L672.233 119.269L645.294 118.914L625.247 276.898C622.924 278.873 621.406 281.632 620.98 284.651C620.555 287.67 621.252 290.741 622.939 293.281C624.626 295.821 627.186 297.653 630.135 298.432C633.083 299.21 636.214 298.88 638.935 297.504H638.935Z" fill="#FFB8B8"/>
<path d="M804.359 266.299C805.376 264.749 806.033 262.99 806.28 261.152C806.527 259.314 806.359 257.444 805.787 255.68C805.215 253.916 804.255 252.303 802.977 250.96C801.698 249.616 800.135 248.577 798.402 247.918L746.853 122.705C745.591 119.64 743.677 116.888 741.244 114.638C738.811 112.388 735.916 110.696 732.762 109.679C729.608 108.661 726.271 108.343 722.982 108.746C719.692 109.15 716.53 110.265 713.716 112.014L781.992 255.887C781.112 258.761 781.301 261.856 782.523 264.601C783.746 267.347 785.92 269.557 788.645 270.826C791.37 272.094 794.461 272.334 797.349 271.502C800.237 270.671 802.726 268.822 804.359 266.299V266.299Z" fill="#FFB8B8"/>
<path d="M692.798 81.207C708.441 81.207 721.122 68.5261 721.122 52.8835C721.122 37.2409 708.441 24.5601 692.798 24.5601C677.155 24.5601 664.475 37.2409 664.475 52.8835C664.475 68.5261 677.155 81.207 692.798 81.207Z" fill="#FFB8B8"/>
<path d="M658.357 97.6666C674.694 90.8656 702.897 84.1441 734.215 98.794C737.88 100.503 741.142 102.967 743.788 106.025C746.433 109.083 748.402 112.666 749.565 116.538L762.966 161.36L745.668 178.658L761.812 214.407C761.812 214.407 700.117 251.885 672.44 228.822L655.719 169.433L633.809 163.667L641.284 119.257C642.072 114.508 644.052 110.037 647.038 106.261C650.024 102.485 653.918 99.5284 658.357 97.6666Z" fill="#CCCCCC"/>
<path d="M666.307 31.938C677.368 38.6903 689.838 42.7991 702.746 43.9449L698.905 39.3425C701.702 40.3766 704.645 40.961 707.625 41.074C709.117 41.1172 710.598 40.8101 711.949 40.1775C713.301 39.5448 714.486 38.6041 715.408 37.4308C716.162 36.2125 716.609 34.83 716.713 33.4013C716.816 31.9726 716.573 30.5401 716.003 29.2259C714.832 26.6046 713.01 24.3265 710.71 22.6083C706.634 19.3835 701.823 17.2174 696.706 16.3029C691.589 15.3884 686.325 15.754 681.384 17.3672C677.995 18.3801 674.959 20.3274 672.625 22.9858C671.478 24.3249 670.681 25.9279 670.306 27.651C669.931 29.3741 669.99 31.1633 670.477 32.858" fill="#2F2E41"/>
<path d="M661.01 6.73574C660.549 1.89235 654.616 -1.08943 649.976 0.373605C645.336 1.83664 642.289 6.50869 641.368 11.286C640.925 13.2979 640.884 15.3775 641.246 17.4056C641.608 19.4336 642.367 21.3702 643.479 23.1044C644.629 24.8165 646.246 26.1625 648.139 26.9824C650.031 27.8023 652.119 28.0616 654.155 27.7294C658.744 26.7512 661.923 22.2703 662.833 17.6672C663.743 13.0641 662.839 8.3184 661.937 3.71379" fill="#2F2E41"/>
<path d="M739.427 9.0421C738.966 4.19872 733.033 1.21693 728.393 2.67997C723.752 4.14301 720.706 8.81505 719.785 13.5923C719.342 15.6043 719.301 17.6839 719.663 19.7119C720.025 21.74 720.784 23.6766 721.896 25.4107C723.046 27.1229 724.663 28.4689 726.556 29.2888C728.448 30.1086 730.536 30.3679 732.572 30.0358C737.161 29.0576 740.34 24.5767 741.25 19.9736C742.159 15.3705 741.256 10.6248 740.354 6.02016" fill="#2F2E41"/>
<path d="M549.494 403.332H529.313V399.873C529.313 398.649 528.827 397.476 527.962 396.611C527.097 395.746 525.923 395.26 524.7 395.26H500.483C499.26 395.26 498.086 395.746 497.221 396.611C496.356 397.476 495.87 398.649 495.87 399.873V403.332H492.411V399.873C492.411 398.649 491.925 397.476 491.06 396.611C490.195 395.746 489.021 395.26 487.798 395.26H463.581C462.358 395.26 461.184 395.746 460.319 396.611C459.454 397.476 458.968 398.649 458.968 399.873V403.332H455.509V399.873C455.509 398.649 455.023 397.476 454.158 396.611C453.293 395.746 452.119 395.26 450.896 395.26H426.679C425.456 395.26 424.283 395.746 423.417 396.611C422.552 397.476 422.066 398.649 422.066 399.873V403.332H418.607V399.873C418.607 398.649 418.121 397.476 417.256 396.611C416.391 395.746 415.217 395.26 413.994 395.26H389.777C388.554 395.26 387.381 395.746 386.515 396.611C385.65 397.476 385.164 398.649 385.164 399.873V403.332H381.705V399.873C381.705 398.649 381.219 397.476 380.354 396.611C379.489 395.746 378.315 395.26 377.092 395.26H352.875C351.652 395.26 350.479 395.746 349.613 396.611C348.748 397.476 348.262 398.649 348.262 399.873V403.332H344.803V399.873C344.803 398.649 344.317 397.476 343.452 396.611C342.587 395.746 341.414 395.26 340.19 395.26H315.973C314.75 395.26 313.577 395.746 312.712 396.611C311.846 397.476 311.36 398.649 311.36 399.873V403.332H307.901V399.873C307.901 398.649 307.415 397.476 306.55 396.611C305.685 395.746 304.512 395.26 303.288 395.26H279.071C277.848 395.26 276.675 395.746 275.81 396.611C274.944 397.476 274.458 398.649 274.458 399.873V403.332H270.999V399.873C270.999 398.649 270.513 397.476 269.648 396.611C268.783 395.746 267.61 395.26 266.386 395.26H242.169C240.946 395.26 239.773 395.746 238.908 396.611C238.042 397.476 237.557 398.649 237.557 399.873V403.332H234.097V399.873C234.097 398.649 233.611 397.476 232.746 396.611C231.881 395.746 230.708 395.26 229.484 395.26H205.267C204.044 395.26 202.871 395.746 202.006 396.611C201.141 397.476 200.655 398.649 200.655 399.873V403.332H197.195V399.873C197.195 398.649 196.709 397.476 195.844 396.611C194.979 395.746 193.806 395.26 192.582 395.26H168.365C167.142 395.26 165.969 395.746 165.104 396.611C164.239 397.476 163.753 398.649 163.753 399.873V403.332H160.293V399.873C160.293 398.649 159.807 397.476 158.942 396.611C158.077 395.746 156.904 395.26 155.68 395.26H131.463C130.24 395.26 129.067 395.746 128.202 396.611C127.337 397.476 126.851 398.649 126.851 399.873V403.332H123.391V399.873C123.391 398.649 122.905 397.476 122.04 396.611C121.175 395.746 120.002 395.26 118.778 395.26H94.5613C93.338 395.26 92.1647 395.746 91.2996 396.611C90.4346 397.476 89.9486 398.649 89.9486 399.873V403.332H86.489V399.873C86.489 398.649 86.003 397.476 85.138 396.611C84.2729 395.746 83.0996 395.26 81.8763 395.26H57.6593C56.436 395.26 55.2627 395.746 54.3976 396.611C53.5326 397.476 53.0466 398.649 53.0466 399.873V403.332H32.8658C24.1492 403.332 15.7897 406.795 9.62616 412.958C3.46264 419.122 0 427.481 0 436.198V436.198C0 438.798 1.03272 441.291 2.87097 443.129C4.70921 444.967 7.20241 446 9.80209 446H572.557C575.157 446 577.65 444.967 579.488 443.129C581.327 441.291 582.359 438.798 582.359 436.198V436.198C582.359 427.481 578.897 419.122 572.733 412.958C566.57 406.795 558.21 403.332 549.494 403.332Z" fill="#3F3D56"/>
</g>
<defs>
<clipPath id="clip0">
<rect width="806.363" height="446" fill="white"/>
</clipPath>
</defs>
</svg>
