<svg xmlns="http://www.w3.org/2000/svg">

    <symbol id="illustration_add_images" viewBox="0 0 255 200">
        <path d="M46.3908 23.5892c-.4781.0526-.9388.209-1.3496.4583-.4109.2492-.7619.5852-1.0284.9843-.2665.3991-.4419.8516-.514 1.3256-.072.474-.0389.958.097 1.4179l-9.5123 6.7754 5.67 2.1749 8.1638-6.7674c.7599-.2788 1.3909-.8257 1.7733-1.5372.3824-.7115.4896-1.5381.3015-2.3231-.1882-.7851-.6587-1.4741-1.3225-1.9365-.6637-.4623-1.4745-.6659-2.2788-.5722z" fill="#FFB8B8"/>
        <path d="M45.5064 33.7943L33.7073 45.628c-1.617 1.6113-3.7493 2.607-6.0263 2.8142l-14.5797 1.326c-.5345.0508-1.0738-.0057-1.586-.1662-.5123-.1604-.987-.4216-1.3963-.768-.56617-.4724-.98719-1.0944-1.21468-1.7945-.2275-.7002-.25223-1.4501-.07137-2.1636.18086-.7135.55998-1.3617 1.09381-1.8701.53384-.5084 1.20074-.8564 1.92404-1.0041l14.8948-3.1612 13.5607-9.9638c.1885-.1057.4015-.1605.6178-.1589.2163.0016.4285.0596.6154.1681l3.6878 3.0112c.2219.1212.4001.3086.5097.5359.1096.2273.145.4831.1013.7315-.043.239-.1589.4589-.3319.6298z" fill="#2F2E41"/>
        <path d="M186.969 40.1538c.088-.8078-.076-1.623-.469-2.3348-.394-.7118-.997-1.2856-1.729-1.6435L111.341.401931c-.467-.227716-.975-.3615264-1.493-.39378751-.519-.03226109-1.039.03765611-1.531.20576151-.492.168104-.946.431106-1.335.773985-.39.34288-.708.75892-.937 1.22437l-.001.00275L78.5029 58.3825c-.4597.9409-.5263 2.0249-.1854 3.0147.341.9897 1.0618 1.8042 2.0043 2.2651l73.4302 35.7736c.944.4582 2.032.5246 3.024.1847.993-.3399 1.811-1.0583 2.273-1.9978l27.541-56.1675c.201-.4086.329-.849.379-1.3015z" fill="#F2F2F2"/>
        <path d="M143.951 164.818H48.6714c-1.1995-.001-2.3496-.477-3.1978-1.322-.8482-.846-1.3253-1.992-1.3266-3.188V31.38c.0013-1.1957.4784-2.342 1.3266-3.1875.8482-.8455 1.9983-1.321 3.1978-1.3224h95.2796c1.199.0014 2.349.4769 3.198 1.3224.848.8455 1.325 1.9918 1.326 3.1875v128.928c-.001 1.196-.478 2.342-1.326 3.188-.849.845-1.999 1.321-3.198 1.322z" fill="#fff"/>
        <path d="M73.9428 65.3156c3.4331 0 6.2162-2.7741 6.2162-6.1961 0-3.4221-2.7831-6.1962-6.2162-6.1962-3.4332 0-6.2162 2.7741-6.2162 6.1962 0 3.422 2.783 6.1961 6.2162 6.1961zM64.4688 76.0544c.8783.4977 1.7976.92 2.7478 1.2623l.1679.0579c1.914.6698 3.9281 1.0108 5.9566 1.0085.4082 0 .8013-.0142 1.1686-.0419.8939-.0546 1.7823-.1767 2.6577-.3653.4803-.1046.9592-.2298 1.4225-.3715.1121-.0329.2159-.0653.3294-.1008 1.8883-.6102 3.6627-1.5267 5.2517-2.7125-.1275-.2405-.2672-.4744-.4184-.7008-.8171-1.2444-1.9325-2.266-3.2455-2.9725-1.3129-.7064-2.7819-1.0753-4.2739-1.0734h-3.2716c-1.7257.0004-3.4149.4951-4.8665 1.4252-1.4516.9302-2.6044 2.2566-3.3211 3.8213-.1146.2492-.2164.5041-.3052.7635z" fill="#E6E6E6"/>
        <path d="M76.0521 77.8212c-.2088.0154-.4097.0856-.5824.2036.8772-.0544 1.7489-.175 2.6078-.3607l-2.0254.1571z" fill="#2F2E41"/>
        <path d="M74.3196 42.3052c-4.0036.0004-7.8951 1.3181-11.0704 3.7487-3.1754 2.4305-5.457 5.8379-6.4907 9.6932-1.0337 3.8554-.7617 7.9431.7738 11.6285 1.5355 3.6855 4.2486 6.7627 7.7181 8.754.9211.5316 1.8879.9801 2.889 1.3403l.1701.0587c1.9311.6758 3.9634 1.0199 6.0101 1.0175.3959 0 .7917-.0131 1.181-.0424.9013-.0552 1.797-.1784 2.6795-.3685.4941-.1076.9784-.2348 1.4364-.3751.1111-.0326.2158-.0652.3303-.1011 4.1148-1.3359 7.6166-4.091 9.8759-7.77 2.2593-3.6791 3.128-8.0408 2.4499-12.301-.6781-4.2603-2.8586-8.1398-6.1493-10.9412-3.2908-2.8013-7.4761-4.3408-11.8037-4.3416zm10.5478 31.6949c-1.5683 1.2063-3.3336 2.1341-5.2182 2.7426-.1014.0326-.2062.0652-.3109.0978-.4351.1337-.8931.2511-1.3642.3522-.835.1816-1.6826.2994-2.5356.3522-.3697.0261-.746.0391-1.1189.0391-1.9373.0012-3.8609-.3241-5.6895-.962l-.1602-.0555c-.9958-.3566-1.9554-.8065-2.8661-1.3435-3.1717-1.8613-5.6608-4.6874-7.1016-8.0633-1.4409-3.3758-1.7574-7.1233-.9031-10.6918.8542-3.5684 2.8343-6.7696 5.6491-9.1333 2.8148-2.3636 6.316-3.7649 9.9891-3.9981 3.6731-.2332 7.3243.7141 10.4172 2.7027 3.0929 1.9885 5.4644 4.9135 6.766 8.3451 1.3015 3.4316 1.4645 7.1888.465 10.7196-.9996 3.5308-3.1089 6.6489-6.0181 8.8961v.0001z" fill="#CCC"/>
        <path d="M143.951 164.818H48.6714c-1.1995-.001-2.3496-.477-3.1978-1.322-.8482-.846-1.3253-1.992-1.3266-3.188V31.38c.0013-1.1957.4784-2.342 1.3266-3.1875.8482-.8455 1.9983-1.321 3.1978-1.3224h95.2796c1.199.0014 2.349.4769 3.198 1.3224.848.8455 1.325 1.9918 1.326 3.1875v128.928c-.001 1.196-.478 2.342-1.326 3.188-.849.845-1.999 1.321-3.198 1.322zM48.6714 27.4007c-1.0584.0012-2.0731.4208-2.8215 1.1668-.7485.746-1.1694 1.7575-1.1706 2.8125v128.928c.0012 1.055.4221 2.067 1.1706 2.813.7484.746 1.7631 1.165 2.8215 1.167h95.2796c1.058-.002 2.073-.421 2.821-1.167.749-.746 1.17-1.758 1.171-2.813V31.38c-.001-1.055-.422-2.0665-1.171-2.8125-.748-.746-1.763-1.1656-2.821-1.1668H48.6714z" fill="#CCC"/>
        <path d="M125.506 60.3556H98.545c-.5657 0-1.1082-.224-1.5082-.6227-.4-.3987-.6247-.9395-.6247-1.5034 0-.5638.2247-1.1046.6247-1.5033.4-.3987.9425-.6227 1.5082-.6227h26.961c.565 0 1.108.224 1.508.6227.4.3987.625.9395.625 1.5033 0 .5639-.225 1.1047-.625 1.5034-.4.3987-.943.6227-1.508.6227zM134.304 67.5309H98.545c-.5657 0-1.1082-.224-1.5082-.6227-.4-.3987-.6247-.9395-.6247-1.5034 0-.5638.2247-1.1046.6247-1.5033.4-.3987.9425-.6227 1.5082-.6227h35.759c.566 0 1.108.224 1.508.6227.4.3987.625.9395.625 1.5033 0 .5639-.225 1.1047-.625 1.5034-.4.3987-.942.6227-1.508.6227zM125.466 95.0514H58.318c-.5657 0-1.1082-.224-1.5082-.6227-.4-.3987-.6247-.9395-.6247-1.5034 0-.5638.2247-1.1046.6247-1.5033.4-.3987.9425-.6227 1.5082-.6227h67.148c.566 0 1.109.224 1.509.6227.4.3987.624.9395.624 1.5033 0 .5639-.224 1.1047-.624 1.5034-.4.3987-.943.6227-1.509.6227zM134.265 102.226H58.318c-.5657 0-1.1082-.224-1.5082-.623-.4-.398-.6247-.939-.6247-1.503 0-.5637.2247-1.1045.6247-1.5032.4-.3987.9425-.6227 1.5082-.6227h75.947c.565 0 1.108.224 1.508.6227.4.3987.625.9395.625 1.5032 0 .564-.225 1.105-.625 1.503-.4.399-.943.623-1.508.623zM125.466 118.718H58.318c-.5657 0-1.1082-.224-1.5082-.623-.4-.399-.6247-.939-.6247-1.503s.2247-1.105.6247-1.503c.4-.399.9425-.623 1.5082-.623h67.148c.566 0 1.109.224 1.509.623.4.398.624.939.624 1.503s-.224 1.104-.624 1.503c-.4.399-.943.623-1.509.623zM134.265 125.894H58.318c-.5657 0-1.1082-.224-1.5082-.623-.4-.399-.6247-.94-.6247-1.503 0-.564.2247-1.105.6247-1.504.4-.398.9425-.622 1.5082-.622h75.947c.565 0 1.108.224 1.508.622.4.399.625.94.625 1.504 0 .563-.225 1.104-.625 1.503-.4.399-.943.623-1.508.623zM125.466 142.385H58.318c-.5657 0-1.1082-.224-1.5082-.623-.4-.399-.6247-.939-.6247-1.503s.2247-1.105.6247-1.504c.4-.398.9425-.622 1.5082-.622h67.148c.566 0 1.109.224 1.509.622.4.399.624.94.624 1.504 0 .564-.224 1.104-.624 1.503-.4.399-.943.623-1.509.623zM134.265 149.561H58.318c-.5657 0-1.1082-.224-1.5082-.623-.4-.399-.6247-.94-.6247-1.503 0-.564.2247-1.105.6247-1.504.4-.398.9425-.622 1.5082-.622h75.947c.565 0 1.107.225 1.506.623.4.399.624.939.624 1.503 0 .563-.224 1.103-.624 1.502-.399.399-.941.623-1.506.624z" fill="#E6E6E6"/>
        <path d="M183.697 77.0049c.088-.8079-.076-1.6231-.469-2.3348-.393-.7118-.997-1.2856-1.728-1.6435L108.069 37.253c-.467-.2277-.974-.3615-1.493-.3938-.519-.0322-1.039.0377-1.531.2058-.491.1681-.945.4311-1.335.774-.39.3428-.708.7589-.936 1.2243l-.002.0028-27.5406 56.1675c-.4597.9408-.5263 2.0249-.1854 3.0146.341.9897 1.0618 1.8048 2.0043 2.2648l73.4307 35.774c.943.458 2.031.525 3.024.185.993-.34 1.81-1.059 2.272-1.998l27.541-56.1677c.202-.4086.33-.849.379-1.3014z" fill="#fff"/><path d="M183.697 77.0049c.088-.8079-.076-1.6231-.469-2.3348-.393-.7118-.997-1.2856-1.728-1.6435L108.069 37.253c-.467-.2277-.974-.3615-1.493-.3938-.519-.0322-1.039.0377-1.531.2058-.491.1681-.945.4311-1.335.774-.39.3428-.708.7589-.936 1.2243l-.002.0028-27.5406 56.1675c-.4597.9408-.5263 2.0249-.1854 3.0146.341.9897 1.0618 1.8048 2.0043 2.2648l73.4307 35.774c.943.458 2.031.525 3.024.185.993-.34 1.81-1.059 2.272-1.998l27.541-56.1677c.202-.4086.33-.849.379-1.3014zM155.359 134.27c-.408.829-1.129 1.463-2.005 1.763-.876.3-1.836.241-2.669-.163l-73.4301-35.774c-.8318-.4064-1.4679-1.1251-1.7687-1.9984-.3009-.8733-.242-1.83.1638-2.6601L103.191 39.27c.408-.8291 1.129-1.4631 2.005-1.763.876-.2999 1.836-.2412 2.669.1632l73.43 35.7736c.832.4065 1.468 1.1252 1.769 1.9986.301.8733.242 1.8299-.164 2.66L155.359 134.27z" fill="#3F3D56"/>
        <path d="M175.688 79.5589l-19.231 39.2201c-.128.262-.356.462-.632.557-.277.095-.579.076-.842-.052L88.1882 86.7432c-.0478-.0228-.0935-.0496-.1366-.0802-.2191-.1486-.377-.3709-.4449-.6262-.068-.2552-.0413-.5264.075-.7636l19.2313-39.2201c.063-.1297.152-.2456.26-.3411.109-.0956.235-.1689.372-.2158s.282-.0665.426-.0576c.145.0089.286.046.416.1094l66.795 32.5409c.262.1279.463.3545.558.6301.095.2755.077.5774-.052.8393v.0006z" fill="#E6E6E6"/><path d="M117.047 77.5669c5.343 0 9.674-4.3169 9.674-9.6421 0-5.3252-4.331-9.6421-9.674-9.6421-5.342 0-9.673 4.3169-9.673 9.6421 0 5.3252 4.331 9.6421 9.673 9.6421z" fill="#FFE68E"/>
        <path d="M131.211 107.898L88.5765 87.1273c-.0537-.0253-.105-.0555-.1532-.0902l37.2347-24.9909c.23-.1568.497-.2502.774-.2705.278-.0203.555.0331.805.1549.25.1217.463.3074.618.5381.154.2307.244.4981.261.7748l2.077 29.956.1 1.4338.918 13.2647z" fill="#3F3D56"/><path opacity=".2" d="M131.211 107.897l-14.557-7.091 12.219-6.8649.88-.4944.44-.2475.1 1.4336.918 13.2642z" fill="#000"/><path d="M154.949 119.463l-36.875-17.965 12.219-6.865.88-.4947 15.922-8.9464c1.044-.5862 2.539.0742 2.879 1.1959.022.0761.039.1536.052.232l4.923 32.8432z" fill="#3F3D56"/>
        <path d="M41.1724 122.885h4.0107l1.9084-15.421h-5.9201l.001 15.421z" fill="#FFB8B8"/>
        <path d="M40.1489 121.58h7.8994c.6611 0 1.3157.13 1.9265.382.6107.252 1.1657.622 1.6331 1.088.4675.466.8383 1.019 1.0912 1.628.253.608.3832 1.261.3832 1.92v.163H40.1492l-.0003-5.181z" fill="#2F2E41"/><path d="M9.99561 120.34l4.15569.81 5.113-15.591-6.1331-1.196-3.13559 15.977z" fill="#FFB8B8"/><path d="M9.2008 118.781l8.1839 1.596h.0003c.6849.134 1.3367.4 1.9182.785.5815.385 1.0813.88 1.4709 1.457.3895.577.6612 1.225.7995 1.907.1383.682.1405 1.384.0065 2.067l-.0332.169-13.39944-2.613 1.05334-5.368z" fill="#2F2E41"/><path d="M47.008 69.6902c-.1358-.4599-.3711-.8846-.6893-1.244-.3183-.3595-.7117-.645-1.1527-.8365-.4409-.1915-.9186-.2843-1.3994-.2718-.4808.0124-.953.1298-1.3834.3438l-8.3605-8.1461-1.1536 5.9457 8.1162 6.8241c.4086.6968 1.0595 1.22 1.8293 1.4705.7698.2504 1.605.2107 2.3474-.1116.7424-.3224 1.3404-.905 1.6806-1.6375.3402-.7324.3991-1.5638.1654-2.3366zM15.9887 27.761c4.438 0 8.0356-3.586 8.0356-8.0096 0-4.4237-3.5976-8.0097-8.0356-8.0097-4.4379 0-8.03558 3.586-8.03558 8.0097 0 4.4236 3.59768 8.0096 8.03558 8.0096z" fill="#FFB8B8"/>
        <path d="M14.3013 27.8836c.4269.1862 1.3013-3.2048.9096-3.8831-.5824-1.0086-.548-1.0014-.9346-1.6687-.3867-.6673-.4732-1.5807.0275-2.1679.5007-.5871 1.6594-.5092 1.8879.227-.147-1.3984 1.2406-2.5224 2.615-2.8382 1.3745-.3159 2.8243-.1198 4.2064-.4009 1.6039-.3262 3.2727-1.6663 2.6327-3.4244-.1098-.2927-.2742-.562-.4845-.7938-.7394-.8286-1.7737-1.1825-2.7849-1.5246-2.1037-.7117-4.2649-1.43236-6.4852-1.3538-1.8293.0954-3.591.7202-5.0696 1.798-1.47865 1.0779-2.60997 2.562-3.25556 4.2707-.15301.4275-.27154.8665-.35447 1.3127-.76205 4.0843 1.61742 8.113 5.48213 9.6683l1.6076.7787zM12.3286 71.8837c-.2049-.1235-.3692-.304-.4725-.5194-.1034-.2153-.1413-.4561-.1091-.6927l-3.62606-17.904-3.67552-13.7407h.00007c-.40351-1.5056-.28164-3.1033.34561-4.5308.62725-1.4275 1.72263-2.6001 3.10644-3.3255l2.42986-2.2917 5.3009 2.2764 2.5189 2.5529c1.8066.8768 3.4092 2.1207 4.7048 3.6518 1.2956 1.5311 2.2554 3.3154 2.8178 5.2382l4.04 13.7799 9.33 13.8359c.1558.2306.2286.5069.2067.7841-.022.2771-.1374.5386-.3276.742-1.2979 1.3917-26.5903.1436-26.5903.1436z" fill="#2F2E41"/><path d="M36.7726 70.6119L23.015 61.1091c-1.8752-1.3042-3.2327-3.2219-3.8367-5.4201l-3.8671-14.0747c-.144-.5156-.1828-1.0547-.1142-1.5855.0686-.5308.2433-1.0426.5137-1.5049.3672-.6385.9077-1.1608 1.5593-1.5068.6516-.3461 1.3879-.5019 2.1244-.4496.7365.0523 1.4432.3107 2.039.7453.5958.4347 1.0565 1.0281 1.3292 1.712l5.7351 14.062 12.2197 11.5595c.1376.1665.229.3659.2654.5784.0363.2126.0163.4309-.0581.6334l-2.3272 4.1471c-.0808.239-.2346.4468-.4399.5942-.2053.1474-.4517.2271-.7047.2278-.2436-.0003-.4811-.0755-.6803-.2153z" fill="#2F2E41"/><path d="M8.19102 117.953c-.11247-.16-.1845-.346-.20998-.54-.02548-.194-.00368-.392.06357-.576l6.36459-23.0623.4705-22.598 21.4251-1.4646.104-.007 6.4531 11.6582c2.0203 3.6449 3.2571 7.6693 3.6316 11.8168l2.1266 23.2289c.0322.316-.0612.631-.2601.879s-.4873.408-.8034.446l-6.4601.613c-.3113.038-.625-.047-.8743-.237-.2493-.189-.4145-.469-.4602-.778l-2.6233-23.6048L27.7 77.8308l-3.1683 16.7356-6.5639 23.1116c-.0858.23-.24.43-.4421.571-.2021.141-.4425.218-.6893.22l-7.65583.003c-.19491.001-.38708-.046-.55962-.136-.17253-.091-.32016-.222-.42993-.383z" fill="#2F2E41"/><path d="M172.243 193.804H10.7966c-2.86247-.003-5.60674-1.138-7.63079-3.156C1.14176 188.631.0032334 185.895 0 183.042V94.6655c.0032334-2.8532 1.14176-5.5886 3.16581-7.6061s4.76832-3.1524 7.63079-3.1556h19.7945c2.6858-.0023 5.2756.9956 7.2616 2.7979l21.466 15.2783c1.3995 1.275 3.2272 1.981 5.123 1.98H173.245c1.431 0 2.848.283 4.168.834 1.32.551 2.517 1.358 3.522 2.374 1.004 1.016 1.796 2.221 2.329 3.544.534 1.324.797 2.74.776 4.167l-1.002 68.32c-.053 2.823-1.212 5.513-3.23 7.495-2.017 1.982-4.733 3.098-7.565 3.11z" fill="#fff"/><path d="M170.808 188.586H11.7518c-1.3809-.002-2.70472-.549-3.68114-1.522-.97641-.974-1.52564-2.293-1.5272-3.67V93.5729c.00156-1.3764.5508-2.696 1.52721-3.6693.97641-.9732 2.30023-1.5207 3.68113-1.5223 1.2213.0014 2.3923.4856 3.2559 1.3465.8636.8608 1.3494 2.028 1.3508 3.2454v84.2248c.0015 1.29.5162 2.527 1.4313 3.439.9151.912 2.1558 1.425 3.4499 1.427H170.271c.741-.008 1.462.231 2.05.679.588.449 1.009 1.081 1.194 1.795.208.678.182 1.405-.073 2.066-.256.661-.726 1.218-1.336 1.582-.387.251-.836.389-1.298.4z" fill="#F2F2F2"/><path d="M92.7271 145.45l-.4188-.417c-.0867-.081-.1377-.193-.1416-.312-.0039-.118.0396-.233.1209-.32.0067-.007.0136-.014.0207-.02l3.6742-3.666c.0402-.043.0885-.077.1421-.101.0536-.025.1115-.038.1703-.04.0588-.002.1175.008.1726.028.0551.021.1055.052.1485.092.0072.007.0141.014.0208.021l3.6742 3.662c.043.042.077.091.101.146.024.054.037.113.038.173.001.059-.01.118-.032.174-.022.055-.054.105-.096.148l-.011.012-.4189.417c-.0415.043-.091.077-.1458.101-.0547.024-.1136.036-.1734.037-.0597.001-.119-.009-.1746-.031-.0555-.022-.1062-.054-.1492-.096l-.0113-.011-2.1724-2.283v5.417c.0004.059-.0108.118-.0331.172-.0223.055-.0552.105-.0968.147-.0417.042-.0912.076-.1458.099-.0546.023-.1132.035-.1725.035H96.0086c-.1206 0-.2362-.048-.3215-.133-.0853-.085-.1332-.2-.1332-.32v-5.41l-2.1724 2.283c-.0842.086-.1993.135-.3199.136-.1206.002-.2369-.044-.3232-.128l-.0113-.012z" fill="#FFE68E"/><path d="M96.3034 137.386c1.4747 0 2.9163.435 4.1426 1.252 1.226.817 2.182 1.977 2.746 3.336.564 1.358.712 2.852.424 4.294-.287 1.441-.998 2.766-2.04 3.805-1.043 1.039-2.3716 1.747-3.818 2.034-1.4463.287-2.9455.14-4.308-.423-1.3624-.562-2.5269-1.515-3.3462-2.737-.8193-1.222-1.2566-2.659-1.2566-4.129.0018-1.971.7879-3.86 2.1858-5.254 1.3979-1.393 3.2934-2.177 5.2704-2.178zm0-.979c-1.6688 0-3.3001.493-4.6877 1.418-1.3876.924-2.4691 2.237-3.1077 3.774-.6386 1.537-.8057 3.228-.4801 4.859.3255 1.632 1.1291 3.131 2.3092 4.307 1.18 1.176 2.6834 1.977 4.3202 2.302 1.6367.324 3.3333.157 4.8751-.479 1.5416-.637 2.8596-1.715 3.7866-3.098.927-1.383 1.422-3.009 1.422-4.672 0-2.231-.889-4.37-2.471-5.947-1.583-1.578-3.7288-2.464-5.9666-2.464z" fill="#3F3D56"/><path d="M172.243 193.804H10.7966c-2.86247-.003-5.60674-1.138-7.63079-3.156C1.14176 188.631.0032334 185.895 0 183.042V94.6655c.0032334-2.8532 1.14176-5.5886 3.16581-7.6061s4.76832-3.1524 7.63079-3.1556h19.7945c2.6858-.0023 5.2756.9956 7.2616 2.7979l21.466 15.2783c1.3995 1.275 3.2272 1.981 5.123 1.98H173.245c1.431 0 2.848.283 4.168.834 1.32.551 2.517 1.358 3.522 2.374 1.004 1.016 1.796 2.221 2.329 3.544.534 1.324.797 2.74.776 4.167l-1.002 68.32c-.053 2.823-1.212 5.513-3.23 7.495-2.017 1.982-4.733 3.098-7.565 3.11zM10.7966 84.556c-2.68899.0031-5.26692 1.0692-7.1683 2.9644C1.72693 89.4156.657393 91.9853.654337 94.6655v88.3765c.003056 2.68 1.072593 5.25 2.973963 7.145 1.90138 1.895 4.47931 2.961 7.1683 2.965H172.243c2.661-.011 5.211-1.06 7.107-2.922 1.895-1.861 2.984-4.388 3.034-7.04l1.002-68.321c.02-1.34-.228-2.67-.729-3.914-.501-1.243-1.244-2.375-2.188-3.33-.944-.954-2.068-1.712-3.308-2.229-1.241-.518-2.572-.784-3.916-.784H64.4417c-2.0522.002-4.0312-.76-5.5495-2.136L37.4263 87.1968c-1.8672-1.7008-4.3058-2.6429-6.8352-2.6408H10.7966z" fill="#3F3D56"/><path d="M185.925 195.524h-4.011l-1.254-15.421h5.266l-.001 15.421z" fill="#FFB8B8"/><path d="M186.948 199.4h-12.933v-.163c0-.659.13-1.312.383-1.92.253-.609.624-1.162 1.091-1.628.467-.466 1.022-.836 1.633-1.088.611-.252 1.266-.382 1.927-.382l7.899.001v5.18z" fill="#2F2E41"/><path d="M230.747 195.524h-4.011l-1.908-15.421h5.92l-.001 15.421z" fill="#FFB8B8"/><path d="M231.77 199.4h-12.933v-.163c0-.659.13-1.312.383-1.92.253-.609.624-1.162 1.091-1.628.468-.466 1.023-.836 1.633-1.088.611-.252 1.266-.382 1.927-.382l7.899.001v5.18z" fill="#2F2E41"/><path d="M217.558 147.851c.554-.647.866-1.464.883-2.315.018-.85-.261-1.68-.788-2.349-.106-.128-.224-.247-.35-.355l3.021-11.118-5.035 1.665-2.097 10.302c-.348.635-.502 1.358-.443 2.08.059.721.329 1.41.776 1.98.234.308.534.56.878.736.345.177.725.274 1.112.285.387.011.772-.066 1.126-.223.353-.158.667-.393.917-.688z" fill="#FFB8B8"/><path d="M217.365 141.013c-.064 0-.127-.005-.189-.014l-2.624-.395c-.204-.035-.398-.114-.568-.231-.17-.118-.313-.271-.417-.449-.228-.38-.31-.828-.23-1.263l3.273-18.224-2.22-11.708c-.428-2.253.676-4.529 2.569-5.293.561-.229 1.172-.309 1.774-.232.602.076 1.173.307 1.659.67.523.395.958.896 1.274 1.47.317.573.509 1.207.565 1.859l1.571 14.928-.019.065-5.057 17.691c-.073.31-.245.588-.491.791-.246.203-.551.321-.87.335z" fill="#FFE68E"/><path d="M216.59 96.9832c4.438 0 8.035-3.5861 8.035-8.0097s-3.597-8.0096-8.035-8.0096c-4.438 0-8.036 3.586-8.036 8.0096s3.598 8.0097 8.036 8.0097z" fill="#FFB8B8"/><path d="M212.475 126.206c-.2 0-.398-.037-.585-.109l-12.701-4.869c-.343-.131-.633-.374-.821-.689-.187-.315-.263-.685-.213-1.048l.51-3.814c-.302-1.351-.275-2.756.081-4.095.356-1.339 1.029-2.572 1.964-3.598l.309-.339 3.758-6.83c.254-.463.598-.8706 1.012-1.2002.413-.3296.888-.5743 1.397-.72.509-.1458 1.042-.1897 1.568-.1292s1.034.2242 1.496.4817l6.636 3.6957c.874.486 1.533 1.28 1.849 2.226.893 2.678.827 5.582-.188 8.217l-4.543 11.775c-.12.307-.33.571-.603.757-.272.187-.595.287-.926.288z" fill="#FFE68E"/><path d="M179.19 191.738l-.017-.003c-.217-.042-.423-.127-.605-.25-.183-.123-.339-.281-.459-.466-.12-.184-.201-.391-.239-.608-.037-.217-.031-.439.02-.653l9.733-42.407c1.593-6.723 3.794-13.288 6.577-19.614l4.14-9.411 15.451 7.031 2.206 4.022c1.72 4.479 2.605 9.234 2.61 14.03l15.7 45.862c.076.224.103.462.078.697-.025.235-.101.462-.222.666-.122.203-.287.377-.483.51-.196.134-.418.223-.653.262l-8.594-.097c-.081.014-.163.021-.246.021-.326 0-.644-.097-.913-.28-.27-.182-.479-.441-.599-.743l-17.946-46.368c-.026-.062-.07-.114-.126-.15-.056-.036-.122-.055-.189-.052-.065.001-.129.022-.182.06-.053.039-.092.092-.113.154L187.09 190.55c-.13.363-.386.667-.721.859-.335.191-.727.258-1.107.188l-6.072.141z" fill="#2F2E41"/><path d="M190.94 139.587c.453-.16.865-.418 1.208-.755.342-.336.606-.744.774-1.193.167-.45.233-.93.194-1.408-.039-.478-.183-.941-.421-1.358l7.696-8.773-6.02-.818-6.385 8.456c-.675.446-1.163 1.122-1.371 1.903-.209.78-.122 1.609.242 2.33.364.721.98 1.283 1.733 1.581.753.298 1.589.311 2.35.035z" fill="#FFB8B8"/><path d="M194.568 133.408c-.268 0-.532-.066-.768-.191l-2.708-1.44c-.199-.106-.374-.251-.514-.427-.139-.176-.241-.379-.298-.596-.058-.217-.07-.444-.035-.666.034-.222.115-.434.235-.624l10.003-15.711 1.735-11.856c.089-.613.303-1.201.627-1.729.325-.5283.753-.9853 1.26-1.3436.507-.3582 1.081-.6102 1.689-.7407.607-.1305 1.234-.1368 1.844-.0185.61.1183 1.19.3588 1.703.7068.514.3479.952.7963 1.287 1.318.335.521.56 1.105.662 1.716.103.611.079 1.236-.068 1.838l-3.581 14.613-11.799 14.546c-.154.19-.348.342-.568.447-.221.105-.462.159-.706.158z" fill="#FFE68E"/><path d="M209.357 82.3648c.929-3.0381 6.3-4.3936 10.763-3.1331 4.464 1.2606 7.67 4.5657 8.417 7.797 1.653 7.1556-6.969 12.9631-5.407 20.1193 1.034 4.735 7.013 9.212 13.748 10.293-7.422 1.548-16.48.187-23.363-3.509-4.283-2.3-7.877-5.772-7.823-9.273.033-2.12 1.386-3.995 3.04-5.6143 1.655-1.6195 3.636-3.0593 5.154-4.7498 1.518-1.6906 2.571-3.7148 2.127-5.8608-.443-2.1461-2.694-4.3841-5.723-5.0085l-.933-1.0608z" fill="#2F2E41"/><path d="M254.111 200H129.459c-.086 0-.17-.034-.231-.096-.061-.061-.096-.144-.096-.23 0-.087.035-.17.096-.231s.145-.095.231-.095h124.652c.086 0 .17.034.231.095s.096.144.096.231c0 .086-.035.169-.096.23-.061.062-.145.096-.231.096z" fill="#CCC"/>
        <path fill="#fff" d="M0 0h254.438v200H0z"/>
    </symbol>

    <symbol id="illustration_admin" viewBox="0 0 807 446">
        <path d="M513.168 382.15H69.1908c-2.5988-.003-5.0903-1.036-6.9279-2.874-1.8376-1.838-2.8712-4.329-2.8742-6.928V113.882c.0029-2.599 1.0365-5.09 2.8741-6.928 1.8377-1.837 4.3292-2.871 6.928-2.874H513.168c2.598.003 5.09 1.037 6.927 2.874 1.838 1.838 2.872 4.329 2.875 6.928v258.466c-.003 2.599-1.037 5.09-2.875 6.928-1.837 1.837-4.329 2.871-6.927 2.874z" fill="#E6E6E6"/><path d="M540.845 418.324H41.5146V87.9355c.0033-2.9045 1.1586-5.6891 3.2124-7.7429s4.8384-3.2091 7.7429-3.2124H529.889c2.905.0033 5.689 1.1586 7.743 3.2124 2.054 2.0538 3.209 4.8384 3.213 7.7429V418.324zm-497.024-2.307h494.717V87.9355c-.002-2.2931-.914-4.4915-2.536-6.113-1.621-1.6214-3.82-2.5334-6.113-2.5359H52.4699c-2.293.0025-4.4915.9145-6.1129 2.5359-1.6214 1.6215-2.5335 3.8199-2.536 6.113V416.017z" fill="#CCC"/><path d="M291.18 96.0078c2.548 0 4.613-2.0652 4.613-4.6128 0-2.5475-2.065-4.6127-4.613-4.6127-2.547 0-4.613 2.0652-4.613 4.6127 0 2.5476 2.066 4.6128 4.613 4.6128z" fill="#E6E6E6"/><path d="M402.462 327.298H179.897c-2.599-.003-5.09-1.036-6.928-2.874s-2.871-4.329-2.874-6.928V168.735c.003-2.599 1.036-5.09 2.874-6.928 1.838-1.837 4.329-2.871 6.928-2.874h222.565c2.599.003 5.09 1.037 6.928 2.874 1.837 1.838 2.871 4.329 2.874 6.928v148.761c-.003 2.599-1.037 5.09-2.874 6.928-1.838 1.838-4.329 2.871-6.928 2.874z" fill="#fff"/><path d="M216.511 222.358c-1.825 0-3.609-.541-5.126-1.555-1.517-1.014-2.699-2.455-3.398-4.14-.698-1.686-.881-3.541-.525-5.331.356-1.789 1.235-3.433 2.525-4.723 1.29-1.29 2.934-2.169 4.724-2.525 1.789-.356 3.644-.173 5.33.525s3.127 1.881 4.14 3.398c1.014 1.517 1.555 3.301 1.555 5.125-.003 2.446-.976 4.791-2.705 6.521-1.73 1.729-4.074 2.702-6.52 2.705z" fill="#CCC"/><path d="M216.511 252.341c-1.825 0-3.609-.542-5.126-1.555-1.517-1.014-2.699-2.455-3.398-4.14-.698-1.686-.881-3.541-.525-5.331.356-1.789 1.235-3.433 2.525-4.723 1.29-1.291 2.934-2.169 4.724-2.525 1.789-.356 3.644-.173 5.33.525s3.127 1.881 4.14 3.398c1.014 1.517 1.555 3.3 1.555 5.125-.003 2.446-.976 4.791-2.705 6.52-1.73 1.73-4.074 2.703-6.52 2.706zM216.511 282.323c-1.825 0-3.609-.541-5.126-1.554-1.517-1.014-2.699-2.455-3.398-4.141-.698-1.685-.881-3.54-.525-5.33.356-1.789 1.235-3.433 2.525-4.723 1.29-1.291 2.934-2.169 4.724-2.525 1.789-.356 3.644-.174 5.33.525 1.686.698 3.127 1.88 4.14 3.398 1.014 1.517 1.555 3.3 1.555 5.125-.003 2.446-.976 4.791-2.705 6.52-1.73 1.73-4.074 2.703-6.52 2.705z" fill="#FFE68E"/><path d="M260.332 205.637c-1.988 0-3.895.789-5.301 2.195-1.405 1.406-2.195 3.312-2.195 5.3s.79 3.895 2.195 5.301c1.406 1.405 3.313 2.195 5.301 2.195h107.246c1.988 0 3.895-.79 5.3-2.195 1.406-1.406 2.196-3.313 2.196-5.301s-.79-3.894-2.196-5.3c-1.405-1.406-3.312-2.195-5.3-2.195H260.332z" fill="#CCC"/><path d="M260.332 235.619c-1.988 0-3.895.79-5.301 2.196-1.405 1.406-2.195 3.312-2.195 5.3s.79 3.895 2.195 5.3c1.406 1.406 3.313 2.196 5.301 2.196h107.246c1.988 0 3.895-.79 5.3-2.196 1.406-1.405 2.196-3.312 2.196-5.3s-.79-3.894-2.196-5.3c-1.405-1.406-3.312-2.196-5.3-2.196H260.332zM260.332 265.602c-1.988 0-3.895.79-5.301 2.196-1.405 1.405-2.195 3.312-2.195 5.3s.79 3.895 2.195 5.3c1.406 1.406 3.313 2.196 5.301 2.196h107.246c1.988 0 3.895-.79 5.3-2.196 1.406-1.405 2.196-3.312 2.196-5.3s-.79-3.895-2.196-5.3c-1.405-1.406-3.312-2.196-5.3-2.196H260.332z" fill="#FFE68E"/><path d="M764.895 432.823l-14.136-.237-5.811-54.637 20.864.351-.917 54.523z" fill="#FFB8B8"/><path d="M740.73 428.377l27.262.458-.288 17.165-44.427-.746c.038-2.255.519-4.479 1.417-6.547.898-2.068 2.194-3.939 3.814-5.506 1.621-1.568 3.535-2.8 5.632-3.628 2.097-.827 4.336-1.234 6.59-1.196z" fill="#2F2E41"/><path d="M624.614 432.694l-13.105-5.304 14.224-53.072 19.342 7.83-20.461 50.546z" fill="#FFB8B8"/><path d="M603.663 419.856l25.274 10.231L622.495 446l-41.187-16.672c1.709-4.221 5.024-7.589 9.216-9.366 4.192-1.776 8.919-1.814 13.139-.106zM671.863 228.245l-41.514 109.553-17.298 76.11 18.451 9.226 84.182-163.753L746.82 423.71h18.451s8.437-194.905-3.853-210.176l-89.555 14.711z" fill="#2F2E41"/><path d="M620.397 348.191c17.942 0 32.487-14.545 32.487-32.487 0-17.943-14.545-32.488-32.487-32.488-17.943 0-32.488 14.545-32.488 32.488 0 17.942 14.545 32.487 32.488 32.487z" fill="#FFE68E"/><path d="M617.689 330.069l-10.311-13.259 5.997-4.663 4.881 6.277 16.493-17.41 5.515 5.225-22.575 23.83z" fill="#fff"/><path d="M692.044 76.601c21.018 0 38.056-17.0379 38.056-38.0551 0-21.0173-17.038-38.055208-38.056-38.055208-21.017 0-38.055 17.037908-38.055 38.055208 0 21.0172 17.038 38.0551 38.055 38.0551z" fill="#2F2E41"/><path d="M638.935 297.504c1.621-.807 3.046-1.96 4.174-3.377 1.128-1.417 1.931-3.064 2.354-4.825.422-1.761.453-3.594.091-5.368-.363-1.775-1.11-3.448-2.189-4.902l28.868-159.763-26.939-.355-20.047 157.984c-2.323 1.975-3.841 4.734-4.267 7.753-.425 3.019.272 6.09 1.959 8.63 1.687 2.54 4.247 4.372 7.196 5.151 2.948.778 6.079.448 8.8-.928zM804.359 266.299c1.017-1.55 1.674-3.309 1.921-5.147.247-1.838.079-3.708-.493-5.472-.572-1.764-1.532-3.377-2.81-4.72-1.279-1.344-2.842-2.383-4.575-3.042l-51.549-125.213c-1.262-3.065-3.176-5.817-5.609-8.067s-5.328-3.942-8.482-4.959c-3.154-1.018-6.491-1.336-9.78-.933-3.29.404-6.452 1.519-9.266 3.268l68.276 143.873c-.88 2.874-.691 5.969.531 8.714 1.223 2.746 3.397 4.956 6.122 6.225 2.725 1.268 5.816 1.508 8.704.676 2.888-.831 5.377-2.68 7.01-5.203zM692.798 81.207c15.643 0 28.324-12.6809 28.324-28.3235s-12.681-28.3234-28.324-28.3234c-15.643 0-28.323 12.6808-28.323 28.3234s12.68 28.3235 28.323 28.3235z" fill="#FFB8B8"/><path d="M658.357 97.6666c16.337-6.801 44.54-13.5225 75.858 1.1274 3.665 1.709 6.927 4.173 9.573 7.231 2.645 3.058 4.614 6.641 5.777 10.513l13.401 44.822-17.298 17.298 16.144 35.749s-61.695 37.478-89.372 14.415l-16.721-59.389-21.91-5.766 7.475-44.41c.788-4.749 2.768-9.22 5.754-12.996 2.986-3.776 6.88-6.7326 11.319-8.5944z" fill="#CCC"/><path d="M666.307 31.938c11.061 6.7523 23.531 10.8611 36.439 12.0069l-3.841-4.6024c2.797 1.0341 5.74 1.6185 8.72 1.7315 1.492.0432 2.973-.2639 4.324-.8965 1.352-.6327 2.537-1.5734 3.459-2.7467.754-1.2183 1.201-2.6008 1.305-4.0295.103-1.4287-.14-2.8612-.71-4.1754-1.171-2.6213-2.993-4.8994-5.293-6.6176-4.076-3.2248-8.887-5.3909-14.004-6.3054-5.117-.9145-10.381-.5489-15.322 1.0643-3.389 1.0129-6.425 2.9602-8.759 5.6186-1.147 1.3391-1.944 2.9421-2.319 4.6652-.375 1.7231-.316 3.5123.171 5.207M661.01 6.73574c-.461-4.84339-6.394-7.82517-11.034-6.362135-4.64 1.463035-7.687 6.135085-8.608 10.912395-.443 2.0119-.484 4.0915-.122 6.1196.362 2.028 1.121 3.9646 2.233 5.6988 1.15 1.7121 2.767 3.0581 4.66 3.878 1.892.8199 3.98 1.0792 6.016.747 4.589-.9782 7.768-5.4591 8.678-10.0622.91-4.6031.006-9.3488-.896-13.95341M739.427 9.0421c-.461-4.84338-6.394-7.82517-11.034-6.36213-4.641 1.46304-7.687 6.13508-8.608 10.91233-.443 2.012-.484 4.0916-.122 6.1196.362 2.0281 1.121 3.9647 2.233 5.6988 1.15 1.7122 2.767 3.0582 4.66 3.8781 1.892.8198 3.98 1.0791 6.016.747 4.589-.9782 7.768-5.4591 8.678-10.0622.909-4.6031.006-9.3488-.896-13.95344" fill="#2F2E41"/><path d="M549.494 403.332h-20.181v-3.459c0-1.224-.486-2.397-1.351-3.262-.865-.865-2.039-1.351-3.262-1.351h-24.217c-1.223 0-2.397.486-3.262 1.351-.865.865-1.351 2.038-1.351 3.262v3.459h-3.459v-3.459c0-1.224-.486-2.397-1.351-3.262-.865-.865-2.039-1.351-3.262-1.351h-24.217c-1.223 0-2.397.486-3.262 1.351-.865.865-1.351 2.038-1.351 3.262v3.459h-3.459v-3.459c0-1.224-.486-2.397-1.351-3.262-.865-.865-2.039-1.351-3.262-1.351h-24.217c-1.223 0-2.396.486-3.262 1.351-.865.865-1.351 2.038-1.351 3.262v3.459h-3.459v-3.459c0-1.224-.486-2.397-1.351-3.262-.865-.865-2.039-1.351-3.262-1.351h-24.217c-1.223 0-2.396.486-3.262 1.351-.865.865-1.351 2.038-1.351 3.262v3.459h-3.459v-3.459c0-1.224-.486-2.397-1.351-3.262-.865-.865-2.039-1.351-3.262-1.351h-24.217c-1.223 0-2.396.486-3.262 1.351-.865.865-1.351 2.038-1.351 3.262v3.459h-3.459v-3.459c0-1.224-.486-2.397-1.351-3.262-.865-.865-2.038-1.351-3.262-1.351h-24.217c-1.223 0-2.396.486-3.261 1.351-.866.865-1.352 2.038-1.352 3.262v3.459h-3.459v-3.459c0-1.224-.486-2.397-1.351-3.262-.865-.865-2.038-1.351-3.262-1.351h-24.217c-1.223 0-2.396.486-3.261 1.351-.866.865-1.352 2.038-1.352 3.262v3.459h-3.459v-3.459c0-1.224-.486-2.397-1.351-3.262-.865-.865-2.038-1.351-3.262-1.351h-24.217c-1.223 0-2.396.486-3.261 1.351-.866.865-1.351 2.038-1.351 3.262v3.459h-3.46v-3.459c0-1.224-.486-2.397-1.351-3.262-.865-.865-2.038-1.351-3.262-1.351h-24.217c-1.223 0-2.396.486-3.261 1.351-.865.865-1.351 2.038-1.351 3.262v3.459h-3.46v-3.459c0-1.224-.486-2.397-1.351-3.262-.865-.865-2.038-1.351-3.262-1.351h-24.217c-1.223 0-2.396.486-3.261 1.351-.865.865-1.351 2.038-1.351 3.262v3.459h-3.46v-3.459c0-1.224-.486-2.397-1.351-3.262-.865-.865-2.038-1.351-3.262-1.351h-24.217c-1.223 0-2.396.486-3.261 1.351-.865.865-1.351 2.038-1.351 3.262v3.459h-3.46v-3.459c0-1.224-.486-2.397-1.351-3.262-.865-.865-2.038-1.351-3.262-1.351H94.5613c-1.2233 0-2.3966.486-3.2617 1.351-.865.865-1.351 2.038-1.351 3.262v3.459H86.489v-3.459c0-1.224-.486-2.397-1.351-3.262-.8651-.865-2.0384-1.351-3.2617-1.351h-24.217c-1.2233 0-2.3966.486-3.2617 1.351-.865.865-1.351 2.038-1.351 3.262v3.459H32.8658c-8.7166 0-17.0761 3.463-23.23964 9.626C3.46264 419.122 0 427.481 0 436.198c0 2.6 1.03272 5.093 2.87097 6.931C4.70921 444.967 7.20241 446 9.80209 446H572.557c2.6 0 5.093-1.033 6.931-2.871 1.839-1.838 2.871-4.331 2.871-6.931 0-8.717-3.462-17.076-9.626-23.24-6.163-6.163-14.523-9.626-23.239-9.626z" fill="#3F3D56"/>
        <path fill="#fff" d="M0 0h806.363v446H0z"/>
    </symbol>

    <symbol id="illustration_connection" viewBox="0 0 863 634">
        <path d="M801.727 634v-71.993s28.076 51.04 0 71.993z" fill="#F1F1F1"/><path d="M803.461 633.987l-53.073-48.686s56.614 13.849 53.073 48.686z" fill="#F1F1F1"/><path d="M574.184 443.831c-.118-1.318.054-2.646.505-3.89.451-1.244 1.17-2.375 2.105-3.311.936-.937 2.065-1.657 3.309-2.111 1.244-.453 2.573-.628 3.892-.513l9.568-18.342 12.573 3.091-13.876 25.714c-.34 2.201-1.477 4.202-3.196 5.622-1.718 1.42-3.897 2.161-6.125 2.082-2.229-.079-4.351-.971-5.964-2.509-1.614-1.537-2.607-3.613-2.791-5.833zM631.293 622.526l-10.609-.001-5.048-40.892 15.659.001-.002 40.892z" fill="#FFB7B7"/><path d="M633.999 632.802l-34.209-.001v-.432c0-3.529 1.403-6.913 3.9-9.408 2.497-2.496 5.884-3.897 9.415-3.898h.001l20.893.001v13.738z" fill="#2F2E41"/><path d="M716.623 614.606l-10.236 2.789-15.637-38.124 15.107-4.117 10.766 39.452z" fill="#FFB7B7"/><path d="M721.939 623.809l-33.004 8.993-.114-.417c-.929-3.404-.466-7.038 1.286-10.102s4.65-5.306 8.057-6.235l20.158-5.493 3.617 13.254zM611.924 445.884l-5.292 80.306 11.369 90.1 18.621-5.68.784-80.502 14.897-46.422 44.104 123.987 20.188-7.444-16.661-80.502-9.408-75.606-78.602 1.763z" fill="#2F2E41"/><path d="M663.376 304.865l-31.358 4.62-11.297 11.165-3.507 40.113 2.178 35.531-9.081 62.657s22.837-12.669 40.535 3.189c17.698 15.858 42.462 2.803 42.971-7.746l-30.441-149.529z" fill="#CBCBCB"/><path d="M647.453 355.173l-.001-.045 15.578-50.739.201-.013c1.109-.072 27.226-1.61 33.067 11.275l.029.063-1.775 52.728 2.444 82.582-48.303 10.454-.351.076-.889-106.381zM630.189 351.666l2.858-43.014c-20.324 1.264-20.018 15.663-19.994 16.291l-.222 64.339-4.071 68.832 14.8-1.109 6.629-105.339z" fill="#2F2E41"/><path d="M584.361 429.933l18.044-41.846 12.594-23.11 6.575 41.688-22.829 34.219-14.384-10.951z" fill="#2F2E41"/><path d="M658.931 414.536c.277-1.294.834-2.512 1.632-3.568.798-1.056 1.818-1.924 2.989-2.543 1.17-.619 2.462-.975 3.784-1.041 1.323-.066 2.644.158 3.871.657l14.556-14.706 11.101 6.66-20.849 20.479c-.975 2.004-2.652 3.58-4.713 4.43-2.061.85-4.362.916-6.468.184s-3.87-2.211-4.958-4.155c-1.088-1.945-1.424-4.221-.945-6.397z" fill="#FFB7B7"/><path d="M671.173 402.672l29.68-32.535-19.647-28.014 2.023-13.696 11.579-14.293.226.292c1.234 1.596 30.239 39.25 31.071 53.504.835 14.308-40.854 50.499-42.629 52.032l-.247.213-12.056-17.503z" fill="#2F2E41"/><path d="M645.282 301.341c11.65 0 21.095-9.438 21.095-21.08 0-11.642-9.445-21.08-21.095-21.08-11.651 0-21.095 9.438-21.095 21.08 0 11.642 9.444 21.08 21.095 21.08z" fill="#FFB7B7"/><path d="M665.122 263.409l1.023-2.057-5.146-2.555s-5.677-9.23-15.949-6.636c-10.272 2.594-14.894 4.146-14.894 4.146l-5.133 2.581 2.576 2.561-4.621 1.553 3.087 1.532-3.592 2.064 1.934 10.577s3.212-8.022 9.387-4.957c6.175 3.066 17.47-1.584 17.47-1.584l9.813 18.977s2.024-6.653 5.633-4.879c.001 0 9.222-14.674-1.588-21.323z" fill="#2F2E41"/><path d="M426.428 382.753l-320.793 88.405L0 88.4052 320.793 0l105.635 382.753z" fill="#fff"/><path d="M426.428 382.753l-320.793 88.405L0 88.4052 320.793 0l105.635 382.753zm-316.694 81.19l309.474-85.286L316.694 7.2147 7.22005 92.5007 109.734 463.943z" fill="#F1F1F1"/><path d="M250.981 171.467l-80.413 22.16c-1.134.312-2.346.16-3.369-.42-1.023-.58-1.773-1.542-2.087-2.675l-22.177-80.354c-.312-1.133-.16-2.344.42-3.366.581-1.023 1.544-1.773 2.677-2.087l80.413-22.1601c1.135-.3112 2.346-.1601 3.369.4202 1.023.5803 1.774 1.5424 2.088 2.6752l22.177 80.3537c.311 1.134.16 2.344-.421 3.366-.58 1.023-1.543 1.773-2.677 2.087zm-104.477-65.032c-.68.188-1.258.639-1.606 1.252-.349.613-.439 1.34-.252 2.02l22.176 80.353c.189.68.639 1.257 1.253 1.606.614.348 1.341.438 2.021.252l80.413-22.161c.68-.188 1.258-.638 1.607-1.252.348-.613.439-1.339.252-2.019l-22.177-80.3541c-.188-.6797-.639-1.257-1.253-1.6052-.614-.3481-1.34-.4388-2.021-.252l-80.413 22.1603z" fill="#E5E5E5"/><path d="M230.597 187.663l-80.413 22.16c-1.021.28-2.111.144-3.032-.378-.921-.522-1.596-1.388-1.879-2.408l-22.177-80.353c-.28-1.021-.144-2.11.379-3.03.522-.92 1.389-1.596 2.409-1.878l80.413-22.1605c1.021-.2801 2.111-.1441 3.032.3781.921.5224 1.596 1.3884 1.879 2.4074l22.177 80.354c.28 1.02.144 2.11-.379 3.03-.522.92-1.389 1.595-2.409 1.878z" fill="#FFE68E"/><path d="M323.751 198.632L99.3506 260.473l2.3914 8.665 224.401-61.841-2.392-8.665zM329.987 221.225l-224.401 61.841 2.392 8.666 224.4-61.842-2.391-8.665zM336.222 243.818l-224.401 61.841 2.392 8.666 224.4-61.841-2.391-8.666zM347.196 283.582l-224.4 61.841 2.391 8.665 224.401-61.841-2.392-8.665zM353.432 306.175l-224.401 61.841 2.392 8.665 224.4-61.841-2.391-8.665zM359.667 328.768l-224.4 61.841 2.391 8.665 224.401-61.841-2.392-8.665z" fill="#F1F1F1"/><path d="M529.116 469.879H196.347V72.8376h332.769V469.879z" fill="#fff"/><path d="M529.116 469.879H196.347V72.8376h332.769V469.879zm-326.898-5.866h321.027V78.7038H202.218V464.013z" fill="#E5E5E5"/><path d="M468.529 243.521H278.272v8.988h190.257v-8.988zM468.529 266.891H278.272v8.989h190.257v-8.989zM468.529 290.262H278.272v8.989h190.257v-8.989zM262.804 255.198c3.243 0 5.871-2.626 5.871-5.866 0-3.24-2.628-5.866-5.871-5.866-3.242 0-5.87 2.626-5.87 5.866 0 3.24 2.628 5.866 5.87 5.866z" fill="#FFE68E"/><path d="M468.529 142.817H278.272v8.988h190.257v-8.988zM468.529 166.187H278.272v8.989h190.257v-8.989zM468.529 189.558H278.272v8.989h190.257v-8.989zM262.804 153.516c3.243 0 5.871-2.626 5.871-5.866 0-3.24-2.628-5.866-5.871-5.866-3.242 0-5.87 2.626-5.87 5.866 0 3.24 2.628 5.866 5.87 5.866zM468.529 345.202H278.272v8.989h190.257v-8.989zM468.529 368.573H278.272v8.989h190.257v-8.989zM468.529 391.944H278.272v8.989h190.257v-8.989zM262.804 355.902c3.243 0 5.871-2.626 5.871-5.866 0-3.24-2.628-5.866-5.871-5.866-3.242 0-5.87 2.626-5.87 5.866 0 3.24 2.628 5.866 5.87 5.866z" fill="#E5E5E5"/><path d="M513.58 504.069c37.564 0 68.016-30.43 68.016-67.966 0-37.537-30.452-67.966-68.016-67.966-37.564 0-68.016 30.429-68.016 67.966 0 37.536 30.452 67.966 68.016 67.966z" fill="#FFE68E"/><path d="M532.424 431.767v-13.004c.002-2.474-.484-4.925-1.43-7.211-.946-2.286-2.334-4.363-4.084-6.113-1.75-1.75-3.828-3.139-6.115-4.086-2.288-.947-4.739-1.435-7.215-1.435s-4.927.488-7.215 1.435c-2.287.947-4.365 2.336-6.115 4.086-1.75 1.75-3.138 3.827-4.084 6.113-.946 2.286-1.432 4.737-1.43 7.211v13.004c-2.519.113-4.897 1.193-6.64 3.014-1.743 1.82-2.716 4.243-2.718 6.762v30.731h56.404v-30.731c-.002-2.519-.975-4.942-2.718-6.762-1.743-1.821-4.121-2.901-6.64-3.014zm-18.844-25.205c3.237.004 6.34 1.291 8.629 3.578 2.289 2.287 3.576 5.388 3.58 8.623v12.981h-24.418v-12.981c.004-3.235 1.291-6.336 3.58-8.623 2.289-2.287 5.392-3.574 8.629-3.578z" fill="#fff"/><path d="M518.65 446.943c0-.873-.225-1.732-.655-2.493-.43-.76-1.05-1.397-1.798-1.848-.749-.451-1.602-.7-2.475-.725-.874-.024-1.74.178-2.512.586-.773.408-1.427 1.009-1.899 1.745-.471.735-.745 1.58-.793 2.452-.049.873.129 1.742.517 2.526.387.783.97 1.453 1.693 1.944v11.012h5.703V451.13c.684-.464 1.244-1.088 1.63-1.818.387-.73.589-1.543.589-2.369z" fill="#FFE68E"/><path d="M862.004 633.596H482.553c-.264 0-.517-.105-.704-.292-.187-.186-.292-.44-.292-.703 0-.264.105-.518.292-.704.187-.187.44-.292.704-.292h379.451c.264 0 .518.105.704.292.187.186.292.44.292.704 0 .263-.105.517-.292.703-.186.187-.44.292-.704.292z" fill="#CBCBCB"/>
        <path fill="#fff" d="M0 0h863v634H0z"/>
    </symbol>

    <symbol id="illustration_insured" viewBox="0 0 569 446">
        <path d="M515.822 349.812l-1.24-.379L51.7432 208.256l1.2732-.635L370.746 48.9568l.25.5184L515.822 349.812zM54.7969 208.001L513.673 347.969 370.223 50.487 54.7969 208.001z" fill="#E6E6E6"/><path d="M566.313 287.316H451.064v91.187h115.249v-91.187z" fill="#fff"/><path d="M568.587 380.777H448.79v-95.735h119.797v95.735zm-115.249-4.548h110.701v-86.638H453.338v86.638z" fill="#E6E6E6"/><path d="M117.523 163.747H2.27441v91.187H117.523v-91.187z" fill="#fff"/><path d="M119.798 257.208H0v-95.735h119.798v95.735zM4.54854 252.66H115.249v-86.638H4.54854v86.638z" fill="#E6E6E6"/><path d="M436.679 2.27411H321.431V93.4611h115.248V2.27411z" fill="#fff"/><path d="M438.954 95.7352H319.156V0h119.798v95.7352zm-115.249-4.5485h110.7V4.54854h-110.7V91.1867z" fill="#E6E6E6"/><path d="M364.293 35.0935l29.523 13.0581-29.523 12.4896V35.0935zM84.1299 194.772H35.668v4.42h48.4619v-4.42zM84.1299 207.131H35.668v4.42h48.4619v-4.42zM84.1299 219.489H35.668v4.421h48.4619v-4.421zM489.386 339.155c3.449 0 6.245-2.796 6.245-6.245 0-3.449-2.796-6.245-6.245-6.245-3.449 0-6.245 2.796-6.245 6.245 0 3.449 2.796 6.245 6.245 6.245zM508.688 339.155c3.449 0 6.245-2.796 6.245-6.245 0-3.449-2.796-6.245-6.245-6.245-3.449 0-6.245 2.796-6.245 6.245 0 3.449 2.796 6.245 6.245 6.245zM527.991 339.155c3.449 0 6.245-2.796 6.245-6.245 0-3.449-2.796-6.245-6.245-6.245-3.449 0-6.245 2.796-6.245 6.245 0 3.449 2.796 6.245 6.245 6.245z" fill="#FFE68E"/><path d="M223.11 273.236c.621-1.144.984-2.411 1.063-3.71.079-1.3-.128-2.601-.606-3.812-.478-1.211-1.216-2.303-2.162-3.198-.945-.895-2.076-1.572-3.311-1.982l-1.468-20.3-12.554-2.117 2.476 28.638c-.553 2.122-.308 4.372.687 6.325.996 1.953 2.674 3.473 4.715 4.272 2.042.799 4.305.821 6.362.062 2.057-.758 3.764-2.245 4.798-4.178zM261.064 434.082l11.645-.001 5.54-44.915h-17.187l.002 44.916z" fill="#A0616A"/><path d="M258.094 430.28l22.932-.001h.001c3.876 0 7.593 1.54 10.334 4.28 2.741 2.741 4.28 6.458 4.281 10.334v.475l-37.548.001V430.28z" fill="#2F2E41"/><path d="M223.071 434.082l11.645-.001 5.54-44.915H223.07l.001 44.916z" fill="#A0616A"/><path d="M220.101 430.28l22.933-.001h.001c3.876 0 7.593 1.54 10.333 4.28 2.741 2.741 4.281 6.458 4.281 10.334v.475l-37.547.001-.001-15.089zM220.017 237.28l-5.699 32.186 7.599 150.072h17.1l9.441-73.816 3.853-56.31 6.077 130.126 17.669 1.275 10.219-74.586 2.603-74.387-2.744-34.56h-66.118z" fill="#2F2E41"/><path d="M243.288 138.864l25.645 4.75 7.124 91.658s-31.345 14.247-42.742 1.899c-11.398-12.347 9.973-98.307 9.973-98.307z" fill="#CCC"/><path d="M293.153 157.386l-24.22-13.772-3.325 63.163s-.949 74.086 18.047 74.086l14.247-4.749-7.598-61.739 2.849-56.989zM214.318 151.687l28.97-12.823 3.324 55.565s9.498 74.086-20.896 76.936c0 0-8.549.95-12.348-5.699l5.699-55.09-4.749-58.889z" fill="#2F2E41"/><path d="M220.017 154.537l-5.699-2.85s-2.85 0-3.799 1.9c-.95 1.899-12.831 56.989-12.831 56.989l7.27 51.439 14.109-6.797-2.935-42.98 3.885-57.701z" fill="#2F2E41"/><path d="M282.797 279.75c-.71-1.092-1.172-2.325-1.353-3.615-.182-1.289-.078-2.603.303-3.848.381-1.245 1.03-2.391 1.902-3.358.872-.967 1.946-1.731 3.145-2.238l-.14-20.353 12.347-3.101-.206 28.744c.719 2.071.653 4.334-.186 6.359-.838 2.026-2.39 3.673-4.362 4.631-1.972.958-4.227 1.159-6.337.565-2.11-.594-3.929-1.941-5.113-3.786z" fill="#A0616A"/><path d="M282.705 158.336l10.448-.95s3.8 1.369 4.75 13.032c.949 11.663.949 40.925.949 40.925l2.85 52.423h-16.147l-4.749-53.19 1.899-52.24z" fill="#2F2E41"/><path d="M259.274 130.955c12.325 0 22.316-9.99 22.316-22.315 0-12.3243-9.991-22.3152-22.316-22.3152-12.324 0-22.315 9.9909-22.315 22.3152 0 12.325 9.991 22.315 22.315 22.315z" fill="#A0616A"/><path d="M255.947 113.194l-.309-5.299c-.072-1.235.31-2.956 1.544-2.867 1.049.075 3.386.485 3.696.155 1.161-1.237 3.556.025 4.809-1.119.525-.479.759-1.324 1.443-1.517.472-.065.952.045 1.349.308 1.09.617 2.302.988 3.55 1.087.625.04 1.249-.087 1.808-.368.559-.282 1.032-.708 1.371-1.234.104-.265.268-.502.479-.692.265-.139.569-.186.864-.135l3.847.251c.14-2.0527-.164-4.1117-.892-6.036-.728-1.9244-1.864-3.6689-3.328-5.1142-1.887-1.7063-4.037-3.0972-6.367-4.1192-2.607-1.258-5.265-2.3992-7.974-3.4237-2.967-1.1258-6.073-2.1251-9.242-1.9665-3.169.1586-6.441 1.6939-7.879 4.522-1.043-.4732-1.915-1.2575-2.495-2.2455-.176.2414-.298.5185-.356.812-.058.2934-.05.596.022.8863.071.2903.206.5613.394.7939.188.2325.425.421.694.552l-3.483-1.3414c-.682 1.0862 1.347 2.3917.816 3.5586-.172.2969-.421.5423-.72.7108-1.541.9929-2.879 2.2706-3.941 3.7645-1.411 2.1372-1.882 4.7446-2.226 7.2814-.765 5.644-.87 11.959 2.743 16.362.41.499 6.194 8.935 6.787 9.189 2.007.859.263-1.853 1.875-.382 1.264 1.154.024-3.994 1.724-3.155.66.295 1.391.393 2.105.281.714-.113 1.38-.429 1.917-.912.523-.546-.15-2.852-.917-4.939-.146-.397-.193-.824-.136-1.244.058-.42.217-.819.464-1.163.248-.343.576-.621.955-.809.38-.187.8-.279 1.223-.266 1.917.058 3.8.058 3.786-.167z" fill="#2F2E41"/><path d="M350.425 446H163.177c-.201 0-.394-.08-.536-.222-.142-.142-.222-.335-.222-.536s.08-.394.222-.536c.142-.142.335-.222.536-.222h187.248c.201 0 .394.08.536.222.143.142.223.335.223.536s-.08.394-.223.536c-.142.142-.335.222-.536.222z" fill="#CCC"/>
        <path fill="#fff" d="M0 0h568.587v446H0z"/>
    </symbol>

</svg>