<svg width="863" height="634" viewBox="0 0 863 634" fill="none" xmlns="http://www.w3.org/2000/svg">
<g clip-path="url(#clip0)">
<path d="M801.727 634V562.007C801.727 562.007 829.803 613.047 801.727 634Z" fill="#F1F1F1"/>
<path d="M803.461 633.987L750.388 585.301C750.388 585.301 807.002 599.15 803.461 633.987Z" fill="#F1F1F1"/>
<path d="M574.184 443.831C574.066 442.513 574.238 441.185 574.689 439.941C575.14 438.697 575.859 437.566 576.794 436.63C577.73 435.693 578.859 434.973 580.103 434.519C581.347 434.066 582.676 433.891 583.995 434.006L593.563 415.664L606.136 418.755L592.26 444.469C591.92 446.67 590.783 448.671 589.064 450.091C587.346 451.511 585.167 452.252 582.939 452.173C580.71 452.094 578.588 451.202 576.975 449.664C575.361 448.127 574.368 446.051 574.184 443.831H574.184Z" fill="#FFB7B7"/>
<path d="M631.293 622.526L620.684 622.525L615.636 581.633L631.295 581.634L631.293 622.526Z" fill="#FFB7B7"/>
<path d="M633.999 632.802L599.79 632.801V632.369C599.79 628.84 601.193 625.456 603.69 622.961C606.187 620.465 609.574 619.064 613.105 619.063H613.106L633.999 619.064L633.999 632.802Z" fill="#2F2E41"/>
<path d="M716.623 614.606L706.387 617.395L690.75 579.271L705.857 575.154L716.623 614.606Z" fill="#FFB7B7"/>
<path d="M721.939 623.809L688.935 632.802L688.821 632.385C687.892 628.981 688.355 625.347 690.107 622.283C691.859 619.219 694.757 616.977 698.164 616.048L698.164 616.048L718.322 610.555L721.939 623.809Z" fill="#2F2E41"/>
<path d="M611.924 445.884L606.632 526.19L618.001 616.29L636.622 610.61L637.406 530.108L652.303 483.686L696.407 607.673L716.595 600.229L699.934 519.727L690.526 444.121L611.924 445.884Z" fill="#2F2E41"/>
<path d="M663.376 304.865L632.018 309.485L620.721 320.65L617.214 360.763L619.392 396.294L610.311 458.951C610.311 458.951 633.148 446.282 650.846 462.14C668.544 477.998 693.308 464.943 693.817 454.394L663.376 304.865Z" fill="#CBCBCB"/>
<path d="M647.453 355.173L647.452 355.128L663.03 304.389L663.231 304.376C664.34 304.304 690.457 302.766 696.298 315.651L696.327 315.714L694.552 368.442L696.996 451.024L648.693 461.478L648.342 461.554L647.453 355.173Z" fill="#2F2E41"/>
<path d="M630.189 351.666L633.047 308.652C612.723 309.916 613.029 324.315 613.053 324.943L612.831 389.282L608.76 458.114L623.56 457.005L630.189 351.666Z" fill="#2F2E41"/>
<path d="M584.361 429.933L602.405 388.087L614.999 364.977L621.574 406.665L598.745 440.884L584.361 429.933Z" fill="#2F2E41"/>
<path d="M658.931 414.536C659.208 413.242 659.765 412.024 660.563 410.968C661.361 409.912 662.381 409.044 663.552 408.425C664.722 407.806 666.014 407.45 667.336 407.384C668.659 407.318 669.98 407.542 671.207 408.041L685.763 393.335L696.864 399.995L676.015 420.474C675.04 422.478 673.363 424.054 671.302 424.904C669.241 425.754 666.94 425.82 664.834 425.088C662.728 424.356 660.964 422.877 659.876 420.933C658.788 418.988 658.452 416.712 658.931 414.536Z" fill="#FFB7B7"/>
<path d="M671.173 402.672L700.853 370.137L681.206 342.123L683.229 328.427L694.808 314.134L695.034 314.426C696.268 316.022 725.273 353.676 726.105 367.93C726.94 382.238 685.251 418.429 683.476 419.962L683.229 420.175L671.173 402.672Z" fill="#2F2E41"/>
<path d="M645.282 301.341C656.932 301.341 666.377 291.903 666.377 280.261C666.377 268.619 656.932 259.181 645.282 259.181C633.631 259.181 624.187 268.619 624.187 280.261C624.187 291.903 633.631 301.341 645.282 301.341Z" fill="#FFB7B7"/>
<path d="M665.122 263.409L666.145 261.352L660.999 258.797C660.999 258.797 655.322 249.567 645.05 252.161C634.778 254.755 630.156 256.307 630.156 256.307L625.023 258.888L627.599 261.449L622.978 263.002L626.065 264.534L622.473 266.598L624.407 277.175C624.407 277.175 627.619 269.153 633.794 272.218C639.969 275.284 651.264 270.634 651.264 270.634L661.077 289.611C661.077 289.611 663.101 282.958 666.71 284.732C666.711 284.732 675.932 270.058 665.122 263.409Z" fill="#2F2E41"/>
<path d="M426.428 382.753L105.635 471.158L0 88.4052L320.793 0L426.428 382.753Z" fill="white"/>
<path d="M426.428 382.753L105.635 471.158L0 88.4052L320.793 0L426.428 382.753ZM109.734 463.943L419.208 378.657L316.694 7.2147L7.22005 92.5007L109.734 463.943Z" fill="#F1F1F1"/>
<path d="M250.981 171.467L170.568 193.627C169.434 193.939 168.222 193.787 167.199 193.207C166.176 192.627 165.426 191.665 165.112 190.532L142.935 110.178C142.623 109.045 142.775 107.834 143.355 106.812C143.936 105.789 144.899 105.039 146.032 104.725L226.445 82.5649C227.58 82.2537 228.791 82.4048 229.814 82.9851C230.837 83.5654 231.588 84.5275 231.902 85.6603L254.079 166.014C254.39 167.148 254.239 168.358 253.658 169.38C253.078 170.403 252.115 171.153 250.981 171.467ZM146.504 106.435C145.824 106.623 145.246 107.074 144.898 107.687C144.549 108.3 144.459 109.027 144.646 109.707L166.822 190.06C167.011 190.74 167.461 191.317 168.075 191.666C168.689 192.014 169.416 192.104 170.096 191.918L250.509 169.757C251.189 169.569 251.767 169.119 252.116 168.505C252.464 167.892 252.555 167.166 252.368 166.486L230.191 86.1319C230.003 85.4522 229.552 84.8749 228.938 84.5267C228.324 84.1786 227.598 84.0879 226.917 84.2747L146.504 106.435Z" fill="#E5E5E5"/>
<path d="M230.597 187.663L150.184 209.823C149.163 210.103 148.073 209.967 147.152 209.445C146.231 208.923 145.556 208.057 145.273 207.037L123.096 126.684C122.816 125.663 122.952 124.574 123.475 123.654C123.997 122.734 124.864 122.058 125.884 121.776L206.297 99.6155C207.318 99.3354 208.408 99.4714 209.329 99.9936C210.25 100.516 210.925 101.382 211.208 102.401L233.385 182.755C233.665 183.775 233.529 184.865 233.006 185.785C232.484 186.705 231.617 187.38 230.597 187.663Z" fill="#FFE68E"/>
<path d="M323.751 198.632L99.3506 260.473L101.742 269.138L326.143 207.297L323.751 198.632Z" fill="#F1F1F1"/>
<path d="M329.987 221.225L105.586 283.066L107.978 291.732L332.378 229.89L329.987 221.225Z" fill="#F1F1F1"/>
<path d="M336.222 243.818L111.821 305.659L114.213 314.325L338.613 252.484L336.222 243.818Z" fill="#F1F1F1"/>
<path d="M347.196 283.582L122.796 345.423L125.187 354.088L349.588 292.247L347.196 283.582Z" fill="#F1F1F1"/>
<path d="M353.432 306.175L129.031 368.016L131.423 376.681L355.823 314.84L353.432 306.175Z" fill="#F1F1F1"/>
<path d="M359.667 328.768L135.267 390.609L137.658 399.274L362.059 337.433L359.667 328.768Z" fill="#F1F1F1"/>
<path d="M529.116 469.879H196.347V72.8376H529.116V469.879Z" fill="white"/>
<path d="M529.116 469.879H196.347V72.8376H529.116V469.879ZM202.218 464.013H523.245V78.7038H202.218V464.013Z" fill="#E5E5E5"/>
<path d="M468.529 243.521H278.272V252.509H468.529V243.521Z" fill="#FFE68E"/>
<path d="M468.529 266.891H278.272V275.88H468.529V266.891Z" fill="#FFE68E"/>
<path d="M468.529 290.262H278.272V299.251H468.529V290.262Z" fill="#FFE68E"/>
<path d="M262.804 255.198C266.047 255.198 268.675 252.572 268.675 249.332C268.675 246.092 266.047 243.466 262.804 243.466C259.562 243.466 256.934 246.092 256.934 249.332C256.934 252.572 259.562 255.198 262.804 255.198Z" fill="#FFE68E"/>
<path d="M468.529 142.817H278.272V151.805H468.529V142.817Z" fill="#E5E5E5"/>
<path d="M468.529 166.187H278.272V175.176H468.529V166.187Z" fill="#E5E5E5"/>
<path d="M468.529 189.558H278.272V198.547H468.529V189.558Z" fill="#E5E5E5"/>
<path d="M262.804 153.516C266.047 153.516 268.675 150.89 268.675 147.65C268.675 144.41 266.047 141.784 262.804 141.784C259.562 141.784 256.934 144.41 256.934 147.65C256.934 150.89 259.562 153.516 262.804 153.516Z" fill="#E5E5E5"/>
<path d="M468.529 345.202H278.272V354.191H468.529V345.202Z" fill="#E5E5E5"/>
<path d="M468.529 368.573H278.272V377.562H468.529V368.573Z" fill="#E5E5E5"/>
<path d="M468.529 391.944H278.272V400.933H468.529V391.944Z" fill="#E5E5E5"/>
<path d="M262.804 355.902C266.047 355.902 268.675 353.276 268.675 350.036C268.675 346.796 266.047 344.17 262.804 344.17C259.562 344.17 256.934 346.796 256.934 350.036C256.934 353.276 259.562 355.902 262.804 355.902Z" fill="#E5E5E5"/>
<path d="M513.58 504.069C551.144 504.069 581.596 473.639 581.596 436.103C581.596 398.566 551.144 368.137 513.58 368.137C476.016 368.137 445.564 398.566 445.564 436.103C445.564 473.639 476.016 504.069 513.58 504.069Z" fill="#FFE68E"/>
<path d="M532.424 431.767V418.763C532.426 416.289 531.94 413.838 530.994 411.552C530.048 409.266 528.66 407.189 526.91 405.439C525.16 403.689 523.082 402.3 520.795 401.353C518.507 400.406 516.056 399.918 513.58 399.918C511.104 399.918 508.653 400.406 506.365 401.353C504.078 402.3 502 403.689 500.25 405.439C498.5 407.189 497.112 409.266 496.166 411.552C495.22 413.838 494.734 416.289 494.736 418.763V431.767C492.217 431.88 489.839 432.96 488.096 434.781C486.353 436.601 485.38 439.024 485.378 441.543V472.274H541.782V441.543C541.78 439.024 540.807 436.601 539.064 434.781C537.321 432.96 534.943 431.88 532.424 431.767ZM513.58 406.562C516.817 406.566 519.92 407.853 522.209 410.14C524.498 412.427 525.785 415.528 525.789 418.763V431.744H501.371V418.763C501.375 415.528 502.662 412.427 504.951 410.14C507.24 407.853 510.343 406.566 513.58 406.562Z" fill="white"/>
<path d="M518.65 446.943C518.65 446.07 518.425 445.211 517.995 444.45C517.565 443.69 516.945 443.053 516.197 442.602C515.448 442.151 514.595 441.902 513.722 441.877C512.848 441.853 511.982 442.055 511.21 442.463C510.437 442.871 509.783 443.472 509.311 444.208C508.84 444.943 508.566 445.788 508.518 446.66C508.469 447.533 508.647 448.402 509.035 449.186C509.422 449.969 510.005 450.639 510.728 451.13V462.142H516.431V451.13C517.115 450.666 517.675 450.042 518.061 449.312C518.448 448.582 518.65 447.769 518.65 446.943Z" fill="#FFE68E"/>
<path d="M862.004 633.596H482.553C482.289 633.596 482.036 633.491 481.849 633.304C481.662 633.118 481.557 632.864 481.557 632.601C481.557 632.337 481.662 632.083 481.849 631.897C482.036 631.71 482.289 631.605 482.553 631.605H862.004C862.268 631.605 862.522 631.71 862.708 631.897C862.895 632.083 863 632.337 863 632.601C863 632.864 862.895 633.118 862.708 633.304C862.522 633.491 862.268 633.596 862.004 633.596Z" fill="#CBCBCB"/>
</g>
<defs>
<clipPath id="clip0">
<rect width="863" height="634" fill="white"/>
</clipPath>
</defs>
</svg>
