<svg width="662" height="446" fill="none" xmlns="http://www.w3.org/2000/svg"><g clip-path="url(#clip0)"><path d="M594.767 225.22l-5.569 5.497 7.399 19.304 10.321-21.401 16.906-97.159-26.001-.725-3.056 94.484zM552.397 428.57h-14.084l-10.955-124.413h27.387l-2.348 124.413zM605.605 428.57h-14.084l-10.955-124.413h27.387l-2.348 124.413z" fill="#9F616A"/><path d="M594.698 444.8l-20.563-.109a8.295 8.295 0 01-4.058-10.334 8.302 8.302 0 016.404-5.27l3.884-.647 3.385-4.308a6.41 6.41 0 018.418-1.565c3.247 2.06 7.75 2.747 13.302 2.286l4.321 10.553c.857 5.709-3.052 9.475-8.754 10.375a10.503 10.503 0 01-6.339-.981zM541.49 444.8l-20.563-.109a8.295 8.295 0 01-4.058-10.334 8.302 8.302 0 016.404-5.27l3.884-.647 3.764-4.79a5.838 5.838 0 017.838-1.214c3.26 2.162 7.835 2.888 13.503 2.417l4.321 10.553c.857 5.709-3.052 9.475-8.754 10.375a10.503 10.503 0 01-6.339-.981z" fill="#2F2E41"/><path d="M556.31 64.721c11.668 0 21.127-9.459 21.127-21.127s-9.459-21.126-21.127-21.126-21.126 9.458-21.126 21.126c0 11.668 9.458 21.127 21.126 21.127z" fill="#9F616A"/><path d="M586.826 84.283l-34.429 2.347c.122-11.141-.364-21.233-3.129-27.386l24.256-7.825c.233 9.81 5.379 20.959 13.302 32.864z" fill="#9F616A"/><path d="M607.953 236.865l-88.42-7.043c11.798-39.327 8.106-90.824-3.912-129.433a22.279 22.279 0 0114.311-20.804l22.465-8.604 28.169 3.13 23.753 11.876a21.687 21.687 0 0111.984 19.804c-8.928 35.706-10.003 81.617-8.35 131.074z" fill="#FFE68E"/><path d="M541.443 140.621l-39.906-7.043 3.435-26.62a33.025 33.025 0 0124.135-27.652l7.641-2.066 4.695 63.381z" fill="#FFE68E"/><path d="M517.97 229.04l4.694 6.26-7.042 19.562-10.172-24.257-2.347-98.591 25.821 3.13-10.954 93.896z" fill="#9F616A"/><path d="M585.262 142.186l39.906-7.043-3.435-26.62a33.025 33.025 0 00-24.135-27.652l-7.641-2.066-4.695 63.381z" fill="#FFE68E"/><path d="M610.3 308.069l-32.737 1.565-9.516-46.165-11.555 43.035-34.611.783-6.918-55.607a32.156 32.156 0 016.918-24.205l86.072 3.912 2.347 76.682zM558.266 66.677l15.798-2.992 9.399-16.056a21.343 21.343 0 00-2.499-25 21.343 21.343 0 00-18.942-6.914l-20.474 2.925a13.517 13.517 0 00-11.203 10.097 13.504 13.504 0 00-.256 5.293l13.791 2.346 14.386 30.301z" fill="#2F2E41"/><path d="M548.876 54.158c2.161 0 3.913-2.102 3.913-4.695 0-2.593-1.752-4.695-3.913-4.695-2.161 0-3.912 2.102-3.912 4.695 0 2.593 1.751 4.695 3.912 4.695z" fill="#9F616A"/><path d="M98.956 9.557a8.617 8.617 0 00-8.607 8.607v157.277a8.617 8.617 0 008.607 8.607h3.912a8.62 8.62 0 008.607-8.607V18.164a8.616 8.616 0 00-8.607-8.607h-3.912z" fill="#E6E6E6"/><path d="M98.955 13.078a5.093 5.093 0 00-5.086 5.086v157.277a5.09 5.09 0 005.086 5.086h3.913a5.09 5.09 0 005.086-5.086V18.164a5.092 5.092 0 00-5.086-5.086h-3.913z" fill="#fff"/><path d="M163.118 9.557a8.615 8.615 0 00-8.607 8.607v157.277a8.615 8.615 0 008.607 8.607h3.912a8.62 8.62 0 008.607-8.607V18.164a8.616 8.616 0 00-8.607-8.607h-3.912z" fill="#E6E6E6"/><path d="M163.118 13.078a5.09 5.09 0 00-5.086 5.086v157.277a5.09 5.09 0 005.086 5.086h3.913a5.09 5.09 0 005.086-5.086V18.164a5.092 5.092 0 00-5.086-5.086h-3.913z" fill="#fff"/><path d="M227.281 9.557a8.615 8.615 0 00-8.607 8.607v157.277a8.615 8.615 0 008.607 8.607h3.912a8.62 8.62 0 008.608-8.607V18.164a8.621 8.621 0 00-8.608-8.607h-3.912z" fill="#E6E6E6"/><path d="M227.28 13.078a5.09 5.09 0 00-5.086 5.086v157.277a5.09 5.09 0 005.086 5.086h3.913a5.09 5.09 0 005.086-5.086V18.164a5.092 5.092 0 00-5.086-5.086h-3.913z" fill="#fff"/><path d="M291.443 9.557a8.615 8.615 0 00-8.607 8.607v157.277a8.617 8.617 0 008.607 8.607h3.912a8.62 8.62 0 008.608-8.607V18.164a8.621 8.621 0 00-8.608-8.607h-3.912z" fill="#E6E6E6"/><path d="M291.443 13.078a5.09 5.09 0 00-5.086 5.086v157.277a5.09 5.09 0 005.086 5.086h3.913a5.095 5.095 0 005.086-5.086V18.164a5.095 5.095 0 00-5.086-5.086h-3.913z" fill="#fff"/><path d="M355.606 9.557a8.615 8.615 0 00-8.607 8.607v157.277a8.617 8.617 0 008.607 8.607h3.913a8.617 8.617 0 008.607-8.607V18.164a8.621 8.621 0 00-8.607-8.607h-3.913z" fill="#E6E6E6"/><path d="M355.606 13.078a5.091 5.091 0 00-5.086 5.086v157.277a5.091 5.091 0 005.086 5.086h3.912a5.095 5.095 0 005.086-5.086V18.164a5.095 5.095 0 00-5.086-5.086h-3.912z" fill="#fff"/><path d="M113.633 60.441h-24.66a8.023 8.023 0 01-8.014-8.014v-1.233a8.023 8.023 0 018.014-8.015h24.66a8.025 8.025 0 018.014 8.015v1.233a8.023 8.023 0 01-8.014 8.014zM179.361 86.263h-24.66a8.025 8.025 0 01-8.014-8.015v-1.233a8.023 8.023 0 018.014-8.014h24.66a8.023 8.023 0 018.014 8.014v1.233a8.02 8.02 0 01-8.014 8.015zM241.958 137.123h-24.659a8.022 8.022 0 01-8.015-8.014v-1.233a8.03 8.03 0 012.35-5.665 8.03 8.03 0 015.665-2.35h24.659a8.03 8.03 0 015.665 2.35 8.03 8.03 0 012.35 5.665v1.233a8.026 8.026 0 01-8.015 8.014zM306.12 44.792h-24.659a8.025 8.025 0 01-8.015-8.015v-1.233a8.025 8.025 0 018.015-8.014h24.659a8.025 8.025 0 018.015 8.014v1.233a8.025 8.025 0 01-8.015 8.014zM370.283 105.824h-24.659a8.022 8.022 0 01-8.015-8.014v-1.233a8.025 8.025 0 018.015-8.014h24.659a8.025 8.025 0 018.015 8.014v1.233a8.026 8.026 0 01-8.015 8.014z" fill="#FFE68E"/><path d="M661.56 446H452.326v-1.71h209.543l-.309 1.71z" fill="#3F3D56"/><path d="M101.303 225.519c5.618 0 10.172-4.554 10.172-10.172s-4.554-10.172-10.172-10.172-10.172 4.554-10.172 10.172 4.554 10.172 10.172 10.172zM165.466 225.519c5.618 0 10.172-4.554 10.172-10.172s-4.554-10.172-10.172-10.172-10.172 4.554-10.172 10.172 4.554 10.172 10.172 10.172zM229.628 225.519c5.618 0 10.172-4.554 10.172-10.172s-4.554-10.172-10.172-10.172-10.172 4.554-10.172 10.172 4.554 10.172 10.172 10.172zM293.791 225.519c5.618 0 10.172-4.554 10.172-10.172s-4.554-10.172-10.172-10.172-10.172 4.554-10.172 10.172 4.554 10.172 10.172 10.172zM357.953 225.519c5.618 0 10.172-4.554 10.172-10.172s-4.554-10.172-10.172-10.172-10.172 4.554-10.172 10.172 4.554 10.172 10.172 10.172zM22.532 0a22.532 22.532 0 100 45.065 22.532 22.532 0 000-45.065zm0 41.736a19.203 19.203 0 110-38.407 19.203 19.203 0 010 38.407z" fill="#E6E6E6"/><path d="M21.287 30.238a1.188 1.188 0 01-.84-.348l-6.42-6.42a1.188 1.188 0 111.681-1.681l5.44 5.44 9.643-13.15a1.189 1.189 0 111.917 1.407L22.246 29.752a1.19 1.19 0 01-.959.486z" fill="#FFE68E"/></g><defs><clipPath id="clip0"><path fill="#fff" d="M0 0h661.869v446H0z"/></clipPath></defs></svg>