<svg width="569" height="446" viewBox="0 0 569 446" fill="none" xmlns="http://www.w3.org/2000/svg">
<g clip-path="url(#clip0)">
<path d="M515.822 349.812L514.582 349.433L51.7432 208.256L53.0164 207.621L370.746 48.9568L370.996 49.4752L515.822 349.812ZM54.7969 208.001L513.673 347.969L370.223 50.487L54.7969 208.001Z" fill="#E6E6E6"/>
<path d="M566.313 287.316H451.064V378.503H566.313V287.316Z" fill="white"/>
<path d="M568.587 380.777H448.79V285.042H568.587V380.777ZM453.338 376.229H564.039V289.591H453.338V376.229Z" fill="#E6E6E6"/>
<path d="M117.523 163.747H2.27441V254.934H117.523V163.747Z" fill="white"/>
<path d="M119.798 257.208H0V161.473H119.798V257.208ZM4.54854 252.66H115.249V166.022H4.54854V252.66Z" fill="#E6E6E6"/>
<path d="M436.679 2.27411H321.431V93.4611H436.679V2.27411Z" fill="white"/>
<path d="M438.954 95.7352H319.156V0H438.954V95.7352ZM323.705 91.1867H434.405V4.54854H323.705V91.1867Z" fill="#E6E6E6"/>
<path d="M364.293 35.0935L393.816 48.1516L364.293 60.6412V35.0935Z" fill="#FFE68E"/>
<path d="M84.1299 194.772H35.668V199.192H84.1299V194.772Z" fill="#FFE68E"/>
<path d="M84.1299 207.131H35.668V211.551H84.1299V207.131Z" fill="#FFE68E"/>
<path d="M84.1299 219.489H35.668V223.91H84.1299V219.489Z" fill="#FFE68E"/>
<path d="M489.386 339.155C492.835 339.155 495.631 336.359 495.631 332.91C495.631 329.461 492.835 326.665 489.386 326.665C485.937 326.665 483.141 329.461 483.141 332.91C483.141 336.359 485.937 339.155 489.386 339.155Z" fill="#FFE68E"/>
<path d="M508.688 339.155C512.137 339.155 514.933 336.359 514.933 332.91C514.933 329.461 512.137 326.665 508.688 326.665C505.239 326.665 502.443 329.461 502.443 332.91C502.443 336.359 505.239 339.155 508.688 339.155Z" fill="#FFE68E"/>
<path d="M527.991 339.155C531.44 339.155 534.236 336.359 534.236 332.91C534.236 329.461 531.44 326.665 527.991 326.665C524.542 326.665 521.746 329.461 521.746 332.91C521.746 336.359 524.542 339.155 527.991 339.155Z" fill="#FFE68E"/>
<path d="M223.11 273.236C223.731 272.092 224.094 270.825 224.173 269.526C224.252 268.226 224.045 266.925 223.567 265.714C223.089 264.503 222.351 263.411 221.405 262.516C220.46 261.621 219.329 260.944 218.094 260.534L216.626 240.234L204.072 238.117L206.548 266.755C205.995 268.877 206.24 271.127 207.235 273.08C208.231 275.033 209.909 276.553 211.95 277.352C213.992 278.151 216.255 278.173 218.312 277.414C220.369 276.656 222.076 275.169 223.11 273.236H223.11Z" fill="#A0616A"/>
<path d="M261.064 434.082L272.709 434.081L278.249 389.166L261.062 389.166L261.064 434.082Z" fill="#A0616A"/>
<path d="M258.094 430.28L281.026 430.279H281.027C284.903 430.279 288.62 431.819 291.361 434.559C294.102 437.3 295.641 441.017 295.642 444.893V445.368L258.094 445.369L258.094 430.28Z" fill="#2F2E41"/>
<path d="M223.071 434.082L234.716 434.081L240.256 389.166L223.07 389.166L223.071 434.082Z" fill="#A0616A"/>
<path d="M220.101 430.28L243.034 430.279H243.035C246.911 430.279 250.628 431.819 253.368 434.559C256.109 437.3 257.649 441.017 257.649 444.893V445.368L220.102 445.369L220.101 430.28Z" fill="#2F2E41"/>
<path d="M220.017 237.28L214.318 269.466L221.917 419.538H239.017L248.458 345.722L252.311 289.412L258.388 419.538L276.057 420.813L286.276 346.227L288.879 271.84L286.135 237.28H220.017Z" fill="#2F2E41"/>
<path d="M243.288 138.864L268.933 143.614L276.057 235.272C276.057 235.272 244.712 249.519 233.315 237.171C221.917 224.824 243.288 138.864 243.288 138.864Z" fill="#CCCCCC"/>
<path d="M293.153 157.386L268.933 143.614L265.608 206.777C265.608 206.777 264.659 280.863 283.655 280.863L297.902 276.114L290.304 214.375L293.153 157.386Z" fill="#2F2E41"/>
<path d="M214.318 151.687L243.288 138.864L246.612 194.429C246.612 194.429 256.11 268.515 225.716 271.365C225.716 271.365 217.167 272.315 213.368 265.666L219.067 210.576L214.318 151.687Z" fill="#2F2E41"/>
<path d="M220.017 154.537L214.318 151.687C214.318 151.687 211.468 151.687 210.519 153.587C209.569 155.486 197.688 210.576 197.688 210.576L204.958 262.015L219.067 255.218L216.132 212.238L220.017 154.537Z" fill="#2F2E41"/>
<path d="M282.797 279.75C282.087 278.658 281.625 277.425 281.444 276.135C281.262 274.846 281.366 273.532 281.747 272.287C282.128 271.042 282.777 269.896 283.649 268.929C284.521 267.962 285.595 267.198 286.794 266.691L286.654 246.338L299.001 243.237L298.795 271.981C299.514 274.052 299.448 276.315 298.609 278.34C297.771 280.366 296.219 282.013 294.247 282.971C292.275 283.929 290.02 284.13 287.91 283.536C285.8 282.942 283.981 281.595 282.797 279.75H282.797Z" fill="#A0616A"/>
<path d="M282.705 158.336L293.153 157.386C293.153 157.386 296.953 158.755 297.903 170.418C298.852 182.081 298.852 211.343 298.852 211.343L301.702 263.766H285.555L280.806 210.576L282.705 158.336Z" fill="#2F2E41"/>
<path d="M259.274 130.955C271.599 130.955 281.59 120.965 281.59 108.64C281.59 96.3157 271.599 86.3248 259.274 86.3248C246.95 86.3248 236.959 96.3157 236.959 108.64C236.959 120.965 246.95 130.955 259.274 130.955Z" fill="#A0616A"/>
<path d="M255.947 113.194L255.638 107.895C255.566 106.66 255.948 104.939 257.182 105.028C258.231 105.103 260.568 105.513 260.878 105.183C262.039 103.946 264.434 105.208 265.687 104.064C266.212 103.585 266.446 102.74 267.13 102.547C267.602 102.482 268.082 102.592 268.479 102.855C269.569 103.472 270.781 103.843 272.029 103.942C272.654 103.982 273.278 103.855 273.837 103.574C274.396 103.292 274.869 102.866 275.208 102.34C275.312 102.075 275.476 101.838 275.687 101.648C275.952 101.509 276.256 101.462 276.551 101.513L280.398 101.764C280.538 99.7113 280.234 97.6523 279.506 95.728C278.778 93.8036 277.642 92.0591 276.178 90.6138C274.291 88.9075 272.141 87.5166 269.811 86.4946C267.204 85.2366 264.546 84.0954 261.837 83.0709C258.87 81.9451 255.764 80.9458 252.595 81.1044C249.426 81.263 246.154 82.7983 244.716 85.6264C243.673 85.1532 242.801 84.3689 242.221 83.3809C242.045 83.6223 241.923 83.8994 241.865 84.1929C241.807 84.4863 241.815 84.7889 241.887 85.0792C241.958 85.3695 242.093 85.6405 242.281 85.8731C242.469 86.1056 242.706 86.2941 242.975 86.4251L239.492 85.0837C238.81 86.1699 240.839 87.4754 240.308 88.6423C240.136 88.9392 239.887 89.1846 239.588 89.3531C238.047 90.346 236.709 91.6237 235.647 93.1176C234.236 95.2548 233.765 97.8622 233.421 100.399C232.656 106.043 232.551 112.358 236.164 116.761C236.574 117.26 242.358 125.696 242.951 125.95C244.958 126.809 243.214 124.097 244.826 125.568C246.09 126.722 244.85 121.574 246.55 122.413C247.21 122.708 247.941 122.806 248.655 122.694C249.369 122.581 250.035 122.265 250.572 121.782C251.095 121.236 250.422 118.93 249.655 116.843C249.509 116.446 249.462 116.019 249.519 115.599C249.577 115.179 249.736 114.78 249.983 114.436C250.231 114.093 250.559 113.815 250.938 113.627C251.318 113.44 251.738 113.348 252.161 113.361C254.078 113.419 255.961 113.419 255.947 113.194Z" fill="#2F2E41"/>
<path d="M350.425 446H163.177C162.976 446 162.783 445.92 162.641 445.778C162.499 445.636 162.419 445.443 162.419 445.242C162.419 445.041 162.499 444.848 162.641 444.706C162.783 444.564 162.976 444.484 163.177 444.484H350.425C350.626 444.484 350.819 444.564 350.961 444.706C351.104 444.848 351.184 445.041 351.184 445.242C351.184 445.443 351.104 445.636 350.961 445.778C350.819 445.92 350.626 446 350.425 446Z" fill="#CCCCCC"/>
</g>
<defs>
<clipPath id="clip0">
<rect width="568.587" height="446" fill="white"/>
</clipPath>
</defs>
</svg>
