<svg width="255" height="200" viewBox="0 0 255 200" fill="none" xmlns="http://www.w3.org/2000/svg">
<g clip-path="url(#clip0)">
<path d="M46.3908 23.5892C45.9127 23.6418 45.452 23.7982 45.0412 24.0475C44.6303 24.2967 44.2793 24.6327 44.0128 25.0318C43.7463 25.4309 43.5709 25.8834 43.4988 26.3574C43.4268 26.8314 43.4599 27.3154 43.5958 27.7753L34.0835 34.5507L39.7535 36.7256L47.9173 29.9582C48.6772 29.6794 49.3082 29.1325 49.6906 28.421C50.073 27.7095 50.1802 26.8829 49.9921 26.0979C49.8039 25.3128 49.3334 24.6238 48.6696 24.1614C48.0059 23.6991 47.1951 23.4955 46.3908 23.5892L46.3908 23.5892Z" fill="#FFB8B8"/>
<path d="M45.5064 33.7943L33.7073 45.628C32.0903 47.2393 29.958 48.235 27.681 48.4422L13.1013 49.7682C12.5668 49.819 12.0275 49.7625 11.5153 49.602C11.003 49.4416 10.5283 49.1804 10.119 48.834C9.55283 48.3616 9.13181 47.7396 8.90432 47.0395C8.67682 46.3393 8.65209 45.5894 8.83295 44.8759C9.01381 44.1624 9.39293 43.5142 9.92676 43.0058C10.4606 42.4974 11.1275 42.1494 11.8508 42.0017L26.7456 38.8405L40.3063 28.8767C40.4948 28.771 40.7078 28.7162 40.9241 28.7178C41.1404 28.7194 41.3526 28.7774 41.5395 28.8859L45.2273 31.8971C45.4492 32.0183 45.6274 32.2057 45.737 32.433C45.8466 32.6603 45.882 32.9161 45.8383 33.1645C45.7953 33.4035 45.6794 33.6234 45.5064 33.7943Z" fill="#2F2E41"/>
<path d="M186.969 40.1538C187.057 39.346 186.893 38.5308 186.5 37.819C186.106 37.1072 185.503 36.5334 184.771 36.1755L111.341 0.401931C110.874 0.174215 110.366 0.0404046 109.848 0.00814349C109.329 -0.0241176 108.809 0.0457996 108.317 0.213905C107.825 0.382009 107.371 0.645011 106.982 0.98789C106.592 1.33077 106.274 1.74681 106.045 2.21226L106.044 2.21501L78.5029 58.3825C78.0432 59.3234 77.9766 60.4074 78.3175 61.3972C78.6585 62.3869 79.3793 63.2014 80.3218 63.6623L153.752 99.4359C154.696 99.8941 155.784 99.9605 156.776 99.6206C157.769 99.2807 158.587 98.5623 159.049 97.6228L186.59 41.4553C186.791 41.0467 186.919 40.6063 186.969 40.1538Z" fill="#F2F2F2"/>
<path d="M143.951 164.818H48.6714C47.4719 164.817 46.3218 164.341 45.4736 163.496C44.6254 162.65 44.1483 161.504 44.147 160.308V31.38C44.1483 30.1843 44.6254 29.038 45.4736 28.1925C46.3218 27.347 47.4719 26.8715 48.6714 26.8701H143.951C145.15 26.8715 146.3 27.347 147.149 28.1925C147.997 29.038 148.474 30.1843 148.475 31.38V160.308C148.474 161.504 147.997 162.65 147.149 163.496C146.3 164.341 145.15 164.817 143.951 164.818Z" fill="white"/>
<path d="M73.9428 65.3156C77.3759 65.3156 80.159 62.5415 80.159 59.1195C80.159 55.6974 77.3759 52.9233 73.9428 52.9233C70.5096 52.9233 67.7266 55.6974 67.7266 59.1195C67.7266 62.5415 70.5096 65.3156 73.9428 65.3156Z" fill="#E6E6E6"/>
<path d="M64.4688 76.0544C65.3471 76.5521 66.2664 76.9744 67.2166 77.3167L67.3845 77.3746C69.2985 78.0444 71.3126 78.3854 73.3411 78.3831C73.7493 78.3831 74.1424 78.3689 74.5097 78.3412C75.4036 78.2866 76.292 78.1645 77.1674 77.9759C77.6477 77.8713 78.1266 77.7461 78.5899 77.6044C78.702 77.5715 78.8058 77.5391 78.9193 77.5036C80.8076 76.8934 82.582 75.9769 84.171 74.7911C84.0435 74.5506 83.9038 74.3167 83.7526 74.0903C82.9355 72.8459 81.8201 71.8243 80.5071 71.1178C79.1942 70.4114 77.7252 70.0425 76.2332 70.0444H72.9616C71.2359 70.0448 69.5467 70.5395 68.0951 71.4696C66.6435 72.3998 65.4907 73.7262 64.774 75.2909C64.6594 75.5401 64.5576 75.795 64.4688 76.0544Z" fill="#E6E6E6"/>
<path d="M76.0521 77.8212C75.8433 77.8366 75.6424 77.9068 75.4697 78.0248C76.3469 77.9704 77.2186 77.8498 78.0775 77.6641L76.0521 77.8212Z" fill="#2F2E41"/>
<path d="M74.3196 42.3052C70.316 42.3056 66.4245 43.6233 63.2492 46.0539C60.0738 48.4844 57.7922 51.8918 56.7585 55.7471C55.7248 59.6025 55.9968 63.6902 57.5323 67.3756C59.0678 71.0611 61.7809 74.1383 65.2504 76.1296C66.1715 76.6612 67.1383 77.1097 68.1394 77.4699L68.3095 77.5286C70.2406 78.2044 72.2729 78.5485 74.3196 78.5461C74.7155 78.5461 75.1113 78.533 75.5006 78.5037C76.4019 78.4485 77.2976 78.3253 78.1801 78.1352C78.6742 78.0276 79.1585 77.9004 79.6165 77.7601C79.7276 77.7275 79.8323 77.6949 79.9468 77.659C84.0616 76.3231 87.5634 73.568 89.8227 69.889C92.082 66.2099 92.9507 61.8482 92.2726 57.588C91.5945 53.3277 89.414 49.4482 86.1233 46.6468C82.8325 43.8455 78.6472 42.306 74.3196 42.3052L74.3196 42.3052ZM84.8674 74.0001C83.2991 75.2064 81.5338 76.1342 79.6492 76.7427C79.5478 76.7753 79.443 76.8079 79.3383 76.8405C78.9032 76.9742 78.4452 77.0916 77.9741 77.1927C77.1391 77.3743 76.2915 77.4921 75.4385 77.5449C75.0688 77.571 74.6925 77.584 74.3196 77.584C72.3823 77.5852 70.4587 77.2599 68.6301 76.622L68.4699 76.5665C67.4741 76.2099 66.5145 75.76 65.6038 75.223C62.4321 73.3617 59.943 70.5356 58.5022 67.1597C57.0613 63.7839 56.7448 60.0364 57.5991 56.4679C58.4533 52.8995 60.4334 49.6983 63.2482 47.3346C66.063 44.971 69.5642 43.5697 73.2373 43.3365C76.9104 43.1033 80.5616 44.0506 83.6545 46.0392C86.7474 48.0277 89.1189 50.9527 90.4205 54.3843C91.722 57.8159 91.885 61.5731 90.8855 65.1039C89.8859 68.6347 87.7766 71.7528 84.8674 74V74.0001Z" fill="#CCCCCC"/>
<path d="M143.951 164.818H48.6714C47.4719 164.817 46.3218 164.341 45.4736 163.496C44.6254 162.65 44.1483 161.504 44.147 160.308V31.38C44.1483 30.1843 44.6254 29.038 45.4736 28.1925C46.3218 27.347 47.4719 26.8715 48.6714 26.8701H143.951C145.15 26.8715 146.3 27.347 147.149 28.1925C147.997 29.038 148.474 30.1843 148.475 31.38V160.308C148.474 161.504 147.997 162.65 147.149 163.496C146.3 164.341 145.15 164.817 143.951 164.818ZM48.6714 27.4007C47.613 27.4019 46.5983 27.8215 45.8499 28.5675C45.1014 29.3135 44.6805 30.325 44.6793 31.38V160.308C44.6805 161.363 45.1014 162.375 45.8499 163.121C46.5983 163.867 47.613 164.286 48.6714 164.288H143.951C145.009 164.286 146.024 163.867 146.772 163.121C147.521 162.375 147.942 161.363 147.943 160.308V31.38C147.942 30.325 147.521 29.3135 146.772 28.5675C146.024 27.8215 145.009 27.4019 143.951 27.4007L48.6714 27.4007Z" fill="#CCCCCC"/>
<path d="M125.506 60.3556H98.545C97.9793 60.3556 97.4368 60.1316 97.0368 59.7329C96.6368 59.3342 96.4121 58.7934 96.4121 58.2295C96.4121 57.6657 96.6368 57.1249 97.0368 56.7262C97.4368 56.3275 97.9793 56.1035 98.545 56.1035H125.506C126.071 56.1035 126.614 56.3275 127.014 56.7262C127.414 57.1249 127.639 57.6657 127.639 58.2295C127.639 58.7934 127.414 59.3342 127.014 59.7329C126.614 60.1316 126.071 60.3556 125.506 60.3556Z" fill="#E6E6E6"/>
<path d="M134.304 67.5309H98.545C97.9793 67.5309 97.4368 67.3069 97.0368 66.9082C96.6368 66.5095 96.4121 65.9687 96.4121 65.4048C96.4121 64.841 96.6368 64.3002 97.0368 63.9015C97.4368 63.5028 97.9793 63.2788 98.545 63.2788H134.304C134.87 63.2788 135.412 63.5028 135.812 63.9015C136.212 64.3002 136.437 64.841 136.437 65.4048C136.437 65.9687 136.212 66.5095 135.812 66.9082C135.412 67.3069 134.87 67.5309 134.304 67.5309Z" fill="#E6E6E6"/>
<path d="M125.466 95.0514H58.318C57.7523 95.0514 57.2098 94.8274 56.8098 94.4287C56.4098 94.03 56.1851 93.4892 56.1851 92.9253C56.1851 92.3615 56.4098 91.8207 56.8098 91.422C57.2098 91.0233 57.7523 90.7993 58.318 90.7993H125.466C126.032 90.7993 126.575 91.0233 126.975 91.422C127.375 91.8207 127.599 92.3615 127.599 92.9253C127.599 93.4892 127.375 94.03 126.975 94.4287C126.575 94.8274 126.032 95.0514 125.466 95.0514Z" fill="#E6E6E6"/>
<path d="M134.265 102.226H58.318C57.7523 102.226 57.2098 102.002 56.8098 101.603C56.4098 101.205 56.1851 100.664 56.1851 100.1C56.1851 99.5363 56.4098 98.9955 56.8098 98.5968C57.2098 98.1981 57.7523 97.9741 58.318 97.9741H134.265C134.83 97.9741 135.373 98.1981 135.773 98.5968C136.173 98.9955 136.398 99.5363 136.398 100.1C136.398 100.664 136.173 101.205 135.773 101.603C135.373 102.002 134.83 102.226 134.265 102.226Z" fill="#E6E6E6"/>
<path d="M125.466 118.718H58.318C57.7523 118.718 57.2098 118.494 56.8098 118.095C56.4098 117.696 56.1851 117.156 56.1851 116.592C56.1851 116.028 56.4098 115.487 56.8098 115.089C57.2098 114.69 57.7523 114.466 58.318 114.466H125.466C126.032 114.466 126.575 114.69 126.975 115.089C127.375 115.487 127.599 116.028 127.599 116.592C127.599 117.156 127.375 117.696 126.975 118.095C126.575 118.494 126.032 118.718 125.466 118.718Z" fill="#E6E6E6"/>
<path d="M134.265 125.894H58.318C57.7523 125.894 57.2098 125.67 56.8098 125.271C56.4098 124.872 56.1851 124.331 56.1851 123.768C56.1851 123.204 56.4098 122.663 56.8098 122.264C57.2098 121.866 57.7523 121.642 58.318 121.642H134.265C134.83 121.642 135.373 121.866 135.773 122.264C136.173 122.663 136.398 123.204 136.398 123.768C136.398 124.331 136.173 124.872 135.773 125.271C135.373 125.67 134.83 125.894 134.265 125.894Z" fill="#E6E6E6"/>
<path d="M125.466 142.385H58.318C57.7523 142.385 57.2098 142.161 56.8098 141.762C56.4098 141.363 56.1851 140.823 56.1851 140.259C56.1851 139.695 56.4098 139.154 56.8098 138.755C57.2098 138.357 57.7523 138.133 58.318 138.133H125.466C126.032 138.133 126.575 138.357 126.975 138.755C127.375 139.154 127.599 139.695 127.599 140.259C127.599 140.823 127.375 141.363 126.975 141.762C126.575 142.161 126.032 142.385 125.466 142.385Z" fill="#E6E6E6"/>
<path d="M134.265 149.561H58.318C57.7523 149.561 57.2098 149.337 56.8098 148.938C56.4098 148.539 56.1851 147.998 56.1851 147.435C56.1851 146.871 56.4098 146.33 56.8098 145.931C57.2098 145.533 57.7523 145.309 58.318 145.309H134.265C134.83 145.309 135.372 145.534 135.771 145.932C136.171 146.331 136.395 146.871 136.395 147.435C136.395 147.998 136.171 148.538 135.771 148.937C135.372 149.336 134.83 149.56 134.265 149.561Z" fill="#E6E6E6"/>
<path d="M183.697 77.0049C183.785 76.197 183.621 75.3818 183.228 74.6701C182.835 73.9583 182.231 73.3845 181.5 73.0266L108.069 37.253C107.602 37.0253 107.095 36.8915 106.576 36.8592C106.057 36.827 105.537 36.8969 105.045 37.065C104.554 37.2331 104.1 37.4961 103.71 37.839C103.32 38.1818 103.002 38.5979 102.774 39.0633L102.772 39.0661L75.2314 95.2336C74.7717 96.1744 74.7051 97.2585 75.046 98.2482C75.387 99.2379 76.1078 100.053 77.0503 100.513L150.481 136.287C151.424 136.745 152.512 136.812 153.505 136.472C154.498 136.132 155.315 135.413 155.777 134.474L183.318 78.3063C183.52 77.8977 183.648 77.4573 183.697 77.0049Z" fill="white"/>
<path d="M183.697 77.0049C183.785 76.197 183.621 75.3818 183.228 74.6701C182.835 73.9583 182.231 73.3845 181.5 73.0266L108.069 37.253C107.602 37.0253 107.095 36.8915 106.576 36.8592C106.057 36.827 105.537 36.8969 105.045 37.065C104.554 37.2331 104.1 37.4961 103.71 37.839C103.32 38.1818 103.002 38.5979 102.774 39.0633L102.772 39.0661L75.2314 95.2336C74.7717 96.1744 74.7051 97.2585 75.046 98.2482C75.387 99.2379 76.1078 100.053 77.0503 100.513L150.481 136.287C151.424 136.745 152.512 136.812 153.505 136.472C154.498 136.132 155.315 135.413 155.777 134.474L183.318 78.3063C183.52 77.8977 183.648 77.4573 183.697 77.0049ZM155.359 134.27C154.951 135.099 154.23 135.733 153.354 136.033C152.478 136.333 151.518 136.274 150.685 135.87L77.2549 100.096C76.4231 99.6896 75.787 98.9709 75.4862 98.0976C75.1853 97.2243 75.2442 96.2676 75.65 95.4375L103.191 39.27C103.599 38.4409 104.32 37.8069 105.196 37.507C106.072 37.2071 107.032 37.2658 107.865 37.6702L181.295 73.4438C182.127 73.8503 182.763 74.569 183.064 75.4424C183.365 76.3157 183.306 77.2723 182.9 78.1024L155.359 134.27Z" fill="#3F3D56"/>
<path d="M175.688 79.5589L156.457 118.779C156.329 119.041 156.101 119.241 155.825 119.336C155.548 119.431 155.246 119.412 154.983 119.284H154.983L88.1882 86.7432C88.1404 86.7204 88.0947 86.6936 88.0516 86.663C87.8325 86.5144 87.6746 86.2921 87.6067 86.0368C87.5387 85.7816 87.5654 85.5104 87.6817 85.2732L106.913 46.0531C106.976 45.9234 107.065 45.8075 107.173 45.712C107.282 45.6164 107.408 45.5431 107.545 45.4962C107.682 45.4493 107.827 45.4297 107.971 45.4386C108.116 45.4475 108.257 45.4846 108.387 45.548L175.182 78.0889C175.444 78.2168 175.645 78.4434 175.74 78.719C175.835 78.9945 175.817 79.2964 175.688 79.5583V79.5583L175.688 79.5589Z" fill="#E6E6E6"/>
<path d="M117.047 77.5669C122.39 77.5669 126.721 73.25 126.721 67.9248C126.721 62.5996 122.39 58.2827 117.047 58.2827C111.705 58.2827 107.374 62.5996 107.374 67.9248C107.374 73.25 111.705 77.5669 117.047 77.5669Z" fill="#FFE68E"/>
<path d="M131.211 107.898L88.5765 87.1273C88.5228 87.102 88.4715 87.0718 88.4233 87.0371L125.658 62.0462C125.888 61.8894 126.155 61.796 126.432 61.7757C126.71 61.7554 126.987 61.8088 127.237 61.9306C127.487 62.0523 127.7 62.238 127.855 62.4687C128.009 62.6994 128.099 62.9668 128.116 63.2435L130.193 93.1995L130.293 94.6333L131.211 107.898Z" fill="#3F3D56"/>
<path opacity="0.2" d="M131.211 107.897L116.654 100.806L128.873 93.9411L129.753 93.4467L130.193 93.1992L130.293 94.6328L131.211 107.897Z" fill="black"/>
<path d="M154.949 119.463L118.074 101.498L130.293 94.633L131.173 94.1383L147.095 85.1919C148.139 84.6057 149.634 85.2661 149.974 86.3878C149.996 86.4639 150.013 86.5414 150.026 86.6198L154.949 119.463Z" fill="#3F3D56"/>
<path d="M41.1724 122.885L45.1831 122.885L47.0915 107.464L41.1714 107.464L41.1724 122.885Z" fill="#FFB8B8"/>
<path d="M40.1489 121.58L48.048 121.58H48.0483C48.7094 121.58 49.364 121.71 49.9748 121.962C50.5855 122.214 51.1405 122.584 51.6079 123.05C52.0754 123.516 52.4462 124.069 52.6991 124.678C52.9521 125.286 53.0823 125.939 53.0823 126.598V126.761L40.1492 126.761L40.1489 121.58Z" fill="#2F2E41"/>
<path d="M9.99561 120.34L14.1513 121.15L19.2643 105.559L13.1312 104.363L9.99561 120.34Z" fill="#FFB8B8"/>
<path d="M9.2008 118.781L17.3847 120.377L17.385 120.377C18.0699 120.511 18.7217 120.777 19.3032 121.162C19.8847 121.547 20.3845 122.042 20.7741 122.619C21.1636 123.196 21.4353 123.844 21.5736 124.526C21.7119 125.208 21.7141 125.91 21.5801 126.593L21.5469 126.762L8.14746 124.149L9.2008 118.781Z" fill="#2F2E41"/>
<path d="M47.008 69.6902C46.8722 69.2303 46.6369 68.8056 46.3187 68.4462C46.0004 68.0867 45.607 67.8012 45.166 67.6097C44.7251 67.4182 44.2474 67.3254 43.7666 67.3379C43.2858 67.3503 42.8136 67.4677 42.3832 67.6817L34.0227 59.5356L32.8691 65.4813L40.9853 72.3054C41.3939 73.0022 42.0448 73.5254 42.8146 73.7759C43.5844 74.0263 44.4196 73.9866 45.162 73.6643C45.9044 73.3419 46.5024 72.7593 46.8426 72.0268C47.1828 71.2944 47.2417 70.463 47.008 69.6902Z" fill="#FFB8B8"/>
<path d="M15.9887 27.761C20.4267 27.761 24.0243 24.175 24.0243 19.7514C24.0243 15.3277 20.4267 11.7417 15.9887 11.7417C11.5508 11.7417 7.95312 15.3277 7.95312 19.7514C7.95312 24.175 11.5508 27.761 15.9887 27.761Z" fill="#FFB8B8"/>
<path d="M14.3013 27.8836C14.7282 28.0698 15.6026 24.6788 15.2109 24.0005C14.6285 22.9919 14.6629 22.9991 14.2763 22.3318C13.8896 21.6645 13.8031 20.7511 14.3038 20.1639C14.8045 19.5768 15.9632 19.6547 16.1917 20.3909C16.0447 18.9925 17.4323 17.8685 18.8067 17.5527C20.1812 17.2368 21.631 17.4329 23.0131 17.1518C24.617 16.8256 26.2858 15.4855 25.6458 13.7274C25.536 13.4347 25.3716 13.1654 25.1613 12.9336C24.4219 12.105 23.3876 11.7511 22.3764 11.409C20.2727 10.6973 18.1115 9.97664 15.8912 10.0552C14.0619 10.1506 12.3002 10.7754 10.8216 11.8532C9.34295 12.9311 8.21163 14.4152 7.56604 16.1239C7.41303 16.5514 7.2945 16.9904 7.21157 17.4366C6.44952 21.5209 8.82899 25.5496 12.6937 27.1049L14.3013 27.8836Z" fill="#2F2E41"/>
<path d="M12.3286 71.8837C12.1237 71.7602 11.9594 71.5797 11.8561 71.3643C11.7527 71.149 11.7148 70.9082 11.747 70.6716L8.12094 52.7676L4.44542 39.0269H4.44549C4.04198 37.5213 4.16385 35.9236 4.7911 34.4961C5.41835 33.0686 6.51373 31.896 7.89754 31.1706L10.3274 28.8789L15.6283 31.1553L18.1472 33.7082C19.9538 34.585 21.5564 35.8289 22.852 37.36C24.1476 38.8911 25.1074 40.6754 25.6698 42.5982L29.7098 56.3781L39.0398 70.214C39.1956 70.4446 39.2684 70.7209 39.2465 70.9981C39.2245 71.2752 39.1091 71.5367 38.9189 71.7401C37.621 73.1318 12.3286 71.8837 12.3286 71.8837Z" fill="#2F2E41"/>
<path d="M36.7726 70.6119L23.015 61.1091C21.1398 59.8049 19.7823 57.8872 19.1783 55.689L15.3112 41.6143C15.1672 41.0987 15.1284 40.5596 15.197 40.0288C15.2656 39.498 15.4403 38.9862 15.7107 38.5239C16.0779 37.8854 16.6184 37.3631 17.27 37.0171C17.9216 36.671 18.6579 36.5152 19.3944 36.5675C20.1309 36.6198 20.8376 36.8782 21.4334 37.3128C22.0292 37.7475 22.4899 38.3409 22.7626 39.0248L28.4977 53.0868L40.7174 64.6463C40.855 64.8128 40.9464 65.0122 40.9828 65.2247C41.0191 65.4373 40.9991 65.6556 40.9247 65.8581L38.5975 70.0052C38.5167 70.2442 38.3629 70.452 38.1576 70.5994C37.9523 70.7468 37.7059 70.8265 37.4529 70.8272C37.2093 70.8269 36.9718 70.7517 36.7726 70.6119Z" fill="#2F2E41"/>
<path d="M8.19102 117.953C8.07855 117.793 8.00652 117.607 7.98104 117.413C7.95556 117.219 7.97736 117.021 8.04461 116.837L14.4092 93.7747L14.8797 71.1767L36.3048 69.7121L36.4088 69.7051L42.8619 81.3633C44.8822 85.0082 46.119 89.0326 46.4935 93.1801L48.6201 116.409C48.6523 116.725 48.5589 117.04 48.36 117.288C48.1611 117.536 47.8727 117.696 47.5566 117.734L41.0965 118.347C40.7852 118.385 40.4715 118.3 40.2222 118.11C39.9729 117.921 39.8077 117.641 39.762 117.332L37.1387 93.7272L27.7 77.8308L24.5317 94.5664L17.9678 117.678C17.882 117.908 17.7278 118.108 17.5257 118.249C17.3236 118.39 17.0832 118.467 16.8364 118.469L9.18057 118.472C8.98566 118.473 8.79349 118.426 8.62095 118.336C8.44842 118.245 8.30079 118.114 8.19102 117.953Z" fill="#2F2E41"/>
<path d="M172.243 193.804H10.7966C7.93413 193.801 5.18986 192.666 3.16581 190.648C1.14176 188.631 0.0032334 185.895 0 183.042V94.6655C0.0032334 91.8123 1.14176 89.0769 3.16581 87.0594C5.18986 85.0419 7.93413 83.907 10.7966 83.9038H30.5911C33.2769 83.9015 35.8667 84.8994 37.8527 86.7017L59.3187 101.98C60.7182 103.255 62.5459 103.961 64.4417 103.96H173.245C174.676 103.96 176.093 104.243 177.413 104.794C178.733 105.345 179.93 106.152 180.935 107.168C181.939 108.184 182.731 109.389 183.264 110.712C183.798 112.036 184.061 113.452 184.04 114.879L183.038 183.199C182.985 186.022 181.826 188.712 179.808 190.694C177.791 192.676 175.075 193.792 172.243 193.804Z" fill="white"/>
<path d="M170.808 188.586H11.7518C10.3709 188.584 9.04708 188.037 8.07066 187.064C7.09425 186.09 6.54502 184.771 6.54346 183.394V93.5729C6.54502 92.1965 7.09426 90.8769 8.07067 89.9036C9.04708 88.9304 10.3709 88.3829 11.7518 88.3813C12.9731 88.3827 14.1441 88.8669 15.0077 89.7278C15.8713 90.5886 16.3571 91.7558 16.3585 92.9732V177.198C16.36 178.488 16.8747 179.725 17.7898 180.637C18.7049 181.549 19.9456 182.062 21.2397 182.064H170.271C171.012 182.056 171.733 182.295 172.321 182.743C172.909 183.192 173.33 183.824 173.515 184.538C173.723 185.216 173.697 185.943 173.442 186.604C173.186 187.265 172.716 187.822 172.106 188.186C171.719 188.437 171.27 188.575 170.808 188.586Z" fill="#F2F2F2"/>
<path d="M92.7271 145.45L92.3083 145.033C92.2216 144.952 92.1706 144.84 92.1667 144.721C92.1628 144.603 92.2063 144.488 92.2876 144.401C92.2943 144.394 92.3012 144.387 92.3083 144.381L95.9825 140.715C96.0227 140.672 96.071 140.638 96.1246 140.614C96.1782 140.589 96.2361 140.576 96.2949 140.574C96.3537 140.572 96.4124 140.582 96.4675 140.602C96.5226 140.623 96.573 140.654 96.616 140.694C96.6232 140.701 96.6301 140.708 96.6368 140.715L100.311 144.377C100.354 144.419 100.388 144.468 100.412 144.523C100.436 144.577 100.449 144.636 100.45 144.696C100.451 144.755 100.44 144.814 100.418 144.87C100.396 144.925 100.364 144.975 100.322 145.018L100.311 145.03L99.8921 145.447C99.8506 145.49 99.8011 145.524 99.7463 145.548C99.6916 145.572 99.6327 145.584 99.5729 145.585C99.5132 145.586 99.4539 145.576 99.3983 145.554C99.3428 145.532 99.2921 145.5 99.2491 145.458L99.2378 145.447L97.0654 143.164V148.581C97.0658 148.64 97.0546 148.699 97.0323 148.753C97.01 148.808 96.9771 148.858 96.9355 148.9C96.8938 148.942 96.8443 148.976 96.7897 148.999C96.7351 149.022 96.6765 149.034 96.6172 149.034L96.6139 149.034H96.0086C95.888 149.034 95.7724 148.986 95.6871 148.901C95.6018 148.816 95.5539 148.701 95.5539 148.581V143.171L93.3815 145.454C93.2973 145.54 93.1822 145.589 93.0616 145.59C92.941 145.592 92.8247 145.546 92.7384 145.462L92.7271 145.45Z" fill="#FFE68E"/>
<path d="M96.3034 137.386C97.7781 137.386 99.2197 137.821 100.446 138.638C101.672 139.455 102.628 140.615 103.192 141.974C103.756 143.332 103.904 144.826 103.616 146.268C103.329 147.709 102.618 149.034 101.576 150.073C100.533 151.112 99.2044 151.82 97.758 152.107C96.3117 152.394 94.8125 152.247 93.45 151.684C92.0876 151.122 90.9231 150.169 90.1038 148.947C89.2845 147.725 88.8472 146.288 88.8472 144.818C88.849 142.847 89.6351 140.958 91.033 139.564C92.4309 138.171 94.3264 137.387 96.3034 137.386ZM96.3034 136.407C94.6346 136.407 93.0033 136.9 91.6157 137.825C90.2281 138.749 89.1466 140.062 88.508 141.599C87.8694 143.136 87.7023 144.827 88.0279 146.458C88.3534 148.09 89.157 149.589 90.3371 150.765C91.5171 151.941 93.0205 152.742 94.6573 153.067C96.294 153.391 97.9906 153.224 99.5324 152.588C101.074 151.951 102.392 150.873 103.319 149.49C104.246 148.107 104.741 146.481 104.741 144.818C104.741 142.587 103.852 140.448 102.27 138.871C100.687 137.293 98.5412 136.407 96.3034 136.407Z" fill="#3F3D56"/>
<path d="M172.243 193.804H10.7966C7.93413 193.801 5.18986 192.666 3.16581 190.648C1.14176 188.631 0.0032334 185.895 0 183.042V94.6655C0.0032334 91.8123 1.14176 89.0769 3.16581 87.0594C5.18986 85.0419 7.93413 83.907 10.7966 83.9038H30.5911C33.2769 83.9015 35.8667 84.8994 37.8527 86.7017L59.3187 101.98C60.7182 103.255 62.5459 103.961 64.4417 103.96H173.245C174.676 103.96 176.093 104.243 177.413 104.794C178.733 105.345 179.93 106.152 180.935 107.168C181.939 108.184 182.731 109.389 183.264 110.712C183.798 112.036 184.061 113.452 184.04 114.879L183.038 183.199C182.985 186.022 181.826 188.712 179.808 190.694C177.791 192.676 175.075 193.792 172.243 193.804ZM10.7966 84.556C8.10761 84.5591 5.52968 85.6252 3.6283 87.5204C1.72693 89.4156 0.657393 91.9853 0.654337 94.6655V183.042C0.657393 185.722 1.72693 188.292 3.6283 190.187C5.52968 192.082 8.10761 193.148 10.7966 193.152H172.243C174.904 193.141 177.454 192.092 179.35 190.23C181.245 188.369 182.334 185.842 182.384 183.19L183.386 114.869C183.406 113.529 183.158 112.199 182.657 110.955C182.156 109.712 181.413 108.58 180.469 107.625C179.525 106.671 178.401 105.913 177.161 105.396C175.92 104.878 174.589 104.612 173.245 104.612H64.4417C62.3895 104.614 60.4105 103.852 58.8922 102.476L37.4263 87.1968C35.5591 85.496 33.1205 84.5539 30.5911 84.556H10.7966Z" fill="#3F3D56"/>
<path d="M185.925 195.524H181.914L180.66 180.103L185.926 180.103L185.925 195.524Z" fill="#FFB8B8"/>
<path d="M186.948 199.4L174.015 199.4V199.237C174.015 198.578 174.145 197.925 174.398 197.317C174.651 196.708 175.022 196.155 175.489 195.689C175.956 195.223 176.511 194.853 177.122 194.601C177.733 194.349 178.388 194.219 179.049 194.219H179.049L186.948 194.22L186.948 199.4Z" fill="#2F2E41"/>
<path d="M230.747 195.524H226.736L224.828 180.103L230.748 180.103L230.747 195.524Z" fill="#FFB8B8"/>
<path d="M231.77 199.4L218.837 199.4V199.237C218.837 198.578 218.967 197.925 219.22 197.317C219.473 196.708 219.844 196.155 220.311 195.689C220.779 195.223 221.334 194.853 221.944 194.601C222.555 194.349 223.21 194.219 223.871 194.219H223.871L231.77 194.22L231.77 199.4Z" fill="#2F2E41"/>
<path d="M217.558 147.851C218.112 147.204 218.424 146.387 218.441 145.536C218.459 144.686 218.18 143.856 217.653 143.187C217.547 143.059 217.429 142.94 217.303 142.832L220.324 131.714L215.289 133.379L213.192 143.681C212.844 144.316 212.69 145.039 212.749 145.761C212.808 146.482 213.078 147.171 213.525 147.741C213.759 148.049 214.059 148.301 214.403 148.477C214.748 148.654 215.128 148.751 215.515 148.762C215.902 148.773 216.287 148.696 216.641 148.539C216.994 148.381 217.308 148.146 217.558 147.851Z" fill="#FFB8B8"/>
<path d="M217.365 141.013C217.301 141.013 217.238 141.008 217.176 140.999L214.552 140.604C214.348 140.569 214.154 140.49 213.984 140.373C213.814 140.255 213.671 140.102 213.567 139.924C213.339 139.544 213.257 139.096 213.337 138.661L216.61 120.437L214.39 108.729C213.962 106.476 215.066 104.2 216.959 103.436C217.52 103.207 218.131 103.127 218.733 103.204C219.335 103.28 219.906 103.511 220.392 103.874C220.915 104.269 221.35 104.77 221.666 105.344C221.983 105.917 222.175 106.551 222.231 107.203L223.802 122.131L223.783 122.196L218.726 139.887C218.653 140.197 218.481 140.475 218.235 140.678C217.989 140.881 217.684 140.999 217.365 141.013Z" fill="#FFE68E"/>
<path d="M216.59 96.9832C221.028 96.9832 224.625 93.3971 224.625 88.9735C224.625 84.5499 221.028 80.9639 216.59 80.9639C212.152 80.9639 208.554 84.5499 208.554 88.9735C208.554 93.3971 212.152 96.9832 216.59 96.9832Z" fill="#FFB8B8"/>
<path d="M212.475 126.206C212.275 126.206 212.077 126.169 211.89 126.097L199.189 121.228C198.846 121.097 198.556 120.854 198.368 120.539C198.181 120.224 198.105 119.854 198.155 119.491L198.665 115.677C198.363 114.326 198.39 112.921 198.746 111.582C199.102 110.243 199.775 109.01 200.71 107.984L201.019 107.645L204.777 100.815C205.031 100.352 205.375 99.9444 205.789 99.6148C206.202 99.2852 206.677 99.0405 207.186 98.8948C207.695 98.749 208.228 98.7051 208.754 98.7656C209.28 98.8261 209.788 98.9898 210.25 99.2473L216.886 102.943C217.76 103.429 218.419 104.223 218.735 105.169C219.628 107.847 219.562 110.751 218.547 113.386L214.004 125.161C213.884 125.468 213.674 125.732 213.401 125.918C213.129 126.105 212.806 126.205 212.475 126.206Z" fill="#FFE68E"/>
<path d="M179.19 191.738L179.173 191.735C178.956 191.693 178.75 191.608 178.568 191.485C178.385 191.362 178.229 191.204 178.109 191.019C177.989 190.835 177.908 190.628 177.87 190.411C177.833 190.194 177.839 189.972 177.89 189.758L187.623 147.351C189.216 140.628 191.417 134.063 194.2 127.737L198.34 118.326L213.791 125.357L215.997 129.379C217.717 133.858 218.602 138.613 218.607 143.409L234.307 189.271C234.383 189.495 234.41 189.733 234.385 189.968C234.36 190.203 234.284 190.43 234.163 190.634C234.041 190.837 233.876 191.011 233.68 191.144C233.484 191.278 233.262 191.367 233.027 191.406L224.433 191.309C224.352 191.323 224.27 191.33 224.187 191.33C223.861 191.33 223.543 191.233 223.274 191.05C223.004 190.868 222.795 190.609 222.675 190.307L204.729 143.939C204.703 143.877 204.659 143.825 204.603 143.789C204.547 143.753 204.481 143.734 204.414 143.737C204.349 143.738 204.285 143.759 204.232 143.797C204.179 143.836 204.14 143.889 204.119 143.951L187.09 190.55C186.96 190.913 186.704 191.217 186.369 191.409C186.034 191.6 185.642 191.667 185.262 191.597L179.19 191.738Z" fill="#2F2E41"/>
<path d="M190.94 139.587C191.393 139.427 191.805 139.169 192.148 138.832C192.49 138.496 192.754 138.088 192.922 137.639C193.089 137.189 193.155 136.709 193.116 136.231C193.077 135.753 192.933 135.29 192.695 134.873L200.391 126.1L194.371 125.282L187.986 133.738C187.311 134.184 186.823 134.86 186.615 135.641C186.406 136.421 186.493 137.25 186.857 137.971C187.221 138.692 187.837 139.254 188.59 139.552C189.343 139.85 190.179 139.863 190.94 139.587Z" fill="#FFB8B8"/>
<path d="M194.568 133.408C194.3 133.408 194.036 133.342 193.8 133.217L191.092 131.777C190.893 131.671 190.718 131.526 190.578 131.35C190.439 131.174 190.337 130.971 190.28 130.754C190.222 130.537 190.21 130.31 190.245 130.088C190.279 129.866 190.36 129.654 190.48 129.464L200.483 113.753L202.218 101.897C202.307 101.284 202.521 100.696 202.845 100.168C203.17 99.6397 203.598 99.1827 204.105 98.8244C204.612 98.4662 205.186 98.2142 205.794 98.0837C206.401 97.9532 207.028 97.9469 207.638 98.0652C208.248 98.1835 208.828 98.424 209.341 98.772C209.855 99.1199 210.293 99.5683 210.628 100.09C210.963 100.611 211.188 101.195 211.29 101.806C211.393 102.417 211.369 103.042 211.222 103.644L207.641 118.257L195.842 132.803C195.688 132.993 195.494 133.145 195.274 133.25C195.053 133.355 194.812 133.409 194.568 133.408Z" fill="#FFE68E"/>
<path d="M209.357 82.3648C210.286 79.3267 215.657 77.9712 220.12 79.2317C224.584 80.4923 227.79 83.7974 228.537 87.0287C230.19 94.1843 221.568 99.9918 223.13 107.148C224.164 111.883 230.143 116.36 236.878 117.441C229.456 118.989 220.398 117.628 213.515 113.932C209.232 111.632 205.638 108.16 205.692 104.659C205.725 102.539 207.078 100.664 208.732 99.0447C210.387 97.4252 212.368 95.9854 213.886 94.2949C215.404 92.6043 216.457 90.5801 216.013 88.4341C215.57 86.288 213.319 84.05 210.29 83.4256L209.357 82.3648Z" fill="#2F2E41"/>
<path d="M254.111 200H129.459C129.373 200 129.289 199.966 129.228 199.904C129.167 199.843 129.132 199.76 129.132 199.674C129.132 199.587 129.167 199.504 129.228 199.443C129.289 199.382 129.373 199.348 129.459 199.348H254.111C254.197 199.348 254.281 199.382 254.342 199.443C254.403 199.504 254.438 199.587 254.438 199.674C254.438 199.76 254.403 199.843 254.342 199.904C254.281 199.966 254.197 200 254.111 200Z" fill="#CCCCCC"/>
</g>
<defs>
<clipPath id="clip0">
<rect width="254.438" height="200" fill="white"/>
</clipPath>
</defs>
</svg>
