<svg width="15" height="15" fill="none" xmlns="http://www.w3.org/2000/svg"><path d="M7.5 0C3.36425 0 0 3.36425 0 7.5 0 11.6358 3.36425 15 7.5 15c4.1358 0 7.5-3.3648 7.5-7.5C15 3.36483 11.6358 0 7.5 0zm0 13.8381c-3.49438 0-6.33812-2.8431-6.33812-6.3381 0-3.49497 2.84374-6.33812 6.33812-6.33812 3.4944 0 6.3381 2.84315 6.3381 6.33812 0 3.495-2.8431 6.3381-6.3381 6.3381z" fill="#000"/><path d="M10.4046 6.86676H8.0808V4.54299c0-.32068-.25968-.58095-.58095-.58095-.32127 0-.58096.26027-.58096.58095v2.32377H4.59512c-.32127 0-.58096.26028-.58096.58096s.25969.58096.58096.58096h2.32377v2.32372c0 .3207.25969.581.58096.581.32127 0 .58095-.2603.58095-.581V8.02868h2.3238c.3212 0 .5809-.26028.5809-.58096s-.2597-.58096-.5809-.58096z" fill="#000"/></svg>