<svg width="22" height="22" viewBox="0 0 22 22" fill="none" xmlns="http://www.w3.org/2000/svg">
<g clip-path="url(#clip0)">
<path d="M14.5869 11.717H0.717391C0.32139 11.717 0 11.3956 0 10.9996C0 10.6036 0.32139 10.2822 0.717391 10.2822H14.5869C14.9829 10.2822 15.3043 10.6036 15.3043 10.9996C15.3043 11.3956 14.9829 11.717 14.5869 11.717Z" fill="black"/>
<path d="M10.7612 15.5437C10.5774 15.5437 10.3939 15.474 10.2541 15.3333C9.97389 15.0531 9.97389 14.5988 10.2541 14.3184L13.5733 10.9994L10.2541 7.68021C9.97389 7.39998 9.97389 6.94548 10.2541 6.66525C10.5345 6.38502 10.9888 6.38502 11.2691 6.66525L15.0951 10.4915C15.3753 10.7717 15.3753 11.226 15.0951 11.5062L11.2691 15.3323C11.1284 15.474 10.9449 15.5437 10.7612 15.5437Z" fill="black"/>
<path d="M11.4787 21.5221C7.12551 21.5221 3.28232 18.9032 1.68587 14.8493C1.5405 14.482 1.72213 14.065 2.09046 13.9196C2.45774 13.7762 2.87581 13.955 3.02118 14.3253C4.39956 17.8252 7.7196 20.0873 11.4787 20.0873C16.4889 20.0873 20.5657 16.0105 20.5657 11.0003C20.5657 5.99013 16.4889 1.9133 11.4787 1.9133C7.7196 1.9133 4.39956 4.17546 3.02118 7.67537C2.87475 8.04563 2.45774 8.22445 2.09046 8.08101C1.72213 7.93564 1.5405 7.51862 1.68587 7.15134C3.28232 3.09745 7.12551 0.478516 11.4787 0.478516C17.28 0.478516 22.0005 5.19901 22.0005 11.0003C22.0005 16.8016 17.28 21.5221 11.4787 21.5221Z" fill="black"/>
</g>
<defs>
<clipPath id="clip0">
<rect width="22" height="22" fill="white"/>
</clipPath>
</defs>
</svg>
