<svg width="30" height="30" viewBox="0 0 30 30" fill="none" xmlns="http://www.w3.org/2000/svg">
<g clip-path="url(#clip0)">
<path d="M19.1381 10.8691C18.7501 10.8691 18.4355 11.1837 18.4355 11.5717V24.8504C18.4355 25.2382 18.7501 25.553 19.1381 25.553C19.5262 25.553 19.8407 25.2382 19.8407 24.8504V11.5717C19.8407 11.1837 19.5262 10.8691 19.1381 10.8691Z" fill="black"/>
<path d="M10.8476 10.8691C10.4595 10.8691 10.145 11.1837 10.145 11.5717V24.8504C10.145 25.2382 10.4595 25.553 10.8476 25.553C11.2357 25.553 11.5502 25.2382 11.5502 24.8504V11.5717C11.5502 11.1837 11.2357 10.8691 10.8476 10.8691Z" fill="black"/>
<path d="M4.80548 8.93129V26.2412C4.80548 27.2644 5.18065 28.2252 5.83602 28.9146C6.48837 29.6059 7.39622 29.9984 8.34635 30H21.6393C22.5897 29.9984 23.4975 29.6059 24.1496 28.9146C24.805 28.2252 25.1801 27.2644 25.1801 26.2412V8.93129C26.4829 8.58549 27.3271 7.3269 27.1528 5.99008C26.9783 4.65355 25.8396 3.65375 24.4916 3.65348H20.8944V2.77526C20.8985 2.03673 20.6065 1.32757 20.0837 0.805857C19.5609 0.284415 18.8506 -0.00594543 18.1121 9.23125e-05H11.8735C11.135 -0.00594543 10.4247 0.284415 9.90189 0.805857C9.37908 1.32757 9.08707 2.03673 9.09118 2.77526V3.65348H5.49406C4.146 3.65375 3.00733 4.65355 2.83279 5.99008C2.65852 7.3269 3.5027 8.58549 4.80548 8.93129ZM21.6393 28.5949H8.34635C7.14511 28.5949 6.21063 27.5629 6.21063 26.2412V8.99304H23.775V26.2412C23.775 27.5629 22.8405 28.5949 21.6393 28.5949ZM10.4963 2.77526C10.4917 2.40943 10.6355 2.05732 10.8951 1.79907C11.1544 1.54082 11.5074 1.39893 11.8735 1.40524H18.1121C18.4782 1.39893 18.8312 1.54082 19.0905 1.79907C19.3501 2.05704 19.4939 2.40943 19.4893 2.77526V3.65348H10.4963V2.77526ZM5.49406 5.05862H24.4916C25.19 5.05862 25.7562 5.6248 25.7562 6.32326C25.7562 7.02172 25.19 7.58789 24.4916 7.58789H5.49406C4.7956 7.58789 4.22943 7.02172 4.22943 6.32326C4.22943 5.6248 4.7956 5.05862 5.49406 5.05862Z" fill="black"/>
<path d="M14.9931 10.8691C14.605 10.8691 14.2905 11.1837 14.2905 11.5717V24.8504C14.2905 25.2382 14.605 25.553 14.9931 25.553C15.3812 25.553 15.6957 25.2382 15.6957 24.8504V11.5717C15.6957 11.1837 15.3812 10.8691 14.9931 10.8691Z" fill="black"/>
</g>
<defs>
<clipPath id="clip0">
<rect width="30" height="30" fill="white"/>
</clipPath>
</defs>
</svg>
