<svg width="5" height="5" fill="none" xmlns="http://www.w3.org/2000/svg"><path d="M4.92008 1.27021l-.16378-.16492c-.05155-.05151-.12012-.07988-.19342-.07988-.07325 0-.14191.02837-.19345.07988L2.50112 2.97368.630656 1.10321c-.051464-.0515-.120123-.07983-.193376-.07983s-.141952.02833-.193457.07983l-.1638223.16391c-.1066676.10658-.1066676.2802 0 .38679L2.30701 3.88893c.05146.05146.12004.08772.19395.08772h.00085c.07329 0 .14187-.0363.19333-.08772l2.22494-2.22896c.05155-.05147.07984-.12212.07992-.19537 0-.07329-.02837-.14297-.07992-.19439z" fill="#000"/></svg>