<svg width="22" height="22" viewBox="0 0 22 22" fill="none" xmlns="http://www.w3.org/2000/svg">
<g clip-path="url(#clip0)">
<path d="M16.0413 21.9999C12.756 21.9999 10.083 19.3269 10.083 16.0416C10.083 12.7562 12.756 10.0833 16.0413 10.0833C19.3267 10.0833 21.9996 12.7562 21.9996 16.0416C21.9996 19.3269 19.3267 21.9999 16.0413 21.9999ZM16.0413 11.4582C13.5141 11.4582 11.458 13.5143 11.458 16.0416C11.458 18.5688 13.5141 20.6249 16.0413 20.6249C18.5686 20.6249 20.6246 18.5688 20.6246 16.0416C20.6246 13.5143 18.5686 11.4582 16.0413 11.4582Z" fill="black"/>
<path d="M16.042 19.2499C15.6625 19.2499 15.3545 18.9419 15.3545 18.5624V13.5208C15.3545 13.1413 15.6625 12.8333 16.042 12.8333C16.4215 12.8333 16.7295 13.1413 16.7295 13.5208V18.5624C16.7295 18.9419 16.4215 19.2499 16.042 19.2499Z" fill="black"/>
<path d="M18.5622 16.7292H13.5205C13.141 16.7292 12.833 16.4212 12.833 16.0417C12.833 15.6622 13.141 15.3542 13.5205 15.3542H18.5622C18.9417 15.3542 19.2497 15.6622 19.2497 16.0417C19.2497 16.4212 18.9417 16.7292 18.5622 16.7292Z" fill="black"/>
<path d="M8.42417 19.25H2.52083C1.13025 19.25 0 18.1198 0 16.7292V2.52083C0 1.13025 1.13025 0 2.52083 0H13.0625C14.4531 0 15.5833 1.13025 15.5833 2.52083V8.10333C15.5833 8.48283 15.2753 8.79083 14.8958 8.79083C14.5163 8.79083 14.2083 8.48283 14.2083 8.10333V2.52083C14.2083 1.88925 13.6941 1.375 13.0625 1.375H2.52083C1.88925 1.375 1.375 1.88925 1.375 2.52083V16.7292C1.375 17.3608 1.88925 17.875 2.52083 17.875H8.42417C8.80367 17.875 9.11167 18.183 9.11167 18.5625C9.11167 18.942 8.80367 19.25 8.42417 19.25Z" fill="black"/>
<path d="M12.1458 8.70825H3.4375C3.058 8.70825 2.75 8.40025 2.75 8.02075C2.75 7.64125 3.058 7.33325 3.4375 7.33325H12.1458C12.5253 7.33325 12.8333 7.64125 12.8333 8.02075C12.8333 8.40025 12.5253 8.70825 12.1458 8.70825Z" fill="black"/>
<path d="M8.47917 12.375H3.4375C3.058 12.375 2.75 12.067 2.75 11.6875C2.75 11.308 3.058 11 3.4375 11H8.47917C8.85867 11 9.16667 11.308 9.16667 11.6875C9.16667 12.067 8.85867 12.375 8.47917 12.375Z" fill="black"/>
<path d="M7.5625 5.0415H3.4375C3.058 5.0415 2.75 4.7335 2.75 4.354C2.75 3.9745 3.058 3.6665 3.4375 3.6665H7.5625C7.942 3.6665 8.25 3.9745 8.25 4.354C8.25 4.7335 7.942 5.0415 7.5625 5.0415Z" fill="black"/>
</g>
<defs>
<clipPath id="clip0">
<rect width="22" height="22" fill="white"/>
</clipPath>
</defs>
</svg>
