<svg width="22" height="22" viewBox="0 0 22 22" fill="none" xmlns="http://www.w3.org/2000/svg">
<path d="M21.152 0.741443L21.1254 0.717291C20.6168 0.254757 19.9576 0 19.2691 0C18.4972 0 17.7562 0.325319 17.2358 0.892468L7.39694 11.6173C7.30726 11.7151 7.23924 11.8304 7.19719 11.956L6.04028 15.4092C5.90652 15.8084 5.97365 16.2499 6.21983 16.5902C6.46797 16.9331 6.86773 17.1379 7.28928 17.1379H7.28934C7.47167 17.1379 7.6499 17.1005 7.81893 17.0269L11.1686 15.5678C11.2904 15.5148 11.3997 15.4369 11.4893 15.3392L21.3282 4.61437C22.3521 3.49843 22.2731 1.76116 21.152 0.741443ZM8.25688 14.7713L8.93575 12.745L8.993 12.6825L10.2797 13.8526L10.2224 13.9151L8.25688 14.7713ZM19.9254 3.33851L11.5611 12.456L10.2744 11.2858L18.6387 2.16833C18.8023 1.99 19.0262 1.89176 19.2691 1.89176C19.4823 1.89176 19.6864 1.97071 19.8443 2.11435L19.8709 2.13851C20.2182 2.45437 20.2426 2.9927 19.9254 3.33851Z" fill="black"/>
<path d="M19.2437 8.72657C18.7191 8.72657 18.2937 9.15007 18.2937 9.67245V17.7028C18.2937 19.0291 17.2099 20.1083 15.8777 20.1083H4.36382C3.03161 20.1083 1.94785 19.0291 1.94785 17.7028V6.33192C1.94785 5.00555 3.03167 3.92643 4.36382 3.92643H12.6976C13.2223 3.92643 13.6476 3.50292 13.6476 2.98055C13.6476 2.45817 13.2223 2.03467 12.6976 2.03467H4.36382C1.98395 2.03467 0.0478516 3.96243 0.0478516 6.33192V17.7027C0.0478516 20.0722 1.98401 22 4.36382 22H15.8777C18.2575 22 20.1936 20.0722 20.1936 17.7027V9.67245C20.1937 9.15007 19.7684 8.72657 19.2437 8.72657Z" fill="black"/>
</svg>
