<svg xmlns="http://www.w3.org/2000/svg">

    <symbol id="back" viewBox="0 0 30 30">
        <path d="M.34371 14.1705c.000353-.0004.000647-.0008.001057-.0011L6.46805 8.07562c.45873-.4565 1.2007-.4548 1.65732.00398.45656.45874.45481 1.20071-.00393 1.65727L4.01027 13.8281H28.8281C29.4754 13.8281 30 14.3528 30 15c0 .6472-.5246 1.1719-1.1719 1.1719H4.01033l4.11106 4.0912c.45873.4566.46048 1.1985.00392 1.6573-.45662.4588-1.19865.4604-1.65732.004L.344707 15.8306c-.000352-.0003-.000644-.0007-.001056-.0011-.458964-.4581-.457499-1.2025.000059-1.659z" fill="#000"/>
        <path fill="#fff" transform="matrix(-1 0 0 1 30 0)" d="M0 0h30v30H0z"/>
    </symbol>

    <symbol id="burger_menu" viewBox="0 0 20 16">
        <path fill="#000" d="M0 0h20v2H0zM0 7h20v2H0zM0 14h20v2H0z"/>
    </symbol>

    <symbol id="contract_enter" viewBox="0 0 22 22">.
        <path d="M14.5869 11.717H.717391C.32139 11.717 0 11.3956 0 10.9996s.32139-.7174.717391-.7174H14.5869c.396 0 .7174.3214.7174.7174s-.3214.7174-.7174.7174z"/>
        <path d="M10.7612 15.5437c-.1838 0-.3673-.0697-.5071-.2104-.28021-.2802-.28021-.7345 0-1.0149l3.3192-3.319-3.3192-3.31919c-.28021-.28023-.28021-.73473 0-1.01496.2804-.28023.7347-.28023 1.015 0l3.826 3.82625c.2802.2802.2802.7345 0 1.0147l-3.826 3.8261c-.1407.1417-.3242.2114-.5079.2114z"/>
        <path d="M11.4787 21.5221c-4.35319 0-8.19638-2.6189-9.79283-6.6728-.14537-.3673.03626-.7843.40459-.9297.36728-.1434.78535.0354.93072.4057 1.37838 3.4999 4.69842 5.762 8.45752 5.762 5.0102 0 9.087-4.0768 9.087-9.087 0-5.01017-4.0768-9.087-9.087-9.087-3.7591 0-7.07914 2.26216-8.45752 5.76207-.14643.37026-.56344.54908-.93072.40564-.36833-.14537-.54996-.56239-.40459-.92967C3.28232 3.09745 7.12551.478516 11.4787.478516c5.8013 0 10.5218 4.720494 10.5218 10.521784 0 5.8013-4.7205 10.5218-10.5218 10.5218z"/>
        <path fill="#fff" d="M0 0h22v22H0z"/>
    </symbol>

    <symbol id="delete" viewBox="0 0 30 30">
        <path d="M19.1381 10.8691c-.388 0-.7026.3146-.7026.7026v13.2787c0 .3878.3146.7026.7026.7026.3881 0 .7026-.3148.7026-.7026V11.5717c0-.388-.3145-.7026-.7026-.7026zM10.8476 10.8691c-.3881 0-.7026.3146-.7026.7026v13.2787c0 .3878.3145.7026.7026.7026s.7026-.3148.7026-.7026V11.5717c0-.388-.3145-.7026-.7026-.7026z"/><path d="M4.80548 8.93129V26.2412c0 1.0232.37517 1.984 1.03054 2.6734.65235.6913 1.5602 1.0838 2.51033 1.0854H21.6393c.9504-.0016 1.8582-.3941 2.5103-1.0854.6554-.6894 1.0305-1.6502 1.0305-2.6734V8.93129c1.3028-.3458 2.147-1.60439 1.9727-2.94121-.1745-1.33653-1.3132-2.33633-2.6612-2.3366h-3.5972v-.87822c.0041-.73853-.2879-1.44769-.8107-1.969403-.5228-.521442-1.2331-.81180243-1.9716-.80576469h-6.2386C11.135-.00594543 10.4247.284415 9.90189.805857c-.52281.521713-.81482 1.230873-.81071 1.969403v.87822H5.49406c-1.34806.00027-2.48673 1.00007-2.66127 2.3366-.17427 1.33682.66991 2.59541 1.97269 2.94121zM21.6393 28.5949H8.34635c-1.20124 0-2.13572-1.032-2.13572-2.3537V8.99304H23.775V26.2412c0 1.3217-.9345 2.3537-2.1357 2.3537zM10.4963 2.77526c-.0046-.36583.1392-.71794.3988-.97619.2593-.25825.6123-.40014.9784-.39383h6.2386c.3661-.00631.7191.13558.9784.39383.2596.25797.4034.61036.3988.97619v.87822h-8.993v-.87822zM5.49406 5.05862H24.4916c.6984 0 1.2646.56618 1.2646 1.26464s-.5662 1.26463-1.2646 1.26463H5.49406c-.69846 0-1.26463-.56617-1.26463-1.26463s.56617-1.26464 1.26463-1.26464z"/><path d="M14.9931 10.8691c-.3881 0-.7026.3146-.7026.7026v13.2787c0 .3878.3145.7026.7026.7026s.7026-.3148.7026-.7026V11.5717c0-.388-.3145-.7026-.7026-.7026z"/>
        <path fill="#fff" d="M0 0h30v30H0z"/>
    </symbol>

    <symbol id="message_send" viewBox="0 0 7 13">
        <path d="M3.85946.148941c.00015.000153.00033.000279.00048.000458L6.50056 2.80282c.19782.19878.19709.5203-.00172.71817-.19879.19785-.52031.19709-.71815-.0017L4.00782 1.73778V12.4922c0 .2805-.22735.5078-.50782.5078-.28046 0-.50781-.2273-.50781-.5078V1.73781L1.21932 3.51927c-.19785.19878-.519368.19954-.718151.0017C.302335 3.3231.30165 3.00155.499443 2.80279L3.14007.149373c.00015-.000153.00033-.000279.00048-.000457.1985-.1988848.52106-.1982506.71891.000025z" fill="#000"/>
    </symbol>

    <symbol id="quit" viewBox="0 0 22 22">
        <path d="M22 2.2L19.8 0 11 8.8 2.2 0 0 2.2 8.8 11 0 19.8 2.2 22l8.8-8.8 8.8 8.8 2.2-2.2-8.8-8.8L22 2.2z" fill="#000"/>
    </symbol>

    <symbol id="see" viewBox="0 0 30 30">
        <path d="M29.93 14.6246c-.0101-.0261-.0212-.0517-.0332-.077-1.3304-2.763-3.4008-5.10014-5.9872-6.75889-2.6576-1.70435-5.7384-2.60512-8.9094-2.60512-3.171 0-6.252.90091-8.90952 2.6054C3.5137 9.44164 1.44906 11.768.118153 14.5177c-.1491567.2857-.1602465.6311-.015248.9324 1.330215 2.7634 3.400675 5.101 5.987355 6.76 2.65766 1.7046 5.73864 2.6055 8.90994 2.6055 3.1711 0 6.2521-.9009 8.9096-2.6054 2.5867-1.6588 4.657-3.9963 5.9874-6.7594.1245-.2588.1361-.5584.0328-.8262zm-14.9298 8.1116c-5.34846 0-10.31626-3.0205-12.79648-7.7368 2.48022-4.7163 7.44802-7.73662 12.79648-7.73662 5.3483 0 10.3162 3.02062 12.7965 7.73672-2.4804 4.716-7.4483 7.7367-12.7965 7.7367z"/><path d="M15 10.4365c-2.516 0-4.563 2.0471-4.563 4.563 0 2.516 2.047 4.5631 4.563 4.5631 2.516 0 4.563-2.0471 4.563-4.5631 0-2.5159-2.047-4.563-4.563-4.563zm0 7.0467c-1.3694 0-2.4837-1.1142-2.4837-2.4837 0-1.3694 1.1143-2.4836 2.4837-2.4836 1.3695 0 2.4837 1.1142 2.4837 2.4836 0 1.3695-1.1142 2.4837-2.4837 2.4837z"/><path fill="#fff" d="M0 0h30v30H0z"/>
    </symbol>

    <symbol id="signin" viewBox="0 0 22 22">
        <path d="M11.1942 14.1599c-.1925.1936-.3004.4556-.3.7286.0003.273.1089.5348.302.7278.1931.1931.4548.3017.7278.3021.273.0003.535-.1076.7286-.3001l3.8891-3.8891c.1934-.1934.3021-.4557.3021-.7292 0-.2735-.1087-.5358-.3021-.7292l-3.8891-3.88905c-.1934-.19339-.4557-.30204-.7292-.30204-.2735 0-.5358.10865-.7292.30204-.1934.1934-.302.4557-.302.7292 0 .27351.1086.53581.302.72921l2.1286 2.12862H2.0625c-.2735 0-.53581.10862-.7292.30202-.1934.1934-.30205.4557-.30205.7292 0 .2735.10865.5358.30205.7292.19339.1934.4557.3021.7292.3021h11.2603l-2.1286 2.1286z" fill="#000"/><path d="M19.25 1.03125H9.625c-.45584 0-.89301.18108-1.21534.50341-.32233.32233-.50341.7595-.50341 1.21534v1.375c0 .2735.10865.53581.30205.7292.19339.1934.4557.30205.7292.30205.2735 0 .53581-.10865.7292-.30205.1934-.19339.30205-.4557.30205-.7292V3.09375h8.93745V18.9062H9.96875V17.875c0-.2735-.10865-.5358-.30205-.7292-.19339-.1934-.4557-.302-.7292-.302-.2735 0-.53581.1086-.7292.302-.1934.1934-.30205.4557-.30205.7292v1.375c0 .4558.18108.893.50341 1.2153.32233.3224.7595.5035 1.21534.5035h9.625c.4558 0 .893-.1811 1.2153-.5035.3224-.3223.5035-.7595.5035-1.2153V2.75c0-.45584-.1811-.89301-.5035-1.21534-.3223-.32233-.7595-.50341-1.2153-.50341z" fill="#000"/>
    </symbol>

    <symbol id="admin_validation" viewBox="0 0 30 30">
        <path d="M6.88149 10.9362H1.86775c-1.029938 0-1.86774846 1.0003-1.86774857 2.2294L2e-7 27.3274C1e-7 28.5559.83781 29.5557 1.86775 29.5557h5.01373c1.02994 0 1.86775-.9998 1.86775-2.2283l.00001-14.1618c0-1.2291-.83781-2.2294-1.86775-2.2294zM1.86775 27.9327c-.10026 0-.29292-.2358-.29292-.6053V13.1656c0-.37.19213-.6064.29292-.6064h5.01374c.10026 0 .29291.2369.29291.6064v14.1618c0 .37-.19213.6053-.29292.6053H1.86775zM16.6565-.444336c-1.5801 0-2.8651 1.323774-2.8651 2.952126 0 .10981.0063.21963.0183.33053-.0189.09738-.021.19638-.0005.29267.5475 2.58643-.5932 5.52394-1.3218 7.04411-.063.1309-.1244.2586-.1832.3738-.1102.1315-.2593.2202-.4273.2526h-.2158c-.0309 0-.0798.0033-.1175.0082-1.1959.0697-2.11977 1.0706-2.11977 2.298V27.25c0 1.2713 1.00367 2.3057 2.23727 2.3057h15.4727c.0683 0 .1339-.0087.1959-.0255 1.4493-.1574 2.5622-1.4146 2.5622-2.9277 0-.8137-.3213-1.5521-.8436-2.0866.5838-.541.9517-1.3249.9517-2.1958 0-.8423-.3438-1.603-.8945-2.1418.5507-.5377.8945-1.2994.8945-2.1417s-.3438-1.6029-.8945-2.1407c.5507-.5388.8945-1.2994.8945-2.1417 0-1.6283-1.285-2.9532-2.8651-2.9532l-6.618.0011C22.3674 4.87241 19.0807.896209 18.9311.719849c-.0032-.003245-.0063-.006491-.0084-.01136-.5423-.7227483-1.3832-1.152825-2.2662-1.152825zM15.3982 3.04227c.0137-.08655.0137-.17419-.0037-.26075-.0189-.09088-.0288-.18285-.0288-.27373 0-.73303.5795-1.32919 1.2908-1.32919.4142 0 .7937.20179 1.0415.55342.0247.03517.0525.06871.0819.09954.3648.46254 3.0573 4.13633.8787 9.46714-.1023.2505-.0766.5366.0699.7628.1454.2272.3916.3635.6561.3635h7.7492c.3444 0 .6683.1374.9124.389.243.2515.3774.5853.3774.9402 0 .733-.579 1.3303-1.2898 1.3303-.4346 0-.7874.3635-.7874.8114 0 .448.3528.8115.7874.8115.7108 0 1.2898.5962 1.2898 1.3292s-.579 1.3303-1.2898 1.3303c-.4346 0-.7874.3635-.7874.8114 0 .448.3528.8115.7874.8115.7108 0 1.2898.5972 1.2898 1.3303 0 .733-.579 1.3292-1.2898 1.3292-.4346 0-.7874.3635-.7874.8114 0 .4323.3281.799.7465.8223.6861.0368 1.2236.6173 1.2236 1.3195 0 .7038-.5375 1.2826-1.2236 1.3194-.032.0022-.0619.0054-.0924.0108H11.6611c-.3648 0-.6624-.3062-.6624-.6827V13.1072c0-.3663.2798-.6643.6372-.6779.0158-.001.0405-.0032.0641-.0054h.2357c.0331 0 .0667-.0021.0992-.0065.6305-.0833 1.1864-.4171 1.5649-.9413.0236-.034.0451-.0687.064-.1055.0751-.146.1543-.3067.2352-.4776.9727-2.02763 2.0042-5.01167 1.4992-7.85073z" fill="#000"/>
    </symbol>

    <symbol id="gestionnaire_add_contract" viewBox="0 0 22 22">
        <path d="M16.0413 21.9999c-3.2853 0-5.9583-2.673-5.9583-5.9583 0-3.2854 2.673-5.9583 5.9583-5.9583 3.2854 0 5.9583 2.6729 5.9583 5.9583 0 3.2853-2.6729 5.9583-5.9583 5.9583zm0-10.5417c-2.5272 0-4.5833 2.0561-4.5833 4.5834 0 2.5272 2.0561 4.5833 4.5833 4.5833 2.5273 0 4.5833-2.0561 4.5833-4.5833 0-2.5273-2.056-4.5834-4.5833-4.5834z"/>
        <path d="M16.042 19.2499c-.3795 0-.6875-.308-.6875-.6875v-5.0416c0-.3795.308-.6875.6875-.6875s.6875.308.6875.6875v5.0416c0 .3795-.308.6875-.6875.6875z"/>
        <path d="M18.5622 16.7292h-5.0417c-.3795 0-.6875-.308-.6875-.6875s.308-.6875.6875-.6875h5.0417c.3795 0 .6875.308.6875.6875s-.308.6875-.6875.6875zM8.42417 19.25H2.52083C1.13025 19.25 0 18.1198 0 16.7292V2.52083C0 1.13025 1.13025 0 2.52083 0H13.0625c1.3906 0 2.5208 1.13025 2.5208 2.52083v5.5825c0 .3795-.308.6875-.6875.6875s-.6875-.308-.6875-.6875v-5.5825c0-.63158-.5142-1.14583-1.1458-1.14583H2.52083c-.63158 0-1.14583.51425-1.14583 1.14583V16.7292c0 .6316.51425 1.1458 1.14583 1.1458h5.90334c.3795 0 .6875.308.6875.6875s-.308.6875-.6875.6875z"/>
        <path d="M12.1458 8.70825H3.4375c-.3795 0-.6875-.308-.6875-.6875s.308-.6875.6875-.6875h8.7083c.3795 0 .6875.308.6875.6875s-.308.6875-.6875.6875zM8.47917 12.375H3.4375c-.3795 0-.6875-.308-.6875-.6875S3.058 11 3.4375 11h5.04167c.3795 0 .6875.308.6875.6875s-.308.6875-.6875.6875zM7.5625 5.0415h-4.125c-.3795 0-.6875-.308-.6875-.6875s.308-.6875.6875-.6875h4.125c.3795 0 .6875.308.6875.6875s-.308.6875-.6875.6875z"/>
        <path fill="#fff" d="M0 0h22v22H0z"/>
    </symbol>

    <symbol id="gestionnaire_modify_contract" viewBox="0 0 22 22">
        <path d="M21.152.741443l-.0266-.024152C20.6168.254757 19.9576 0 19.2691 0c-.7719 0-1.5129.325319-2.0333.892468L7.39694 11.6173c-.08968.0978-.1577.2131-.19975.3387l-1.15691 3.4532c-.13376.3992-.06663.8407.17955 1.181.24814.3429.6479.5477 1.06945.5477h.00006c.18233 0 .36056-.0374.52959-.111l3.34967-1.4591c.1218-.053.2311-.1309.3207-.2286l9.8389-10.72483c1.0239-1.11594.9449-2.85321-.1762-3.872927zM8.25688 14.7713l.67887-2.0263.05725-.0625 1.2867 1.1701-.0573.0625-1.96552.8562zM19.9254 3.33851L11.5611 12.456l-1.2867-1.1702 8.3643-9.11747c.1636-.17833.3875-.27657.6304-.27657.2132 0 .4173.07895.5752.22259l.0266.02416c.3473.31586.3717.85419.0545 1.2z" fill="#000"/>
        <path d="M19.2437 8.72657c-.5246 0-.95.4235-.95.94588v8.03035c0 1.3263-1.0838 2.4055-2.416 2.4055H4.36382c-1.33221 0-2.41597-1.0792-2.41597-2.4055V6.33192c0-1.32637 1.08382-2.40549 2.41597-2.40549h8.33378c.5247 0 .95-.42351.95-.94588 0-.52238-.4253-.94588-.95-.94588H4.36382c-2.37987 0-4.3159684 1.92776-4.3159684 4.29725V17.7027C.0478516 20.0722 1.98401 22 4.36382 22H15.8777c2.3798 0 4.3159-1.9278 4.3159-4.2973V9.67245c.0001-.52238-.4252-.94588-.9499-.94588z" fill="#000"/>
    </symbol>

    <symbol id="insured_add_images" viewBox="0 0 30 30">
        <path d="M11.3072 12.3956c1.1383 0 2.061-.9228 2.061-2.0611 0-1.13829-.9227-2.06106-2.061-2.06106s-2.06111.92277-2.06111 2.06106c0 1.1383.92281 2.0611 2.06111 2.0611z" fill="#000"/><path d="M28.2252 17.9201c-.9733-.9161-2.2042-1.5172-3.5496-1.689V5.75403c0-1.11641-.458-2.11832-1.1737-2.86259-.7443-.74428-1.7462-1.17367-2.8626-1.17367H4.03626c-1.11641 0-2.11832.45802-2.8626 1.17367C.429389 3.63571 0 4.63762 0 5.75403V22.8437c0 1.1164.458015 2.1183 1.17366 2.8626.74428.7443 1.74619 1.1737 2.8626 1.1737H20.0954c1.0592.8588 2.376 1.4027 3.8359 1.4027 1.6889 0 3.2061-.6871 4.2939-1.7749C29.313 25.4201 30 23.9029 30 22.214c0-1.689-.687-3.2062-1.7748-4.2939zM1.51718 5.75403c0-.68702.28626-1.31679.74427-1.77481.45802-.45801 1.08779-.74427 1.77481-.74427H20.6393c.687 0 1.3168.28626 1.7748.74427.458.45802.7443 1.08779.7443 1.77481v8.93127l-4.2366-4.208c-.2863-.2862-.7729-.3149-1.0878 0l-6.3836 6.4122-4.32254-4.3511c-.28626-.2863-.7729-.3149-1.08778 0l-4.5229 4.5801V5.75403zM4.00763 25.3914v-.0286c-.68702 0-1.31679-.2862-1.77481-.7443-.42938-.458-.71564-1.0877-.71564-1.7748v-3.5782l5.09542-5.0954 4.3225 4.3225c.2863.2862.7729.2862 1.0878 0l6.3836-6.4122 4.1794 4.208c-.0859.0286-.1718.0572-.2577.0859-.1145.0286-.229.0572-.3721.1145-.1145.0286-.229.0858-.3435.1145-.0859.0286-.1431.0572-.229.1145-.1145.0572-.2004.0859-.2863.1431-.1431.0859-.2862.1718-.4294.2576-.0858.0573-.1431.0859-.229.1432-.0572.0286-.0858.0572-.1431.0858-.2576.1718-.4866.3722-.687.6012-1.0878 1.0878-1.7748 2.6049-1.7748 4.2939 0 .4294.0572.8301.1431 1.2595.0286.1145.0572.2004.0859.3149.0859.2863.1717.5725.2862.8588v.0286c.1145.229.229.4867.3722.687H4.00763zm23.10117.0287c-.8302.8301-1.9466 1.3168-3.2061 1.3168-1.2023 0-2.3187-.4867-3.1203-1.2596-.1145-.1145-.229-.2576-.3435-.3721-.0858-.0859-.1717-.2004-.2576-.2863-.1145-.1431-.2004-.3149-.2863-.4866-.0572-.1145-.1145-.2004-.1717-.3149-.0573-.1431-.1145-.3149-.1431-.4867-.0287-.1145-.0859-.2576-.1146-.3721-.0572-.2862-.0858-.6011-.0858-.916 0-1.2596.5152-2.376 1.3168-3.2061.8301-.8302 1.9465-1.3168 3.2061-1.3168 1.2595 0 2.3759.5152 3.2061 1.3168.8301.8015 1.3168 1.9465 1.3168 3.2061 0 1.2309-.5153 2.3473-1.3168 3.1775z" fill="#000"/><path d="M26.3931 21.441h-1.7462v-1.7462c0-.4294-.3435-.7729-.7729-.7729s-.7729.3435-.7729.7729v1.7462h-1.7462c-.4294 0-.7729.3435-.7729.7729 0 .4293.3435.7729.7729.7729h1.7462v1.7461c0 .4294.3435.7729.7729.7729s.7729-.3435.7729-.7729v-1.7461h1.7462c.4294 0 .7729-.3436.7729-.7729 0-.4294-.3435-.7729-.7729-.7729z" fill="#000"/>
    </symbol>

    <symbol id="insured_coordinates" viewBox="0 0 90 90">
        <path d="M41.9999 61.5143v-33c0-2.55-1.9499-4.5-4.5-4.5H4.5c-2.55006 0-4.5 1.95-4.5 4.5v33c0 2.55 1.94994 4.5 4.5 4.5h32.9999c2.5501 0 4.5-1.95 4.5-4.5zm-38.99984 0v-33c0-.9.59994-1.4999 1.49994-1.4999h32.9999c.9 0 1.5.5999 1.5 1.4999v33c0 .9-.6 1.4999-1.5 1.4999H4.5c-.9.0002-1.49994-.5999-1.49994-1.4999z" fill="#BEBEBE"/><path d="M7.50043 34.5143H22.5004c.9 0 1.4999-.6 1.4999-1.5s-.5999-1.4999-1.4999-1.4999H7.50043c-.9 0-1.49994.5999-1.49994 1.4999s.59994 1.5 1.49994 1.5zM28.4998 37.5143H11.9999c-.9 0-1.4999.6-1.4999 1.5s.5999 1.4999 1.4999 1.4999H28.5c.9 0 1.4999-.5999 1.4999-1.4999s-.6001-1.5-1.5001-1.5zM22.5004 43.5143H7.50043c-.9 0-1.49994.5999-1.49994 1.4999s.59994 1.5 1.49994 1.5H22.5004c.9 0 1.4999-.6 1.4999-1.5s-.5999-1.4999-1.4999-1.4999zM15.0003 51.0143c0-.9-.5999-1.4999-1.4999-1.4999H7.50043c-.9 0-1.49994.5999-1.49994 1.4999s.59994 1.5 1.49994 1.5h5.99997c.9 0 1.4999-.6 1.4999-1.5zM22.5 55.5143H10.4999c-.89996 0-1.4999.6-1.4999 1.5s.59994 1.4999 1.4999 1.4999H22.5c.9 0 1.4999-.5999 1.4999-1.4999s-.5999-1.5-1.4999-1.5zM85.4999 24.0143H52.5c-2.5501 0-4.5 1.95-4.5 4.5v33c0 2.55 1.9499 4.5 4.5 4.5h32.9999c2.5501 0 4.5-1.95 4.5-4.5v-33c0-2.55-1.9499-4.5-4.5-4.5zm1.5 37.5c0 .9-.6 1.4999-1.5 1.4999H52.5c-.9 0-1.4999-.5999-1.4999-1.4999v-33c0-.9.5999-1.4999 1.4999-1.4999h32.9999c.9 0 1.5.5999 1.5 1.4999v33z" fill="#BEBEBE"/><path d="M55.4999 34.5143h15c.9 0 1.4999-.6 1.4999-1.5s-.5999-1.4999-1.4999-1.4999h-15c-.9 0-1.4999.5999-1.4999 1.4999s.5999 1.5 1.4999 1.5zM76.5 37.5143H59.9999c-.9 0-1.4999.6-1.4999 1.5s.5999 1.4999 1.4999 1.4999H76.5c.9 0 1.4999-.5999 1.4999-1.4999s-.5999-1.5-1.4999-1.5zM70.4999 43.5143h-15c-.9 0-1.4999.5999-1.4999 1.4999s.5999 1.5 1.4999 1.5h15c.9 0 1.4999-.6 1.4999-1.5s-.5999-1.4999-1.4999-1.4999zM62.9998 51.0143c0-.9-.5999-1.4999-1.4999-1.4999h-6c-.9 0-1.4999.5999-1.4999 1.4999s.5999 1.5 1.4999 1.5h6c.9 0 1.4999-.6 1.4999-1.5zM70.5 55.5143H58.4999c-.9 0-1.4999.6-1.4999 1.5s.5999 1.4999 1.4999 1.4999H70.5c.9 0 1.4999-.5999 1.4999-1.4999s-.5999-1.5-1.4999-1.5zM21.0002 16.5143c.15 0 .45 0 .6-.15 8.55-4.1999 15.3-5.85 23.4-5.85 7.0168 0 13.0213 1.2396 20.0598 4.3012l-6.5598 2.1488c-.7501.3-1.2001 1.0499-.9 1.8.1499.5999.75 1.0499 1.35 1.0499.1499 0 .3 0 .45-.1499l9.7138-3.1896c.5337-.0383 1.0287-.3413 1.2361-.8604.076-.1519.1131-.3421.1122-.5319.0132-.3205-.0689-.6365-.2366-.8972l-3.1755-9.67081c-.3001-.75006-1.05-1.20006-1.8-1.04994-.7501.30006-1.2001 1.20006-.9 1.94994l2.2417 6.84331c-7.5243-3.33419-14.0305-4.74343-21.5917-4.74343-8.55 0-15.75 1.8-24.6001 6.15003-.75.3001-1.0499 1.2001-.75 1.95.3.6001.75.9 1.3501.9zM68.4001 73.6643c-8.55 4.1999-15.3 5.85-23.4 5.85-6.9737 0-12.9477-1.2249-19.9302-4.2453l6.7303-2.2048c.7501-.3001 1.2001-1.2001.9-1.95-.3001-.7499-1.2001-1.2-1.9499-.9l-10.05 3.3c-.167.0557-.3131.132-.4387.2213-.2688.146-.4898.3747-.6114.6787-.1923.4809-.1369 1.0227.1244 1.4291l3.1755 9.6707c.15.6.7501 1.05 1.35 1.05h.7501c.7501-.3001 1.2001-1.2001.9-1.95l-2.1911-6.6886c7.3766 3.2235 13.7974 4.5886 21.241 4.5886 8.55 0 15.75-1.8 24.6001-6.1501.7501-.3 1.0499-1.2.7501-1.9499-.3001-.7497-1.2001-1.0496-1.9502-.7497z" fill="#BEBEBE"/>
    </symbol>

</svg>