<svg width="30" height="30" viewBox="0 0 30 30" fill="none" xmlns="http://www.w3.org/2000/svg">
<path d="M11.3072 12.3956C12.4455 12.3956 13.3682 11.4728 13.3682 10.3345C13.3682 9.19621 12.4455 8.27344 11.3072 8.27344C10.1689 8.27344 9.24609 9.19621 9.24609 10.3345C9.24609 11.4728 10.1689 12.3956 11.3072 12.3956Z" fill="black"/>
<path d="M28.2252 17.9201C27.2519 17.004 26.021 16.4029 24.6756 16.2311V5.75403C24.6756 4.63762 24.2176 3.63571 23.5019 2.89144C22.7576 2.14716 21.7557 1.71777 20.6393 1.71777H4.03626C2.91985 1.71777 1.91794 2.17579 1.17366 2.89144C0.429389 3.63571 0 4.63762 0 5.75403V18.9506V20.1815V22.8437C0 23.9601 0.458015 24.962 1.17366 25.7063C1.91794 26.4506 2.91985 26.88 4.03626 26.88H20.0954C21.1546 27.7388 22.4714 28.2827 23.9313 28.2827C25.6202 28.2827 27.1374 27.5956 28.2252 26.5078C29.313 25.4201 30 23.9029 30 22.214C30 20.525 29.313 19.0078 28.2252 17.9201ZM1.51718 5.75403C1.51718 5.06701 1.80344 4.43724 2.26145 3.97922C2.71947 3.52121 3.34924 3.23495 4.03626 3.23495H20.6393C21.3263 3.23495 21.9561 3.52121 22.4141 3.97922C22.8721 4.43724 23.1584 5.06701 23.1584 5.75403V14.6853L18.9218 10.4773C18.6355 10.1911 18.1489 10.1624 17.834 10.4773L11.4504 16.8895L7.12786 12.5384C6.8416 12.2521 6.35496 12.2235 6.04008 12.5384L1.51718 17.1185V5.75403ZM4.00763 25.3914V25.3628C3.32061 25.3628 2.69084 25.0766 2.23282 24.6185C1.80344 24.1605 1.51718 23.5308 1.51718 22.8437V20.1815V19.2655L6.6126 14.1701L10.9351 18.4926C11.2214 18.7788 11.708 18.7788 12.0229 18.4926L18.4065 12.0804L22.5859 16.2884C22.5 16.317 22.4141 16.3456 22.3282 16.3743C22.2137 16.4029 22.0992 16.4315 21.9561 16.4888C21.8416 16.5174 21.7271 16.5746 21.6126 16.6033C21.5267 16.6319 21.4695 16.6605 21.3836 16.7178C21.2691 16.775 21.1832 16.8037 21.0973 16.8609C20.9542 16.9468 20.8111 17.0327 20.6679 17.1185C20.5821 17.1758 20.5248 17.2044 20.4389 17.2617C20.3817 17.2903 20.3531 17.3189 20.2958 17.3475C20.0382 17.5193 19.8092 17.7197 19.6088 17.9487C18.521 19.0365 17.834 20.5536 17.834 22.2426C17.834 22.672 17.8912 23.0727 17.9771 23.5021C18.0057 23.6166 18.0343 23.7025 18.063 23.817C18.1489 24.1033 18.2347 24.3895 18.3492 24.6758V24.7044C18.4637 24.9334 18.5782 25.1911 18.7214 25.3914H4.00763ZM27.1088 25.4201C26.2786 26.2502 25.1622 26.7369 23.9027 26.7369C22.7004 26.7369 21.584 26.2502 20.7824 25.4773C20.6679 25.3628 20.5534 25.2197 20.4389 25.1052C20.3531 25.0193 20.2672 24.9048 20.1813 24.8189C20.0668 24.6758 19.9809 24.504 19.895 24.3323C19.8378 24.2178 19.7805 24.1319 19.7233 24.0174C19.666 23.8743 19.6088 23.7025 19.5802 23.5307C19.5515 23.4162 19.4943 23.2731 19.4656 23.1586C19.4084 22.8724 19.3798 22.5575 19.3798 22.2426C19.3798 20.983 19.895 19.8666 20.6966 19.0365C21.5267 18.2063 22.6431 17.7197 23.9027 17.7197C25.1622 17.7197 26.2786 18.2349 27.1088 19.0365C27.9389 19.838 28.4256 20.983 28.4256 22.2426C28.4256 23.4735 27.9103 24.5899 27.1088 25.4201Z" fill="black"/>
<path d="M26.3931 21.441H24.6469V19.6948C24.6469 19.2654 24.3034 18.9219 23.874 18.9219C23.4446 18.9219 23.1011 19.2654 23.1011 19.6948V21.441H21.3549C20.9255 21.441 20.582 21.7845 20.582 22.2139C20.582 22.6432 20.9255 22.9868 21.3549 22.9868H23.1011V24.7329C23.1011 25.1623 23.4446 25.5058 23.874 25.5058C24.3034 25.5058 24.6469 25.1623 24.6469 24.7329V22.9868H26.3931C26.8225 22.9868 27.166 22.6432 27.166 22.2139C27.166 21.7845 26.8225 21.441 26.3931 21.441Z" fill="black"/>
</svg>
