<svg width="90" height="90" viewBox="0 0 90 90" fill="none" xmlns="http://www.w3.org/2000/svg">
<path d="M77.0628 15.335H12.7771C7.23054 15.3369 2.73493 19.8332 2.73242 25.3797V62.8857C2.73493 68.4323 7.23054 72.9291 12.7771 72.9304H77.0628C82.6093 72.9291 87.1049 68.4323 87.1074 62.8857V25.3797C87.1049 19.8332 82.6093 15.3369 77.0628 15.335ZM12.7771 19.3529H77.0628C79.9563 19.3604 82.4392 21.4139 82.9891 24.2541L44.9199 45.469L6.85073 24.2541C7.40067 21.4139 9.88358 19.3604 12.7771 19.3529ZM77.0628 68.8931H12.7771C9.45292 68.883 6.7597 66.1904 6.75028 62.8663V28.7949L43.9355 49.5264C44.2369 49.6921 44.5753 49.7825 44.9199 49.7882C45.2658 49.7919 45.6055 49.7015 45.9043 49.5264L83.0896 28.7949V62.8663C83.0871 66.1936 80.3901 68.8899 77.0628 68.8931Z" fill="#BEBEBE"/>
</svg>
