<svg width="7" height="13" viewBox="0 0 7 13" fill="none" xmlns="http://www.w3.org/2000/svg">
<path d="M3.85946 0.148941C3.85961 0.149094 3.85979 0.14922 3.85994 0.149399L6.50056 2.80282C6.69838 3.0016 6.69765 3.32312 6.49884 3.52099C6.30005 3.71884 5.97853 3.71808 5.78069 3.51929L4.00782 1.73778L4.00782 12.4922C4.00782 12.7727 3.78047 13 3.5 13C3.21954 13 2.99219 12.7727 2.99219 12.4922L2.99219 1.73781L1.21932 3.51927C1.02147 3.71805 0.699952 3.71881 0.501169 3.52097C0.302335 3.3231 0.30165 3.00155 0.499443 2.80279L3.14007 0.149373C3.14022 0.14922 3.1404 0.149094 3.14055 0.148916C3.33905 -0.0499688 3.66161 -0.0493346 3.85946 0.148941Z" fill="black"/>
</svg>
