<svg width="22" height="22" fill="none" xmlns="http://www.w3.org/2000/svg"><g clip-path="url(#clip0)"><path d="M21.731 20.436l-6.256-6.256a8.666 8.666 0 001.941-5.471c0-4.801-3.906-8.708-8.708-8.708C3.907 0 0 3.908 0 8.709c0 4.802 3.907 8.708 8.708 8.708 2.072 0 3.974-.73 5.47-1.941l6.257 6.256a.914.914 0 001.296 0 .916.916 0 000-1.296zM8.708 15.584a6.882 6.882 0 01-6.875-6.875 6.882 6.882 0 016.875-6.875 6.882 6.882 0 016.875 6.875 6.882 6.882 0 01-6.875 6.875z" fill="#000"/></g><defs><clipPath id="clip0"><path fill="#fff" d="M0 0h22v22H0z"/></clipPath></defs></svg>