<svg width="30" height="30" viewBox="0 0 30 30" fill="none" xmlns="http://www.w3.org/2000/svg">
<g clip-path="url(#clip0)">
<path d="M29.93 14.6246C29.9199 14.5985 29.9088 14.5729 29.8968 14.5476C28.5664 11.7846 26.496 9.44746 23.9096 7.78871C21.252 6.08436 18.1712 5.18359 15.0002 5.18359C11.8292 5.18359 8.7482 6.0845 6.09068 7.78899C3.5137 9.44164 1.44906 11.768 0.118153 14.5177C-0.0310037 14.8034 -0.0420935 15.1488 0.102905 15.4501C1.43312 18.2135 3.50358 20.5511 6.09026 22.2101C8.74792 23.9147 11.8289 24.8156 15.0002 24.8156C18.1713 24.8156 21.2523 23.9147 23.9098 22.2102C26.4965 20.5514 28.5668 18.2139 29.8972 15.4508C30.0217 15.192 30.0333 14.8924 29.93 14.6246ZM15.0002 22.7362C9.65174 22.7362 4.68394 19.7157 2.20372 14.9994C4.68394 10.2831 9.65174 7.26278 15.0002 7.26278C20.3485 7.26278 25.3164 10.2834 27.7967 14.9995C25.3163 19.7155 20.3484 22.7362 15.0002 22.7362Z" fill="#1D1D1B"/>
<path d="M15 10.4365C12.484 10.4365 10.437 12.4836 10.437 14.9995C10.437 17.5155 12.484 19.5626 15 19.5626C17.516 19.5626 19.563 17.5155 19.563 14.9995C19.563 12.4836 17.516 10.4365 15 10.4365ZM15 17.4832C13.6306 17.4832 12.5163 16.369 12.5163 14.9995C12.5163 13.6301 13.6306 12.5159 15 12.5159C16.3695 12.5159 17.4837 13.6301 17.4837 14.9995C17.4837 16.369 16.3695 17.4832 15 17.4832Z" fill="#1D1D1B"/>
</g>
<defs>
<clipPath id="clip0">
<rect width="30" height="30" fill="white"/>
</clipPath>
</defs>
</svg>
