<svg width="22" height="22" viewBox="0 0 22 22" fill="none" xmlns="http://www.w3.org/2000/svg">
<path d="M11.1942 14.1599C11.0017 14.3535 10.8938 14.6155 10.8942 14.8885C10.8945 15.1615 11.0031 15.4233 11.1962 15.6163C11.3893 15.8094 11.651 15.918 11.924 15.9184C12.197 15.9187 12.459 15.8108 12.6526 15.6183L16.5417 11.7292C16.7351 11.5358 16.8438 11.2735 16.8438 11C16.8438 10.7265 16.7351 10.4642 16.5417 10.2708L12.6526 6.38175C12.4592 6.18836 12.1969 6.07971 11.9234 6.07971C11.6499 6.07971 11.3876 6.18836 11.1942 6.38175C11.0008 6.57515 10.8922 6.83745 10.8922 7.11095C10.8922 7.38446 11.0008 7.64676 11.1942 7.84016L13.3228 9.96878H2.0625C1.789 9.96878 1.52669 10.0774 1.3333 10.2708C1.1399 10.4642 1.03125 10.7265 1.03125 11C1.03125 11.2735 1.1399 11.5358 1.3333 11.7292C1.52669 11.9226 1.789 12.0313 2.0625 12.0313H13.3228L11.1942 14.1599Z" fill="black"/>
<path d="M19.25 1.03125H9.625C9.16916 1.03125 8.73199 1.21233 8.40966 1.53466C8.08733 1.85699 7.90625 2.29416 7.90625 2.75V4.125C7.90625 4.3985 8.0149 4.66081 8.2083 4.8542C8.40169 5.0476 8.664 5.15625 8.9375 5.15625C9.211 5.15625 9.47331 5.0476 9.6667 4.8542C9.8601 4.66081 9.96875 4.3985 9.96875 4.125V3.09375H18.9062V18.9062H9.96875V17.875C9.96875 17.6015 9.8601 17.3392 9.6667 17.1458C9.47331 16.9524 9.211 16.8438 8.9375 16.8438C8.664 16.8438 8.40169 16.9524 8.2083 17.1458C8.0149 17.3392 7.90625 17.6015 7.90625 17.875V19.25C7.90625 19.7058 8.08733 20.143 8.40966 20.4653C8.73199 20.7877 9.16916 20.9688 9.625 20.9688H19.25C19.7058 20.9688 20.143 20.7877 20.4653 20.4653C20.7877 20.143 20.9688 19.7058 20.9688 19.25V2.75C20.9688 2.29416 20.7877 1.85699 20.4653 1.53466C20.143 1.21233 19.7058 1.03125 19.25 1.03125Z" fill="black"/>
</svg>
