<svg width="31" height="33" viewBox="0 0 31 33" fill="none" xmlns="http://www.w3.org/2000/svg">
<g clip-path="url(#clip0)">
<path d="M15.5 14.6151C13.7906 14.6151 12.4 16.0497 12.4 17.8135C12.4 19.5772 13.7906 21.0119 15.5 21.0119C17.2095 21.0119 18.6 19.5772 18.6 17.8135C18.6 16.0497 17.2095 14.6151 15.5 14.6151ZM15.5 19.9457C14.3605 19.9457 13.4334 18.9894 13.4334 17.8135C13.4334 16.6375 14.3605 15.6812 15.5 15.6812C16.6396 15.6812 17.5667 16.6375 17.5667 17.8135C17.5667 18.9894 16.6396 19.9457 15.5 19.9457Z" fill="black"/>
<path d="M15.5 0.222168C6.9533 0.222168 0 7.39621 0 16.2142C0 25.0323 6.9533 32.2063 15.5 32.2063C24.0467 32.2063 31 25.0323 31 16.2142C31 7.39621 24.0467 0.222168 15.5 0.222168ZM15.5 31.1402C7.52292 31.1402 1.03333 24.4445 1.03333 16.2142C1.03333 7.98392 7.52292 1.28831 15.5 1.28831C23.4771 1.28831 29.9667 7.98392 29.9667 16.2142C29.9667 24.4445 23.4771 31.1402 15.5 31.1402Z" fill="black"/>
<path d="M15.5 3.42059C8.66273 3.42059 3.09998 9.15995 3.09998 16.2142C3.09998 23.2685 8.66273 29.0079 15.5 29.0079C22.3372 29.0079 27.9 23.2685 27.9 16.2142C27.9 9.15995 22.3372 3.42059 15.5 3.42059ZM15.5 4.48673C20.3298 4.48673 24.4629 7.61218 26.1064 12.0047L22.2354 13.3359C20.9076 13.7925 19.4722 13.7211 18.1923 13.134C16.4814 12.349 14.5184 12.349 12.8079 13.134L12.6122 13.2235C11.4487 13.7577 10.1295 13.8654 8.89788 13.5265L4.75796 12.3875C6.29943 7.79482 10.531 4.48673 15.5 4.48673ZM4.13331 16.2142C4.13331 16.1056 4.13841 15.9983 4.14132 15.8904L4.50014 16.0138C9.59422 17.7657 13.1967 22.3575 13.8375 27.8151C8.35531 26.9824 4.13331 22.0981 4.13331 16.2142ZM15.5 27.9418C15.2948 27.9418 15.091 27.9354 14.8885 27.9243C14.2779 21.9538 10.3758 16.9108 4.82706 15.0028L4.21959 14.794C4.27494 14.3235 4.35638 13.8614 4.46423 13.4097L8.63141 14.5563C9.18992 14.7099 9.76336 14.7864 10.3363 14.7864C11.2596 14.7864 12.1807 14.5885 13.0316 14.1981L13.2274 14.1086C14.6714 13.4454 16.3279 13.4459 17.7739 14.1091C19.2888 14.803 20.9892 14.8884 22.5622 14.347L26.4332 13.0156C26.5918 13.5918 26.7087 14.1857 26.7802 14.794L26.1728 15.0028C20.624 16.9108 16.7219 21.9538 16.1113 27.9243C15.9089 27.9354 15.7052 27.9418 15.5 27.9418ZM17.1625 27.8151C17.8033 22.3575 21.4057 17.7657 26.4999 16.0138L26.8587 15.8904C26.8615 15.9983 26.8667 16.1056 26.8667 16.2142C26.8666 22.0981 22.6446 26.9824 17.1625 27.8151Z" fill="black"/>
</g>
<defs>
<clipPath id="clip0">
<rect width="31" height="31.9841" fill="white" transform="translate(0 0.222168)"/>
</clipPath>
</defs>
</svg>
