<svg width="138" height="33" viewBox="0 0 138 33" fill="none" xmlns="http://www.w3.org/2000/svg">
<path d="M15.4999 15.95C13.7904 15.95 12.3999 17.3406 12.3999 19.05C12.3999 20.7595 13.7904 22.15 15.4999 22.15C17.2094 22.15 18.5999 20.7595 18.5999 19.05C18.5999 17.3406 17.2094 15.95 15.4999 15.95ZM15.4999 21.1167C14.3603 21.1167 13.4332 20.1898 13.4332 19.05C13.4332 17.9102 14.3603 16.9833 15.4999 16.9833C16.6395 16.9833 17.5666 17.9102 17.5666 19.05C17.5666 20.1898 16.6395 21.1167 15.4999 21.1167Z" fill="black"/>
<path d="M15.5 2C6.9533 2 0 8.9533 0 17.5C0 26.0467 6.9533 33 15.5 33C24.0467 33 31 26.0467 31 17.5C31 8.9533 24.0467 2 15.5 2ZM15.5 31.9667C7.52292 31.9667 1.03333 25.4771 1.03333 17.5C1.03333 9.52292 7.52292 3.03333 15.5 3.03333C23.4771 3.03333 29.9667 9.52292 29.9667 17.5C29.9667 25.4771 23.4771 31.9667 15.5 31.9667Z" fill="black"/>
<path d="M15.5001 5.09998C8.66285 5.09998 3.1001 10.6627 3.1001 17.5C3.1001 24.3372 8.66285 29.9 15.5001 29.9C22.3373 29.9 27.9001 24.3372 27.9001 17.5C27.9001 10.6627 22.3373 5.09998 15.5001 5.09998ZM15.5001 6.13331C20.33 6.13331 24.463 9.16259 26.1065 13.4199L22.2355 14.7102C20.9077 15.1528 19.4723 15.0836 18.1924 14.5145C16.4815 13.7536 14.5185 13.7536 12.8081 14.5145L12.6123 14.6013C11.4488 15.119 10.1297 15.2234 8.898 14.8949L4.75808 13.791C6.29956 9.33961 10.5311 6.13331 15.5001 6.13331ZM4.13343 17.5C4.13343 17.3947 4.13853 17.2907 4.14144 17.1861L4.50026 17.3057C9.59434 19.0037 13.1969 23.4542 13.8377 28.7439C8.35544 27.9368 4.13343 23.2028 4.13343 17.5ZM15.5001 28.8666C15.2949 28.8666 15.0912 28.8605 14.8886 28.8497C14.2781 23.0629 10.3759 18.1751 4.82718 16.3259L4.21971 16.1234C4.27506 15.6674 4.3565 15.2195 4.46436 14.7817L8.63153 15.893C9.19005 16.0419 9.76348 16.116 10.3364 16.116C11.2597 16.116 12.1808 15.9243 13.0317 15.5459L13.2275 15.4591C14.6715 14.8163 16.328 14.8168 17.774 15.4596C19.2889 16.1322 20.9893 16.2149 22.5623 15.6902L26.4333 14.3998C26.592 14.9582 26.7088 15.5338 26.7803 16.1234L26.1729 16.3259C20.6241 18.1751 16.722 23.0629 16.1114 28.8497C15.909 28.8605 15.7053 28.8666 15.5001 28.8666ZM17.1626 28.7439C17.8034 23.4542 21.4059 19.0037 26.5 17.3057L26.8588 17.1861C26.8617 17.2907 26.8668 17.3947 26.8668 17.5C26.8668 23.2028 22.6448 27.9368 17.1626 28.7439Z" fill="black"/>
<path d="M49.66 30.15C49.38 30.15 49.15 30.06 48.97 29.88C48.81 29.7 48.73 29.47 48.73 29.19V9.66C48.73 9.38 48.81 9.15 48.97 8.97C49.15 8.79 49.38 8.7 49.66 8.7C49.94 8.7 50.16 8.79 50.32 8.97C50.5 9.15 50.59 9.38 50.59 9.66V29.19C50.59 29.47 50.5 29.7 50.32 29.88C50.16 30.06 49.94 30.15 49.66 30.15ZM72.3442 30.24C70.3842 30.24 68.6742 29.81 67.2142 28.95C65.7742 28.07 64.6642 26.82 63.8842 25.2C63.1242 23.56 62.7442 21.63 62.7442 19.41C62.7442 17.19 63.1242 15.27 63.8842 13.65C64.6642 12.03 65.7742 10.79 67.2142 9.93C68.6742 9.05 70.3842 8.61 72.3442 8.61C73.6842 8.61 74.9542 8.84 76.1542 9.3C77.3742 9.74 78.4042 10.38 79.2442 11.22C79.5242 11.48 79.6642 11.77 79.6642 12.09C79.6642 12.31 79.5942 12.5 79.4542 12.66C79.3342 12.82 79.1942 12.9 79.0342 12.9C78.8342 12.9 78.6042 12.8 78.3442 12.6C77.2642 11.72 76.2842 11.11 75.4042 10.77C74.5242 10.43 73.4942 10.26 72.3142 10.26C69.8942 10.26 68.0142 11.06 66.6742 12.66C65.3542 14.26 64.6942 16.51 64.6942 19.41C64.6942 22.33 65.3542 24.59 66.6742 26.19C68.0142 27.79 69.8942 28.59 72.3142 28.59C73.4942 28.59 74.5242 28.42 75.4042 28.08C76.2842 27.74 77.2642 27.13 78.3442 26.25C78.6442 26.05 78.8742 25.95 79.0342 25.95C79.1942 25.95 79.3342 26.03 79.4542 26.19C79.5942 26.35 79.6642 26.54 79.6642 26.76C79.6642 27.08 79.5242 27.37 79.2442 27.63C78.4042 28.47 77.3742 29.12 76.1542 29.58C74.9542 30.02 73.6842 30.24 72.3442 30.24ZM108.62 29.01C108.68 29.13 108.71 29.25 108.71 29.37C108.71 29.59 108.62 29.78 108.44 29.94C108.26 30.08 108.05 30.15 107.81 30.15C107.65 30.15 107.49 30.1 107.33 30C107.19 29.9 107.08 29.76 107 29.58L104.72 24.36H93.0803L90.7703 29.58C90.5903 29.96 90.3103 30.15 89.9303 30.15C89.6903 30.15 89.4803 30.08 89.3003 29.94C89.1403 29.78 89.0603 29.58 89.0603 29.34C89.0603 29.2 89.0803 29.09 89.1203 29.01L97.8803 9.33C98.0603 8.89 98.3903 8.67 98.8703 8.67C99.0903 8.67 99.2903 8.73 99.4703 8.85C99.6703 8.97 99.8103 9.13 99.8903 9.33L108.62 29.01ZM93.7703 22.74H104L98.9003 11.13L93.7703 22.74ZM135.702 28.89C135.822 29.07 135.882 29.24 135.882 29.4C135.882 29.62 135.792 29.81 135.612 29.97C135.452 30.11 135.262 30.18 135.042 30.18C134.702 30.18 134.432 30.02 134.232 29.7L130.182 23.22C129.602 22.3 129.002 21.67 128.382 21.33C127.782 20.99 126.942 20.82 125.862 20.82H121.752V29.19C121.752 29.49 121.662 29.73 121.482 29.91C121.322 30.07 121.102 30.15 120.822 30.15C120.542 30.15 120.312 30.07 120.132 29.91C119.972 29.73 119.892 29.49 119.892 29.19V9.78C119.892 9.52 119.982 9.3 120.162 9.12C120.362 8.94 120.602 8.85 120.882 8.85H128.352C130.572 8.85 132.282 9.36 133.482 10.38C134.682 11.38 135.282 12.85 135.282 14.79C135.282 16.49 134.772 17.84 133.752 18.84C132.732 19.84 131.292 20.42 129.432 20.58C129.912 20.74 130.352 21.01 130.752 21.39C131.152 21.75 131.562 22.26 131.982 22.92L135.702 28.89ZM128.232 19.23C131.712 19.23 133.452 17.74 133.452 14.76C133.452 13.3 133.022 12.22 132.162 11.52C131.302 10.8 129.992 10.44 128.232 10.44H121.722V19.23H128.232Z" fill="black"/>
</svg>
