<svg xmlns="http://www.w3.org/2000/svg">

    <symbol id="logo" viewBox="0 0 138 33">
        <path d="M15.4999 15.95c-1.7095 0-3.1 1.3906-3.1 3.1 0 1.7095 1.3905 3.1 3.1 3.1s3.1-1.3905 3.1-3.1c0-1.7094-1.3905-3.1-3.1-3.1zm0 5.1667c-1.1396 0-2.0667-.9269-2.0667-2.0667 0-1.1398.9271-2.0667 2.0667-2.0667s2.0667.9269 2.0667 2.0667c0 1.1398-.9271 2.0667-2.0667 2.0667z" fill="#000"/><path d="M15.5 2C6.9533 2 0 8.9533 0 17.5 0 26.0467 6.9533 33 15.5 33 24.0467 33 31 26.0467 31 17.5 31 8.9533 24.0467 2 15.5 2zm0 29.9667c-7.97708 0-14.46667-6.4896-14.46667-14.4667 0-7.97708 6.48959-14.46667 14.46667-14.46667 7.9771 0 14.4667 6.48959 14.4667 14.46667 0 7.9771-6.4896 14.4667-14.4667 14.4667z" fill="#000"/><path d="M15.5001 5.09998c-6.83725 0-12.4 5.56272-12.4 12.40002 0 6.8372 5.56275 12.4 12.4 12.4 6.8372 0 12.4-5.5628 12.4-12.4 0-6.8373-5.5628-12.40002-12.4-12.40002zm0 1.03333c4.8299 0 8.9629 3.02928 10.6064 7.28659l-3.871 1.2903c-1.3278.4426-2.7632.3734-4.0431-.1957-1.7109-.7609-3.6739-.7609-5.3843 0l-.1958.0868c-1.1635.5177-2.4826.6221-3.7143.2936L4.75808 13.791C6.29956 9.33961 10.5311 6.13331 15.5001 6.13331zM4.13343 17.5c0-.1053.0051-.2093.00801-.3139l.35882.1196c5.09408 1.698 8.69664 6.1485 9.33744 11.4382-5.48226-.8071-9.70427-5.5411-9.70427-11.2439zM15.5001 28.8666c-.2052 0-.4089-.0061-.6115-.0169-.6105-5.7868-4.5127-10.6746-10.06142-12.5238l-.60747-.2025c.05535-.456.13679-.9039.24465-1.3417l4.16717 1.1113c.55852.1489 1.13195.223 1.70487.223.9233 0 1.8444-.1917 2.6953-.5701l.1958-.0868c1.444-.6428 3.1005-.6423 4.5465.0005 1.5149.6726 3.2153.7553 4.7883.2306l3.871-1.2904c.1587.5584.2755 1.134.347 1.7236l-.6074.2025c-5.5488 1.8492-9.4509 6.737-10.0615 12.5238-.2024.0108-.4061.0169-.6113.0169zm1.6625-.1227c.6408-5.2897 4.2433-9.7402 9.3374-11.4382l.3588-.1196c.0029.1046.008.2086.008.3139 0 5.7028-4.222 10.4368-9.7042 11.2439zM49.66 30.15c-.28 0-.51-.09-.69-.27-.16-.18-.24-.41-.24-.69V9.66c0-.28.08-.51.24-.69.18-.18.41-.27.69-.27.28 0 .5.09.66.27.18.18.27.41.27.69v19.53c0 .28-.09.51-.27.69-.16.18-.38.27-.66.27zm22.6842.09c-1.96 0-3.67-.43-5.13-1.29-1.44-.88-2.55-2.13-3.33-3.75-.76-1.64-1.14-3.57-1.14-5.79s.38-4.14 1.14-5.76c.78-1.62 1.89-2.86 3.33-3.72 1.46-.88 3.17-1.32 5.13-1.32 1.34 0 2.61.23 3.81.69 1.22.44 2.25 1.08 3.09 1.92.28.26.42.55.42.87 0 .22-.07.41-.21.57-.12.16-.26.24-.42.24-.2 0-.43-.1-.69-.3-1.08-.88-2.06-1.49-2.94-1.83-.88-.34-1.91-.51-3.09-.51-2.42 0-4.3.8-5.64 2.4-1.32 1.6-1.98 3.85-1.98 6.75 0 2.92.66 5.18 1.98 6.78 1.34 1.6 3.22 2.4 5.64 2.4 1.18 0 2.21-.17 3.09-.51.88-.34 1.86-.95 2.94-1.83.3-.2.53-.3.69-.3.16 0 .3.08.42.24.14.16.21.35.21.57 0 .32-.14.61-.42.87-.84.84-1.87 1.49-3.09 1.95-1.2.44-2.47.66-3.81.66zm36.2758-1.23c.06.12.09.24.09.36 0 .22-.09.41-.27.57-.18.14-.39.21-.63.21-.16 0-.32-.05-.48-.15-.14-.1-.25-.24-.33-.42l-2.28-5.22H93.0803l-2.31 5.22c-.18.38-.46.57-.84.57-.24 0-.45-.07-.63-.21-.16-.16-.24-.36-.24-.6 0-.14.02-.25.06-.33l8.76-19.68c.18-.44.51-.66.99-.66.22 0 .42.06.6.18.2.12.34.28.42.48l8.7297 19.68zm-14.8497-6.27H104l-5.0997-11.61-5.13 11.61zm41.9317 6.15c.12.18.18.35.18.51 0 .22-.09.41-.27.57-.16.14-.35.21-.57.21-.34 0-.61-.16-.81-.48l-4.05-6.48c-.58-.92-1.18-1.55-1.8-1.89-.6-.34-1.44-.51-2.52-.51h-4.11v8.37c0 .3-.09.54-.27.72-.16.16-.38.24-.66.24s-.51-.08-.69-.24c-.16-.18-.24-.42-.24-.72V9.78c0-.26.09-.48.27-.66.2-.18.44-.27.72-.27h7.47c2.22 0 3.93.51 5.13 1.53 1.2 1 1.8 2.47 1.8 4.41 0 1.7-.51 3.05-1.53 4.05s-2.46 1.58-4.32 1.74c.48.16.92.43 1.32.81.4.36.81.87 1.23 1.53l3.72 5.97zm-7.47-9.66c3.48 0 5.22-1.49 5.22-4.47 0-1.46-.43-2.54-1.29-3.24-.86-.72-2.17-1.08-3.93-1.08h-6.51v8.79h6.51z" fill="#000"/>
    </symbol>

</svg>